<mxfile host="app.diagrams.net" modified="2024-07-11T11:22:21.587Z" agent="Mozilla/5.0 (Windows NT 10.0; Win64; x64) AppleWebKit/537.36 (KHTML, like Gecko) Chrome/122.0.0.0 Safari/537.36 Edg/122.0.0.0" etag="btx8quD9gmhuT_zl9SLE" version="24.6.4" type="device">
  <diagram name="第 1 页" id="fgh2YfEw1hsat2glDbeA">
    <mxGraphModel dx="2206" dy="1238" grid="1" gridSize="10" guides="1" tooltips="1" connect="1" arrows="1" fold="1" page="1" pageScale="1" pageWidth="827" pageHeight="1169" math="0" shadow="0">
      <root>
        <mxCell id="0" />
        <mxCell id="1" parent="0" />
        <mxCell id="fqr_pHElhw7Sh0NQ77Ix-1" value="" style="ellipse;whiteSpace=wrap;html=1;" vertex="1" parent="1">
          <mxGeometry x="1750" y="970" width="410" height="320" as="geometry" />
        </mxCell>
        <mxCell id="fqr_pHElhw7Sh0NQ77Ix-2" value="见识" style="ellipse;whiteSpace=wrap;html=1;aspect=fixed;" vertex="1" parent="1">
          <mxGeometry x="1920" y="930" width="80" height="80" as="geometry" />
        </mxCell>
        <mxCell id="fqr_pHElhw7Sh0NQ77Ix-3" value="学习" style="ellipse;whiteSpace=wrap;html=1;aspect=fixed;" vertex="1" parent="1">
          <mxGeometry x="2040" y="960" width="80" height="80" as="geometry" />
        </mxCell>
        <mxCell id="fqr_pHElhw7Sh0NQ77Ix-4" value="实践" style="ellipse;whiteSpace=wrap;html=1;aspect=fixed;" vertex="1" parent="1">
          <mxGeometry x="2110" y="1060" width="80" height="80" as="geometry" />
        </mxCell>
        <mxCell id="fqr_pHElhw7Sh0NQ77Ix-5" value="思考" style="ellipse;whiteSpace=wrap;html=1;aspect=fixed;" vertex="1" parent="1">
          <mxGeometry x="2080" y="1180" width="80" height="80" as="geometry" />
        </mxCell>
        <mxCell id="fqr_pHElhw7Sh0NQ77Ix-6" value="分享" style="ellipse;whiteSpace=wrap;html=1;aspect=fixed;" vertex="1" parent="1">
          <mxGeometry x="1960" y="1240" width="80" height="80" as="geometry" />
        </mxCell>
        <mxCell id="fqr_pHElhw7Sh0NQ77Ix-7" value="交流" style="ellipse;whiteSpace=wrap;html=1;aspect=fixed;" vertex="1" parent="1">
          <mxGeometry x="1830" y="1230" width="80" height="80" as="geometry" />
        </mxCell>
        <mxCell id="fqr_pHElhw7Sh0NQ77Ix-8" value="练习" style="ellipse;whiteSpace=wrap;html=1;aspect=fixed;" vertex="1" parent="1">
          <mxGeometry x="1730" y="1160" width="80" height="80" as="geometry" />
        </mxCell>
        <mxCell id="fqr_pHElhw7Sh0NQ77Ix-9" value="反馈" style="ellipse;whiteSpace=wrap;html=1;aspect=fixed;" vertex="1" parent="1">
          <mxGeometry x="1720" y="1040" width="80" height="80" as="geometry" />
        </mxCell>
        <mxCell id="fqr_pHElhw7Sh0NQ77Ix-10" value="创造" style="ellipse;whiteSpace=wrap;html=1;aspect=fixed;" vertex="1" parent="1">
          <mxGeometry x="1800" y="950" width="80" height="80" as="geometry" />
        </mxCell>
        <mxCell id="fqr_pHElhw7Sh0NQ77Ix-11" value="认知种子" style="ellipse;whiteSpace=wrap;html=1;aspect=fixed;" vertex="1" parent="1">
          <mxGeometry x="1890" y="1070" width="120" height="120" as="geometry" />
        </mxCell>
        <mxCell id="fqr_pHElhw7Sh0NQ77Ix-14" value="" style="shape=image;verticalLabelPosition=bottom;labelBackgroundColor=default;verticalAlign=top;aspect=fixed;imageAspect=0;image=data:image/png,iVBORw0KGgoAAAANSUhEUgAAA7wAAAOdCAYAAACms26kAAAAAXNSR0IArs4c6QAAAARnQU1BAACxjwv8YQUAAAAJcEhZcwAADsIAAA7CARUoSoAAAP+lSURBVHhe7N0HmB3VefDxMQIVhCQkIaECqPdeAYnebGzcDY6x49iJa5wYFxwSOy5xb0lcEsexSfLFiXtvYJsquiRAQkioAGoICVRRRxI4H/+zM7tXqy13987dvTPz/z3PPrp7l6KdO3POec95z3te9H8viCRJkiRJypnj4j8lSZIkScoVA15JkiRJUi4Z8EqSJEmScsmAV5IkSZKUSwa8kiRJkqRcMuCVJEmSJOWSAa8kSZIkKZcMeCVJkiRJuWTAK0mSJEnKJQNeSZIkSVIuGfBKkiRJknLJgFeSJEmSlEsGvJIkSZKkXDLglSRJkiTlkgGvJEmSJCmXDHglSZIkSblkwCtJkiRJyiUDXkmSJElSLhnwSpIkSZJyyYBXkiRJkpRLBrySJEmSpFwy4JUkSZIk5ZIBryRJkiQplwx4JUmSJEm5ZMArSZIkScolA15JkiRJUi4Z8EqSJEmScsmAV5IkSZKUSwa8kiRJkqRcMuCVJEmSJOWSAa8kSZIkKZcMeCVJkiRJuWTAK0mSJEnKJQNeSZIkSVIuGfBKkiRJknLJgFeSJEmSlEsGvJIkSZKkXDLglSRJkiTlkgGvJEmSJCmXDHglSZIkSblkwCtJkiRJyiUDXkmSJElSLhnwSpIkSZJyyYBXkiRJkpRLBrySJEmSpFwy4JUkSZIk5ZIBryRJkiQplwx4JUmSJEm5ZMArSZIkScolA15JkiRJUi4Z8EqSJEmScsmAV5IkSZKUSwa8kiRJkqRcMuCVJEmSJOWSAa8kSZIkKZcMeCVJkiRJuWTAK0mSJEnKJQNeSZIkSVIuGfBKkiRJknLJgFeSJEmSlEsGvJIkSZKkXDLglSRJkiTlkgGvJEmSJCmXDHglSZIkSblkwCtJkiRJyiUDXkmSJElSLhnwSpIkSZJyyYBXkiRJkpRLBrySJEmSpFwy4JUkSZIk5ZIBryRJkiQplwx4JUmSJEm5ZMArSZIkScolA15JkiRJUi4Z8EqSJEmScsmAV5IkSZKUSwa8kiRJkqRcMuCVJEmSJOWSAa8kSZIkKZcMeCVJkiRJuWTAK0mSJEnKJQNeSZIkSVIuGfBKkiRJknLJgFeSJEmSlEsGvJIkSZKkXDLglSRJkiTlkgGvJEmSJCmXDHglSZIkSblkwCtJkiRJyiUDXkmSJElSLhnwSpIkSZJyyYBXkiRJkpRLBrySJEmSpFwy4JUkSZIk5ZIBryRJkiQplwx4JUmSJEm5ZMArSZIkScolA15JkiRJUi4Z8EqSJEmScsmAV5IkSZKUSwa8kiRJkqRcMuCVJEmSJOWSAa8kSZIkKZcMeCVJkiRJuWTAK0mSJEnKJQNeSZIkSVIuGfBKkiRJknLJgFeSJEmSlEsGvJIkSZKkXDLglSRJkiTl0ov+7wXxa0mS1Enojg8+/3/R4Re+unZ5UdTjha8XvehF8U8lSVJ7GPBKktSJnn3uj9HDOw9FD2w7GD1z+I/xu1F0ctfjolkDekRT+nWLuh9vQpYkSe1hwCtJUidZu+dw9PN1e6IjDXHuMU54IdZ99Yje0cjeXeN3JElSuQx4JUnqBAS7P358T1ROJ0xi85WjDHolSWorc6QkSepgpDGzslvujDP/HP88/54kSSqfAa8kSR2MPbstpTE3hX9++Qv/niRJKp8BryRJHYidRBSoao/7X/j33IkkSVL5DHglSepAHD1UWo25Lfj3nn3h35ckSeUx4JUkqQNxzm4lDhnwSpJUNgNeSZI6UNcu1Fxuv24V/vuSJBWJAa8kSR2oxwsB68ld29f98u91N+CVJKlsBrySJHWgF73oRdGsAT3i79pm9gv/Hv++JEkqjwGvJEkdbEq/btEJbeiBCXH55ye/8O9JkqTyGfBKktTBuh9/XPTqEb1DIFuu17zwz/PvSZKk8r3o/zzQT5KkTrF2z+Ho5+v2REdaOKWIlV2C3RG9u8bvSJKkchnwSpLUiZ597o/R8p2Hovu3HTzqfF4KVLFnd3L/blH3Lq7sSpLUHga8kiTVALrjZ5//v3DOLkcPUY3ZAlWSJFXGgFeSJEmSlEvmSEmSJEmScsmAV5IkSZKUSwa8kiRJkqRcMuCVJEmSJOWSAa8kSZIkKZcMeCVJkiRJuWTAK0mSJEnKJQNeSZIkSVIuGfBKkiRJknLJgFeSJEmSlEsGvJIkSZKkXDLglSRJkiTlkgGvJEmSJCmXDHglSZIkSblkwCtJkiRJyiUDXkmSJElSLhnwSpIkSZJyyYBXkiRJkpRLBrySJEmSpFwy4JUkSZIk5ZIBryRJkiQplwx4JUmSJEm59KL/e0H8WpIkNYPu8vDhw+Hrueeea/Lr+eefP+r7lStXRvfcc0900kknRf369Yv69+8fvrp3717/30z+TL7wohe9qP4r+R7PPvtstGPHjvC1c+fOaN++fdH8+fOj8ePHR8cff3z9V5cuXY76vvSra9eu4Sv5b0qSlGcGvJKkQqMbPHToUAgmkz9Lv0rf459tKphs6j3+2fPOOy8Ep41169YtBL0f+tCHove+9731we2RI0fCz0844YT6APhrX/ta9KUvfan+79IYAfQdd9wR/v3SYJuvxgF48h7/LP9/vpK/S+Mv3ufLwFiSlGUGvJKkXPvjH/8Y7d+/P6yG8idfSQCbBJF0hQSZpcFeafBX+h7BbLlmzpwZLVmyJP7uWL179452794df9e0Pn36RHv27Im/O9aMGTOiBx98MP6udQS9ye9deh2Sr+R9gm+C3cbXomfPnuGLVWv+PO44d0dJkmqXAa8kKfPoyg4ePBiC2iSwLQ1wWYEtDdJKAzi+COr4Z9LE//9HP/pR9PWvfz166KGHwt+xsauvvjr67ne/G3/XtDe+8Y3R9773vfi7BgSj06ZNi/76r/86uuqqq8LvliZWgpsKikuvLf9MaQCcXF/+7NGjh6vDkqROZ8ArScoMVidZ7dy7d2994JUEX3RnJ5544lFBV/JFUNsRwRcB4K233hp95zvfiX7+85+Hv1dz3vGOd0Tf/OY3W/178Xu9613vir71rW/F7xyL3/c1r3lN9Kd/+qfRRRddlHrw3hT+XgTAyWeQfA78eeDAgfB7NQ6Ee/XqFVa127JKLklSJQx4JUk1KQlun3nmmfovgilSjwmaGgdTfHVWeu2yZcui//mf/wkrsZs3b47fbTBo0KBo+/bt4XfCW9/61uj6668v++9LWvbb3va26L/+67/C9wSMp5xySvTUU0+F70sNGTIkrBy/+c1vjqZMmRK/27GSNPLGkxJ8nqRK85mdfPLJ9V8GwZKkajHglSR1OgJB9rIS1CZ/sopLNeEkKGIvK3/WSqrsli1bQoDLai4Bb2P8XV//+teHL1KOCXhx5ZVXRt///vfbvArL6vEb3vCG6Mc//nH4noD3hz/8YfgidZpr1hgpz6z6EgAPHjw4frfzMOQg9bz0c+aLytes/pZ+zvxpECxJqpQBrySpQxG4JYFOEvgQ3LKPtjTg4aujUpHLxSolqcqs5t58881hJbMUq88vfelLQ5D5spe9LPz9+R2HDh0a0nz5Gf8+gXx7EBi++tWvjm644YaQvv3kk0+G60Rq8W9/+9vw9+JnSbXnBCvJl1xySfh78e+zGl4rGIbw9y+9H/iT/cMEwaX3A18dka4tScoPA15JUlUR4O7atSuscPLFawLDJIBJAppaC24T/P1vu+22EEz+9Kc/DUFvY2eddVYIJlnN5ZigxpYuXRqtWrUq7LNtb7CbIOglaB43blw0ffr0+N0GXGNWffn7Lly4MH63AcHua1/72vD3vfDCC2sygCwNgktXggnk+/btG1a3+eK1AbAkqSUGvJKkVDUX4A4YMCAEgwQqBF21GNyWevjhh0PQSBXlpvbljhgxInrTm94UvsaOHRu/W1vWrFkT/e///m/4PdavXx+/24CVZ9KdCX47a79vuRiuMNmQ3Fd8EQD369ev/r4yAJYkNWbAK0mqSGmAu2PHjmjnzp0hwE1W4bIS4CLZl0uAyFFCjbEazSouAeL8+fMz8TuB1Ou77747/F7s92XVtDFWi/m9CIApslXrDIAlSeUw4JUktQndBkHttm3bMh/ggqDpF7/4RQgGb7rppmP25VI4KdmXe8UVV4TU6ywjVfg3v/lN+H3Z75tUjk6w3/fSSy8Nv++rXvWqmtrv25LWAmAyDHidlftSkpQOA15JUqsIirZu3RqOwXn66afDewQQWQxwUbov92c/+1k4NqexM888MwR9rOjyO+YRkxbJft9FixbF7zbg+KBkv+8FF1yQqdVShjd8rkzKEPzyu+LUU08NK9gDBw60CrQkFYABrySpSRwfQ4DLFwEDVYEJFPjK6krZ8uXLQ3DHvlwqHDc2fPjwsCeXAK9W9+VWy+rVq8N+X76a2+/7xje+MVybyZMnx+9mB8MdshGSe5qq2UxkJPc0x11JkvLHgFeSFNAdsLczCQj27NkTAtskIGC1L4v4XZJ9uVRLbox9uZyTSyDHvlxSeoss2e/L+cKc+dvUft8ZM2aE68W5wNwbWcTqb3KvEwj37t27/l7nnjD1WZLywYBXkgqM1F5Wb5OBP6nLpHoy6Cf1s9IjdDoLq3fJvtw//OEPTe7Lvfzyy0PQ9vKXvzzz+3Krhf2+v/71r8N1vPHGG5vc73vZZZeF68h+X7IAsoijnkjV5xkgdZ/7Iwl+WQW28JUkZZcBryQVDEEug/tNmzaFwX23bt3qA1wG91ld4SSovf3228PKJOflNrUvd+7cuSE4Y18ue5BVvmS/L9d38eLF8bsNyAB43eteF64v+32zfB8lk0A8J4cOHQqTQKeddlp4Rgx+JSlbDHglqQBo6ineQ5DL3lWCXAbwQ4YMiXr16pXp9M0VK1bU78vl92ts2LBh9ftyx40bF7+rSqxatap+v++GDRvidxtwbyX7fSdNmhS/mz08N3v37g3nMHNvsRLMM8PvR+Vn054lqfYZ8EpSjrEP94knnghBLiu7FB5isM75pFkerLP69v3vfz8EukuWLInfbcAezCuvvDIEXOecc07h9+VWC6uhd955Z/gc2O/L/dYY+33f/OY3h/2+rJBmFcMlzptOJo1Y6eV5Ov3008P+X0lSbTLglaScoboyg3K+OJeUdGUG5aTwZjnwY1/uL3/5y/p9uQTwpdh3+ZKXvCQEV+7L7Xjcd8l+39/97nfH7PclQEz2+77yla/M7H5fEOizHYBnjMkXjuViIokvqz1LUm0x4JWkHDhy5Eh92iWpy+zFJcgl2D3hhBPifyp7kn25BFHsyyW9tLE5c+aEIOpP/uRP3JdbI9jv+4Mf/CDs973//vvjdxuQRs/5vkxOnH/++ZmeiOHZI+glk4K9v6Q6E/iS+pzlZ0+S8sKAV5IyimCQojoMtPmTIIIglzTLrK9uPvLIIyHIZV8uv19jZ5xxRghy2Zs7fvz4+F3VIvb78lmy33fjxo3xuw24Z5P9vhMnTozfzSaqWpPuzD3L5Awp3Px+/GlavSR1DgNeScoYUkcpFJQUCyL4Y0WJgDfLCNqTfbkPPvhg/G4D9kkm+3LPPfdcA4iMKWe/78yZM+v3+1IZOcsIeMm4SIJ8iqfxZcqzJHUsA15JygCaavYMrl+/PgSGBAPDhw8Pf2Y58CN4Z18uqa9N7ctl3yf7cglyX/GKVxgs5ASf+69+9asQ/LLft6nP/cUvfnH43Nnvm+XPPdnvy7PLn6z2Js+uVZ4lqfoMeCWphnEGaLKaS1CQrBJlveDPggULQrDzk5/8pMl9ubNnzw7BDvtys77Sp5YRBLLfl/uhuf2+ycr+eeedl/nCa8nzTFCfPM8cEyZJqg4DXkmqQRx/snbt2lCIiiI4rAhRgCrLg/2VK1eGoIZ9uc3t5UzOy50wYUL8rookuUfY79vc3u1kv2+W7xEmfSh0tW7dumjnzp2hwNXIkSPDcWGSpHQZ8EpSjWAFlwCXQJdVTwb3I0aMyPTeXFbvkn25DzzwQPxugzyt3ik9BIR33HFHuG/Y79tUFsCsWbPCft+sZwHwuxH4MgnEPnWeeQJgVoAlSZUz4JWkTkZlVwa8pDlyjAkDXlY7s3qkSbI/k325v//975vdn0mw4r5ctYY04GS/b3P3Ux72eXO8EavaTHhxhjGpzrQFnictSZUx4JWkTrJ///7oscceCys7nB9LSiN/ZrGQTemKHPtym6rAy4ocQQkrchTukdqKgm3Jft+mMgZYIX3d616X6YwBhmWcY0zgy59keowePTrq2bNn/E9IktrCgFeSOtju3bujRx99NNqyZUtIXRwzZkwYqGdROWesui9X1VDOWc3JvZfVs5qZOKKtYKvD4MGDQ1vRp0+f+KeSpHIY8EpSB9mxY0cYvG7fvj0EglldtSmnqm6yynb++ee7L1dVVVr1m/2++/bti3/SIOtVvxtng4wdOzbq169f/FNJUksMeCWpimhiCRAJdFnZZU8eqctZ25fHvtxf//rXYV9ua+emso8yy8cmKbvY78u5zgS/zZ3rfPnll4f79OUvf3nm9vuy3//xxx8PZ/qy0suKr+f5SlLLDHglqQpoWklDJNAlWBw1alQIdrNUiIqVszvvvLN+5aypfbkzZ84MwcMb3vAG9+WqprDfN6kQ/uCDD8bvNmAbQVIh/Nxzz81UJgIFrih0R/BL0E7gy/YIA19JOpYBrySliBWlTZs2hUCXgJG0ZfYSHn/88fE/UfuSfbnsjaRydGOnnXZa/d7IiRMnxu9KtWvFihX19zTPZ2NURE7u6XHjxsXv1j6qOZPmTLozATuBL8+nRxpJUgMDXklKAYEuaYYMPAluk4FnVlaNqAab7MtdvHhx/G6Dk046KezL5Sgh9+Uqq5iEuv3228N9TjXxpvb7zpkzJwS+7Pdlv2wW8HslE20EwUy0DR8+3MBXkl5gwCtJFaAJpUIsq6KkK7M6RDXVLKQWsh8wOd+UfbkMlEsR1Cb7cl/5yle6L1e5kuz3ZV86+30JGksxcVW63zcL++5pj6j+vnr16pD2THVqCuSZ6iypyAx4JakdaDqfeuqpaOXKlWF1l4ElK7q1PrBkUH/XXXeFIPdHP/pRk/tyZ8yYEQb57MsdNGhQ/K6UXzzLyX7fJUuWxO82oEBUst/3nHPOqfkMB9onVnyZiGOVl60H7LE38JVURAa8ktRGHC/EGaCkQ7KiS+pgrQ+AWfFhMM8eRlKvGyNYf+Mb3xgG9JMmTYrflYon2e/L2dJPPvlk/G4Dnvdkvy/HA9UyJuPYh8/zz7YEAt/+/fvHP5WkYjDglaQysRpKoMs5uuyRo/JyLVdd5u+Z7MtdtGhR/G4DBsCvfe1rw8D9ggsucL+fVIJgMdnv+9Of/rTJ/b5z584Nzw/7fU855ZT43dpDejMVnakxwL7kCRMmhCrVklQEBryS1Ar2+pEayGoPqzus6nTr1i3+aW1hXy7n5TJIv/HGG5vcl3vZZZeFQTr7cnv27Bn/RFJz9u/fX7/f96abbmp2vy9F3a644oqa3e976NChaM2aNSHLY+jQoWErhnvzJeWdAa8kNaN0cMgZlwwOazFAZPB99913hyCXfbm7d++Of9Jg+vTpIchlXy5FtSS1D0Whkv2+S5cujd9twH7fq666Kjxv8+fPr8ntDgTwTOJxVnitT+JJUqUMeCWpEVZFk/Q/9ruR/scgttYQjDPoZq9hU/tyWcFJ9uVOnjw5fldSWh5++OHwDLI3nuCxsVrf78vkGIX3qEuQbNPI0pnhklQOA15JitEckra8fPnykOZHgZda25fHvtwf/vCHYZC9cOHC+N0GrEAn+3IvvPBC9+VKHYD9vrfddlt4LtnvywpqY2eeeWZ4Ll//+tfXZLtCfQK2bzA5xmSZFZ0l5YUBr1RgPP4Hn/+/6PALX127vCjq8cJXUQc5FKRatmxZKExTawM+9uX+5je/CYPpG264ocl9uZdeemkYTL/qVa9yX67UiQh2f/GLX4T9vjfffHOT+31f+tKX1u/3rZVU4tIJPwraTZ06tdCFrewfpfww4JUK6Nnn/hg9vPNQ9MC2g9EzhxsGYyd3PS6aNaBHNKVft6j78bV9zE5aqF7KkR3r1q2LRowYEY4ZqoXKyzTNpftyn3nmmfgnDaZNmxaC3Kuvvtp9uVINYr/v9773vfAcP/TQQ/G7DU4++eSj9vvWQkBVq21iR7F/lPLHgFcqmLV7Dkc/X7cnOnL0osNRTnihL3/1iN7RyN5d43fyh6Zv06ZN4czNXr16RVOmTKmJ1YxHH300DI7Zl8uAszGKZyX7cvk7S8oGMkh4tgmAm9rvS3CZ7PcdM2ZM/G7nqeWsl2qxf5TyyYBXKhA68x8/vicq56FnWHPlqHx26rU2kKNgTLIv97777ovfbUCK8mte85qQAum+XCnb2O976623huf9Zz/7WZP7fc8666wQ+LLfl8J5nYUhYlHSnO0fpfwy4JUKgjStf12xs8WZ68aYyX7PpH65Sd8qTdUbOXJkqJraWal6HHlUui+Xv1sp9uVecsklYdD76le/2n25Ug4x6Zbs973llluO2e9L+5Ts933Zy17Waft9857mbP8o5ZsBr1QQi7cejG558tiVhNZcMrRnNHtgj/i7bKKZq4X0Zf4e99xzTxjcNrcvlxUUglz25ZK+LKkYSHNO9vuSgdJY37596/f7zps3r1OyUsiO4SimvXv35irNucj9o1QEBrxSAfCY//sju44qwFEuCnW8c2LfzA5qkvRl0gYnTZrUKQM0zvNlEMu+3LVr18bvNqDgVLIvl4BXUrFR4Io2gwCYwleNkaGS7Pfl/NyORH9CmjMTiGSeZD3Nucj9o1QUBrxSARx47o/R1x7eGX/XdtdM6Rf1yFjaFvvkSMF7/PHHOyV9mX25rOKymtvUvlzO+U325V500UXuy5V0DNoxUp0Jftnvyzm5jZ199tkh8GX1tyP3+5LmvGbNmvotIqQ5Z7EdK2L/KBWNAa9UAM8cej765iO74u/a7l0T+0Ynd8vOQGbXrl3RkiVLwj7YmTNndtjqA/tyf/vb34bBKX823pfLKkDpvlyKwEhSOdjv+/Of/7x+v2/j4RsTeuzzpX3pyP2+ZNE8+OCDYf8x7S1HLWVJ0fpHqYgMeKUCKMoMdrKqS9owx3rwRdBbTTSh9957b/2+XILtxtgzzCCUfbmkVEtSJUgpTvb7sqe2Mfb7UuGZdocV4Gqn3BLscqQaX6NGjQoZNVlZ7XWFV8o/A16pAHjM875HiQJQrDIQ4M6YMSPq06dP/JPqIFU62ZfL68YGDRpUvy932rRp8buSlK5kv+93v/vd6KmnnorfbUAAmuz35XU17d69O2TXZGm1twj9o1R0BrxSQeS1CiWruuwjI+is9qruzp0768/LZVW3MfblkqrMwPLiiy+Ojj/++PgnklRdzz33XP1+X1Kfm9vvS90A9vv269cvfjddjVd72dtb7UybSlmlWco3A16pINp6ziDz1WRp1fI5gx2xqsu+XM7JZRDJublN7csluCXIJdjl2CNJ6kwcG0SRK9qtW2+99Zj9vl27dq3f78s5v9XY75us9vL/pn2u5dXePPaPkhoY8EoFsnbP4ejHj++Jynno6dCvGtU7GtG7a90bNYQVhKQCczVWdWkWWcFlsMiKblP7cjmDksEi+3JPO+20+F1Jqi2cQZ7s912+fHn8boNkvy8rv2eddVaq6blZWu3NS/8o6VgGvFLB0Kn/fN2eFmeyT3hhPPKaEbXZmbOqy6oBg7K0V3UJoNmTy8CwuX25BLgEuuzLdd+WpKxguMd+XwrsEQA//fTT8U8acKYv+335SnO/b1ZWe7PeP0pqmgGvVECkby3feSi6f9vBowp1UIBj9oAe0eT+3aLuXWprFp6VAvbqPvbYY2FQRhXQNFYK2JdLdWWC3HvuuSd+t0GPHj3q9+VypJD7ciVlHft9b7755tDusd/34MGD8U8azJs3L7R7ae33rVYbnrYs9o+SWmbAKxUYj/+zz/9fdOiFr25dXvRCJ/6imly13L9/f3T//feHAROVPytd1T18+PBR+3L5vhTX4KKLLgqDvde85jXuy5WUW+z3/elPfxraw9tuuy30C6XY73vFFVeE9pD9vnxfCVZ7k9oLs2fPjnr27Bn/pLZkpX+U1DoDXkk1jfMmly5dGp1xxhnRxIkT2322I03dfffdFwZ17MtlZbexSZMmhUEdxwm5L1dS0bDfl+ONaCdXrFgRv9uAld7kfN9K9vtSXZ///hNPPBFSnIcMGRL/RJLSZ8ArqSYxIKLACgEvA6LBgwfHP2mbtWvX1u/LJZWusVNPPbV+X+706dOdwZdUeAwNmWhM9vtu3bo1/kkD0pJpN9nvO3LkyPjdttm8eXP4/wwdOjQUAmzvhKYktcSAV1LNIcWOFGYGP6S8cb5tW1BVOdmXe/fdd8fvNmBf7qte9aowWLv00kvdlytJzWC/70033RTa01/84hdN7vedP39+aE/Z70vV57bgvGDaeyY5ae/dQiIpbQa8kmoKKW5UEh0xYkQ0YcKEsouasA/3xhtvDIOyX//6103uy73wwgvDoIx9ub17945/Ikkqx549e8L5vqz83n777U3u9335y18e2tnLL7+87P2+1GdYuXJltH79+mjq1KnR6aefHv9EkipnwCupJrCKsGzZsnBUBoWpSDVuDc3XwoULQ5DLvtwdO3bEP2nAvl8GX+zLdRCljsSKFfd18mfjL+7fpAtOXif3cP/+/cMkTZJin7wmG6HxF5kQyZ9SR2FyMtnv+8gjj8TvNuAeTvb7nnnmmfX3ckto/yloRftP4Mt9LUmVMuCV1Omo2klKW7du3aJZs2aFlOOWrFu3rn5f7qOPPhq/22DgwIH1+3LZ/1vOQEtqCUHroUOHomeffTZ8lb7m68iRI00GtInSADX5SoJYJK+feuqp8D1nPidBMJLXjf8ffCX49xv/P0444YSoe/fu9V88Y6WvDZJVKe5LglTa4+9///tN7vcdM2ZMaI/Z70v2TktImX7ggQfCMzZnzhyzcSRVzIBXUqeh+dmwYUMoTkUBlHHjxtUHAI2xL/fHP/5xGFTddddd8bsNGMCzL/fNb36z+3LVJtyHDK45/mrfvn3hz9Jglp8lKfKlAWMSNPInqZuNg02+CCj5au6+rhR/d4Lx5laR+Xsnv0Pj3wn8vRv/ThwTc9JJJ4U/+Vm1/u7KH+65P/zhD6GdZr8v91pj55xzTgh+r7zyymb3+5ae2Usxq2HDhnkfSmo3A15JnYIVMfbqbt++PazqDhgwIP5JAwbrv/vd78Lg6Ve/+tUx+3KR7Mt97Wtf60qAWsQ9lwS1SWCbvGagTmYBQR5fvG4quM3LoJuAIgmGS4NgVte4LnzxmqCd4DcJgEtfs3osNYf9vpzvm+z3bYzJlle84hWh/X7JS17S5H7fbdu2hdXeU045JZo2bZr3nKR2MeCV1OGeeeaZ6Lrrrosefvjh6Otf/3oIeBM0SYsWLQpB7g9+8IMm9+VSzIpBEvtyOZ9XKsVqJ5W+uc9Il+c1QS0BHYPq0sAtCd74IrhTAyYBkuA3mRjgi+8JlpkA4PpRVbdPnz7RySefHF6bJq3GNm7cWL/fl+JUjbHf90/+5E9Cuz537tyjJpbY7vLe9743mjJlSvSFL3wh3GeS1BYGvJI6FOfqMnih0ife+c53Rt/85jdDdc5kXy6pbI2xL/cNb3hDGBBR1Mr0NoHglpUkAlsCXL74nuC1NAhLgtumVpHUdgS8SQBcOrlAkEymBdedLz4DvjcIFhhysmJLO89+X1ZwGxs7dmxo59nvO3z48NBHfOtb3wo/o8I+k6RDhgwJ30tSOQx4JXUImhoC2U996lNhph8ErQS/FDy58847w3ulSCN95StfGQY/l112melsBUcabmlgy+vGwW3yxdnNTop0LJ5xzlRNPp/GQXDpZ8Trco8cUz6xxSDZ7/vLX/6yyf2+5557bpjg/NrXvhbuL5DZ89GPfjQExj7jksphwCup6hjwLlmyJPrP//zPsJqbIFDhZ41dcMEFIchlXy4DYxUTAS5BE/u8SW3niyCpNLDl/jC4rV2lQXDpZAWfLWmsfLE/k8/SALi4uDd+8pOfhOB3wYIF8bsNGvcVrPr+xV/8RajC71YESa0x4JVUVQx2kz25BLzNGT9+fAhymb2nIqeKp7kAl4AoCYxYKTS4zTaGHazMJ58zfyYBcPJZGwAXF5X7k/2+q1atit89FgEvac/s+WXSS5KaY8ArqWoYzBLsPvHEE2FGvjH29VF0imOEvvSlL1lluWCSADcJegxwi8kAWE3hnvjQhz4U3XTTTaHoFfv1G/v3f//30IdwXi/3iSQ1xYBXUlUwS08V5kmTJoUqm1dddVX8k6Z9/vOfD5WblW/s29u6dWv01FNPRU8//XR4zwBXpZoKgHHqqadGgwYNCgXs3M+ff1Rk/tu//dv4u6ZRyZ8V3hUrVoQqzmYHSWqKAa+kVLEyw+Bj06ZN0ezZs+vP1/3KV74SzmLkKJMtW7aEVV/+GfZlsQfr17/+dTiLUflDWjsBLl8EL1RLJnDhq2/fvga4ahHDlF27dtXfQ1SGZnIkuYdMZ80nzmC/4oorwsoufcTQoUPDai6fOVXCqfXwvve9L/yzVHtevHhxdPrpp4dJVrMBJJUy4JWUGgYhrOZSbfPMM88MZ5u2hIEMq3z8cxanyg+6FVKVkwCFY2tYwU0ClNbuC6klnAOc3FusAHPsVHJvkfrsBEp+UMyKz5vV/daOtuKfW7hwYajuz2SrR5BJShjwSkoFKYjs12XwyTESphwWCyv7rLKwek8gwmRGaQqqg09VA5NspSnyBEXcc4MHDw7ZJa70FQtbJjjmjkk2Jl3pjyTJgFdSxRhwkk42cuTIUG3ZFZZiSFZySU1/8sknw+c+ZMiQEHCwomuwoY7EpAsrvgS/mzdvDvcnabCnnXaaK78FwudOdee1a9eGYlZMuEkqNgNeSRVhL+7SpUvDYJI9uJ6JmH+kDhLk8tkfOnQoBLkEFeyrNKhQLWBow35x7lOCX2oHsL+T+9SU+vyjNgR7gLkPpk+fHj57ScVlwCup3R577LHolltuiT7+8Y+HdEIqZK5fvz7+qfKEwJZVXAIIVnVJVyZ4YDW3tb11UmcivZ5VX+5d2ilWe7l3Wf0lEFb+DB8+PJwUQPv0iU98Irr44ouj0aNHxz+VVDQGvJLajGaDI4e++tWvRv/zP/8T9k2BwIeZdeUDn2USKJC2TkXlJFBwT66yiD2/ycQNlZ9Jd+WeZs+vEzf5QaZRcm4vbdWf/umfRu9973vD0UVmoUjFY8ArqU3YJ/fTn/40+uhHPxqtXr06frcOAdHOnTvj75RVFCBjdYSU5dJUUI9/UZ4kqfl8kcHAfc7KoIWOsq9fv35hQqMU9SU+9alPRa95zWusLyAVjAGvpLKx4vfJT34y+vznP1+/qltq8uTJYeVX2cNqCBWWSUlnoMi+XAb/DBxdEVGeMQxioo57n/2+TNxx77vqm130RZwH3xinB3z4wx+O/v7v/956E1KBGPBKKgsrIJxxyOw4lVDBYDBJG8M555wT3XnnnfF3yoIDBw5E69atizZu3BgGgyNGjAgrXaYsq4hIeeZZIPhlUu+MM84Iz4TZDdly7rnnRnfddVf83dF9FRXkf/azn0VnnXWW7ZxUEOZ0SGoVQRGDBw70f/e73x3SWxkslAa7oBiMah/znJyZywQGRcdI7Zw9e3Yo7DJq1CgHgSos7n2KG/Es8EzwbPCM8KzwzLhGkA19+vSJX9Whr6LPou9617veFfoyJmfp2yTlnyu8klrEfs577703VLucOnVqSG99/PHHo4kTJ4bVEFYFk/TmN77xjdH//u//hteqPaSksy+X8yn57KiqzepVjx494n9CUmMERaz4sq+dgJjzxsmCMCW2dtEXfe973wuvkz6Kz+6RRx4Jk3oMfZctWxaK8p199tlR7969wz8rKZ9c4ZXULFKXWdllP1sS7OLaa68NARPe/va3hz9BAKXaw2dFgbGbbropDNrHjBkTXXbZZWHSwmBXahnpzDwrPDM8OzxDPEs8U0k7qNpS2hclfRSf1Yc+9KHwmr6MPo2+jT4u2aYjKZ9c4ZXUJAoYPfDAA6H4B4OCxM033xxdeuml4TWrvmvWrIm+/e1vR0uXLo2+8IUvhEIvqg0HDx4Mq/GsTlGIh8H6gAEDLEIlVYBhE+nNjz76aCjwRpYEq4akyao20H/9zd/8TTR9+vToHe94RzR27Niwmgv6MFLWE7SPy5cvj2bNmmX/JeWUAa+kY5D2+tBDD0UzZ84M1XoTpMQygEiqX/6///f/oj/7sz8Lr1U72HfIYJzPkXNGCXSptiwpXVR35lnjnGrSnHnWevbsGf9UteK///u/o7e85S3hNZO4S5YsOSolnercDz74YDRt2rTwOUrKFwNeSUehQil7m+bOnRuCpVLf+MY3ove85z3h9Zw5c6L77rvP8wxryO7du8Pgm9UNJioYfLs3Tao+ah3w7BE4sUrIs9e4cJI6D+fHU7Rq8eLF4ft//dd/jf7yL/8yvE4wabFo0aKQ6kx1bkn5YcArqR570zhH98wzzwypr6VYyWAQx5+45557QrEPdT72nzHY3r59e/0qk8eoSB2P7IrHHnssZFeccsop4VnkGBx1Poovzps3L7wm44U2s3HmS1K9fsqUKdakkHKkyydeEL+WVGDsYyJVmVnwxsEurrvuumjBggXhNRUwr7nmmvBanYfJB9LwGGCzn5o9aBy7QVVSSR2PSsA8i6wQUt2ZvaEEUSeddJIF4joZk4G0lUzqUt/g2WefjS6//PL4p3VIRycIpl3ls/SoPSkfXOGVFK1bty4c10Cw29RqBIEwe5s4y5CVQ6qTElipc+zduzd8XgykKZbDuaEGuVLt4TgcgiyKxzGRSLXnXr16xT9VR9u0aVM0bty4MBnRpUuXsH2Hz6QxsmbYssPPKEomKdtc4ZUKjjNZV65cGdKTmwp2mRN705veFAZt+NjHPhZdccUV4bU6FqsSrBgxSCNdkn3U7Bdk4Cap9vBsEuiy4ssee4oBEmyxcugkVcejpgF92m233Rb+JK2Z/q1x5Xomdmljk+JWVLmXlF2u8EoFVhrsNlfF99e//nX0ile8IrxmTxP/vKl5HYvzIxmYsRJPuuSECROsBCtl0L59+6JVq1aFI3JYOWSPL6mz6jhMHNKGUrMCv/rVr6KXv/zl4XVjbBth768rvVK2GfBKBZXs2W0p2D106FA4wiFZ3f3xj38cve51rwuvVX0cA8WkRFJchUGae8qk7HvmmWfCtgTO8SXoHTly5FHH5Ki66Muuuuqq8JotIWTOdOvWLXzfWBL0Tpo06agz6SVlhwGvVEDMbNPBN7dnN/GlL30pHN6P8847L7r99tuPSf1S+jhCg8+IvdKsprO60FQhMUnZxj58Al9WHdlbShaNR71VH0PfCy64ILrjjjvC9/R11157bXjdlGRPLxPAVm+WsseAVyqY5Jxdgl32KDWHlLuxY8eGAkkEuVStnD59evxTVQtnQfL5cM1Z0WWPrpMMUn4xDOPsbAJfcA5s4zPQlb6lS5dGM2fODNefQmJk0px66qnxT4/FsW8EvZ7TK2WPRaukAuFsSIKpps7ZbYxjhziPEO94xzuit7/97eG1qoNCNhRIYdDFRMOMGTNCgRWDXSnfeMYJuEiX5TWFrUh5plCSha2qh3oImzdvjh544IFQJ4H08qReRVMoZMVnwuQvmTd9+vSJfyKp1rnCKxXEk08+GQKquXPntrp6wACACsA0D3TqBGGm1FYHRz1xZMmaNWuiIUOGhH1ize0lk5R/nA/Lai/BGJNfHD1mJfbqIKWcPdRU0GayYfHixeE885aQhbNo0aIwKTl06ND4XUm1zI0iUgHQqRPszp49u9VglyCX1d1kLuzjH/+4wW6VPP300+F4DAa28+bNC+l1BrtSsXXv3j20BbQJtA20EQRZSh99G0ftoXHf1xz6UPpS+lT6Vkm1zxVeKedIjbv77rujKVOmlLXv6Ac/+EH0hje8IbxmdeHhhx/22IyUkb5M0TD2hI0fPz4cd2HqsqTGKGBHRX2OMqLmAkWTSK1Vekhnpn8kywb0ga9//evD65ZQD4P+cf78+VbPl2qcAa+UY/v374/uvPPOkBJH2lZrCMSoFLpp06bw/W9/+9vopS99aXitypG+zBFPpIiTCkf1ZVd0JbWGI+JIc2ZrCm05R+mY5pyeG264IXrZy14WXp9++ulhgqGciQXacraknHvuuZ6NLtUwU5qlnGIf2D333BOddtppYXBUji9+8Yv1we7ll19usJsiUhJJTaQaK6mK7P8y2JVUDtoK2gzaDtoQ05zTRV9HnweKO3JMUTnoW5m85Jxe+lxJtckVXimHjhw5EtKYqfzJXrBy0mVJz2J1l077+OOPD6lapNuqMnwWpC+zF49jhkxfllQJhm3r1q2LVq5cGQrdkeZsNefKsapLavNzzz0XqjBzDjqrva3h86ByM0f4kd7sZyHVHld4pZwhbZYKksmKQLnB1XXXXVc/Q/3Xf/3XBrspYAXm1ltvjQ4ePBhddNFF0ciRIw12JVWENoS25MILLwxtC22Mq72Vo8/7q7/6q/Ca60qfWA4+D/paal3Q99IHS6otrvBKOcLjfP/994e9uMw0s1JbDvb5nnfeeeE1hVHYl2QRjvYrXdVl9YViYQa6ktJGm79hw4ZoxYoVIbWWY81cYWw/zuKlWCMFBUHfeM4554TXrWFlmMwq9v5Sxdk2X6odrvBKOcHAhzRkzhM866yzyg52mY3mKIbEpz/9aYPdCpSu6rICM2zYMAc+kqqCtmX48OGhrWGi0729lenbt2/oAxP0jVTKLgd9Ln0vfTB9setJUu1whVfKCfYbsa+Lldq2HFvxH//xH9Hb3va28Hrq1KlhL5LVP9uOVV1WWaiiyiqLga6kjuRqbzqYBKb2xbJly8L39JF//ud/Hl6Xg4mHO+64I6Sds1osqfMZ8Eo5wCCHFFpSr/r06RO/27o9e/aEIy6SFQFWBy644ILwWuXj+i1dujQ66aSTounTp3tOpqROQ8C1ZMmScCwd7dHAgQPjn6hct99+e1g1B9ePbT69e/cO35eDVd677rorbGlh8lNS5zKlWco4jqggferMM89sU7ALUreSYPd1r3udwW4bsWeLQHfx4sVhJv/ss8822JXUqWiDOL6INom2iTaKtkrloy987WtfG17TR37mM58Jr8tFX0yfTN9MHy2pc7nCK2UYBTYokkH6FcdTtAUz1qS8kYpLRWeOZGAvmMrDDD6DSY6voEKnga6kWpOs9lJTYM6cOW2eFC0ytghxlNyhQ4dCajip4mREtQWFC9kmRBFJ9gdL6hyu8EoZxRFCHIHAUQptDXbxwQ9+MAS7uPbaaw12y8QcIQMhqndyRiMrKQa7kmpRstpLW0WbRdvlOkd5ODOdvhH0lcnrtqBvpo+mr06O/ZPU8VzhlTKIohrsD+rVq1ebztpN/P73v49e8pKXhNd0yBS8Yv+pWsagh9USVtZnzZoVjnCSpCzgqJ0HHngg6tevX9jba0Gr1u3bty8aN25cWKkFfedll10WXpeLYTb9Bv8tVnotCil1PFd4pYyh82RPFkHutGnT2hzsErS9//3vj7+Loi984QsGu2UgyKWQCZMN7O8y2JWUJbRZtF3s56Uto01Ty+gb6SMT9J1t3Q+d9NWg73adSep4BrxSxjz++ONhpn7u3Lntmin+5je/Ga1cuTK85szAq6++OrxW0xicPPbYY2GvNCluXDP2PEtS1tB20YaxhYU2jbbNAKxl9JEUoMIjjzwS+tC2oq+mz6bvpg+X1LFMaZYy5Omnnw6FktpbAIPOlqIbzzzzTPh+4cKFoRNW0yhWQioaxzfNnj07pAJKUh7s3Lkzuv/++8NxOxQ+7Nq1a/wTNUZfyUQB6Hsp+ti/f//wfVskhSYpIHbqqafG70qqNld4pYzYu3dvGJyw96q91R4//vGP1we7b37zmw12W7Bjx46Q9nfccceFNECDXUl5QptG20bKLWew0+apaazw0meCoJW+tD3ou+nD6cvp0yV1DFd4pQw4fPhwdMcdd4QCUxMnTozfbRvOA6Sj/eMf/xj17NkzWrNmTbuqO+cdTSJpfhTy4lqTxtzWfdKSlBW0eVRvJl2XisKjRo2yzWsChas423j//v1hIpT9uFOmTIl/2jZca/575513nivrUgdwhVeqcQSozAZTkZkzAduDAc373ve+8N/CRz7yEYPdJlCQijMT165dG9LGR44c6cBPUq7RxtHW0eaxv5Q2kLZQR6PPpO8EfSkFrNq7ZkRfTkEsqmYn/bKk6nGFV6pxy5cvj7Zu3Rqde+657T5G4he/+EX06le/OrxmxZLZ5e7du4fvVefgwYPhrEQGf6R6e30kFU1yvjtDQ9rBHj16xD8RuD5k/rAiDvrWV77yleF1W3FiAplb7OWdPHly/K6kanCFV6phGzZsiDZu3Bj2D7U32KWD/uAHPxh/F0X/+I//aDDXCHuyFixYEFbRWeXw+kgqIto+2kDaQtpEjy46Gtfny1/+cvxdFH3gAx8IxQ3bgz6dvp0+ni9J1WPAK9UoKmiy75Zqjuy5ba+vfOUrIUUXF154YfSqV70qvFadJ554IlTNHD16dDRjxox2HfUkSXlBG0hbSJtI20gbqQZkS9GXgr6VPra9SGumj1+2bFno8yVVhynNUg0ivZbZdQpksLeqvRoX2eCInalTp8Y/LTaaPlK7WUXnyKGBAwfGP5EkgaPwqCHBub2k8lrToA4BKpMC7L8laKUI5ODBg+Ofth2BM/+N888/3zRyqQpc4ZVqDIEYRUMGDBgQ9ttW4sMf/nAIdvHOd77TYDfG3inOVXzqqadClUyDXUk6FvtLaSO3bNkS2kzaTkWhL33HO94RXu/bty/0tZWgr6fPp+93HUpKnyu8Uo1ZtWpVtGnTpnA+4vHHHx+/23YUHmF/EE4++eRwUP4pp5wSvi8yBicM3E488cSwstvevdGSVBQEuqz0HjhwIPQrrGoW3bZt20IGVXK2PX0u6cntxTUms+v000+Pxo0bF78rKQ2u8Eo1ZPv27eEMWDrNSoJd5rGuueaa+Lso+od/+AeD3RdwfamKOWjQoOiss84y2JWkMtBW0may4ksbSltadKzIfuITn4i/i0KfW8kaEteYvp/Jaa+vlC5XeKUaQaXH2267LczsVprK/N3vfjd605veFF5z3t9DDz1U+OCO/cyki02ZMiUaNmxY/K4kqS2oe0BBxZkzZxb+PHdWZUlvJjML9L1XX311eN1eHHnEfl6yvLp16xa/K6kSBrxSDeAxvO+++8KqLmm2lRQGIWWXoJkAD7/73e+iF7/4xeF1UTGAWLFiRTRr1qyKCotILWHwy8QVR4HxJ98/99xzTX49//zz4ecUveH5T7riZM99UpmdtoAvis4xaUUFXdqJpr74OQNkjk7hz6JPcql62NP7wAMPhPNjKWhVZL///e+jl7zkJeH10KFDo9WrV1d0sgJtweLFi0Mbwaq6hcKkyhnwSjWAFKb169eHGd1KB6kf/ehHo09/+tPh9RVXXBH9+te/Dq+LiOaNwQcVMNl31r9///gnUtsw+CQYZUKJP5Oglj+TL/4ZAtMk6ORZbiowLQ1aeZ0EtWCPJNhjDu5hvvhvlwbLpcFz8kUAnfy9CKT5b/P3SL6SvxeDcfZg8if/jNQeO3bsCPUQRo0aFfayFjkwo6/97W9/G17TB3/yk58Mr9uLZ/n2228PkwljxoyJ35XUXga8Uifj7L177rknHPbft2/f+N32IWgeP358GPAy2F6+fHkYiBQRTRtHR1CJ+eyzz4569+4d/0RqGkEiR4IR1CZfSZDL+wSHSaDYOIhMvnjuOnvgz72fBL/JV2lwnvxOBM4cgZL8TvyZfBFwu7Kk1uzZsye69957Q10EUnuLes+Qgjxp0qQw8UQ7QIpzpVtndu3aFc5BnjdvXtSvX7/4XUntYcArdaLDhw+HWVxmyPmq1FVXXRX9+Mc/Dq+vvfba6Etf+lJ4XTQM5Em327t3bwh2k9UyKUFwy/1BhdXdu3eHPxm8835p8Ff6muA2LwN6un6C4MaBffKalWomiajw3qdPn/Bnr169wvtSKbISCHq5P9g2UtSsAfrcf/zHfwyv6Yt/+MMfhteVoIglGUpkf3Xt2jV+V1JbGfBKnYRHj2MM+JN020oH0hxnQKcIqkeSJs1AtWhY2SLNjsCF60qQomLjGSO4ZcUkCXD54pkrDej4k8C26EEdzw6BbzIRkFwzriPXKLleZKQQ5LgSLCZPaHcJdufOnVvI/eM8I6Qfc1wR6JM5w7gSPHNcV9okKjj7rEntY8ArdRJmbQlKL7zwwopnblnRZGadasz49re/Hb3tbW8Lr4uEdE1WGkgpq/RoJ2UX3RqrtRztwRd7DQniCNJKA1yCWweQ5eGaEgSXrojzxUCcvfEce8YXq8Je02IinZdiS7TDZNbQDhfN9ddfH7397W8Pr6dPnx7OLq50xZvJBDLBCKZHjhwZvyupLQx4pU7AQPGuu+4Kg4I0Cil961vfit75zneG1zNmzAiDjqKllTEYJ9jlejLQMPWyOEoDXIJb/iTALQ3ECHK9J9LFNSb4LZ1Y4BpzvZNrbwBcLNwTS5YsCbUp6N+YVCoSJp85aWHp0qXhe/rmJACuBM8W/ds555wTJusktY0Br9TBSLkl1emMM85IpaAUwTMzvww4cccdd0TnnntueF0UBDsU/jr99NOjiRMnOsAuAJ6jrVu3hqJk/MlA0wC3czUVADPxNnDgwFDUiD+LmOpaNAwrOQZu06ZNoRgjae9FQh98/vnnh9dpbi/ixIEnnngi/Ld9jqS2MeCVOtiDDz5Yn/KVRmD2wQ9+MPqnf/qn8Pr1r3999IMf/CC8Look2KUiJhWqDXbzi2JKBLh8EUwxkD711FNDMMWqhwFubSEAZkKOz+vpp58O+6iZlODz4ouCYMonhpZUKt6wYUOoMly0Kvn0xT/60Y/Ca/roL3/5y+F1JbimyZadmTNnxu9KKocBr9SBGPhRPfiiiy4Kx4FUihlfDv5PjkLge1aOi4LVJIJd9jWNGzcufld5QfdEoakkyCVtndXbJGCy+na2JBMWBL+sAJPumnyWFMBysip/CHrXrVsXgt40VjmzgkCfCVgmt6klwRGBafRRHI926623hpodPDeSytPlEy+IX0uqIo4gYnaWs/oYtKfhz/7sz0KQiw9/+MPRq171qvC6CFg54npynJPBbr6wav/444+HfXAbN24MlbaHDx8e9mbzJ8GRKX3ZQ3E+zhNl6wGTVEz68RzThnGGOMV5+KytrJ4f9HWs9HMmOintRSlkRcZJsn2J35+g/+qrr45/2n60ezwfBNBMbhf1CCiprVzhlToIK7t0gGkcQYQbbrghetnLXhZen3baaWEmvSgpggySWdll7zJfyj5WLp588smw74/U18GDB4f7mkGyqcr5RkDAPmw++y1btoRUdT77oUOHppIJo87HPla+WOktStElMhqYjKVdw4033hi95CUvCa8rwbD9vvvuC4Gvqc1SeQx4pQ5AGh97dzmCKI0BHIHzlClT6ld3v/e970VveMMbwuu8I4357rvvNtjNAe7jzZs3h0CHPbmsBhHoEOy6gltM3BMEvdwTpD2z55d7YsiQId4TGZcEvRSyKkp6M33zG9/4xvCaFGdWutO4j01tltrGgFeqMlKZ6ZioHpzW/tqvfOUr0fvf//7wmsHDnXfeWYj9b6S6EuySxpxGhWt1PLocjiwhhZVgl9U8UlxZzSviuZ1qXuNVf4JeUtpJi3a/bzatWbMmbFeg3ypCISvaO44SIiMJ9N3XXHNNeF0ptns88sgjoSZIpWf5S3lnwCtVWdqpzNu2bQsrm6x08t/jzF1mefMuCXYtUJVNPAMcqUGgSyEXglwqaxeteqvah+efQkDcQ0yMEPhyD7nqmz1kJrGntShHFt1///3RnDlzwmtWtlnl5riiSjF8X7hwYXgGijAGkCph0SqpikjNe+yxx6KzzjortYEZRxwQ+OGtb31r9O53vzu8zjNWd5ghHzFiREgLU3YQqLC/nJR+ihIxYUHxKdKWLU6kcnGvcAQVbQBtabK6xSow1bq9l7KDrQucLPDwww+HzzTvnx2ZCdyvFOGjDaQ/u+KKK+Kfth8T3qT8U8CKiQOqnktqmiu8UpVUI5WZDpMiFTy2dG7MFOd9/w4DWg7yZzVnwoQJpjJmAPcnkz2s4pC+zB5MApWiFKtRx6B43dq1a0PaM2nO3GNMpNhG1D7aiJUrV4Z09XPPPTf3xcmo40FmFkerUYRvyZIl0dSpU+OfVsbUZql1rvBKVUJwSudDwJvGAIwBAoWpSAnFpz71qejFL35xeJ1XTBqwskulXs4bdiBb26i2y+CLFD4GeAS6TNDwp/tzlTbuKQJc0ptZMUyON+KoFlLlbS9qF58NK70EgEzcsoc/z0fsMEHN73fzzTeHvpx79c1vfnMq9yj3OkX/KPLGarKkY7nCK1UBq1vM4KZVlRk/+clPoiuvvDK8pmjTihUrcp0KxgCWc3b5Hdn/5OC1dvFZsb+S9P3jjz8+rGQQ5HqckDoSEy6sGBJAcU+OHj067BPnnlRtYghKHQpSfc8+++xcf1b8jpzDT9Eu/PSnP41e85rXhNeVIhPqtttui2bMmBEmgSQdzYBXSlmSykzHRhpuGujMWClOVnd/+ctfRq94xSvC6zxi4Lpo0aIwaGUQ5OH6tYl7nbRl0krZR0mga0qpOhvDGiYdCXwPHDgQ9o2T7my6Z216/vnnw+Qme7OZ3MzzRBl996te9arwmswE0rrTyn4xtVlqninNUspY2WVVMs39pl/84hejn/3sZ+H1JZdcEn3605/ObVDBYPWhhx4KqW7z5s1zdaYGUWWZQlRUIOfzIt2cCRnTSFULuAcp4sPqLlVxWfUlI4YJGu5R25TaQoDLRBkrn5w+QF2KvLYjnDBA0UkmCdmDzkQhe5jTYGqz1DxXeKUUsW+RarTMsKY1a0tBFs6cZaWClU72BhNg5BUz1EUpZJI1BAysmrGqy7EarOhSLEiqdRRP497lWDdWe7l3XQWrLWQycaY82yGYQMsrqipPmzYtZDL17NkznE2cVoCapDZTOyHvBS2ltnCFV0oJaVmcicexORTjSMt73vOesJKWvH7LW94SXucRM/zMfHNQPwMB1QbubT4bilGx8sJgiv2RTkgoK7hXCaSYqOEsX1JJQeVw95rXBlKaKVDIcUV8JnmdTON3ZOKFvcucT86K7Ktf/er4p5XhGvLF/U3KtPe2VMcVXiklpHg+/fTT0XnnnZdaOtZ9990X9rCCzp8VirwOAljVZfV6/vz5Ud++feN31ZlYgSA44N4mTZ9VFwZrUtZt3bo1ZJNQSIhJSuotGBzUhl27doW0X87rZpIij0g9JsuA3xX09WeeeWZ4XSmG9RzlxxnHnlsv1bF1l1Kwf//+UKGWc/XSCnYJNq655pr4uyj65Cc/mdtgl8Enwe7cuXMNdmsAA6bNmzeH1DgmWUihP//88w12lRvcy9zT3Nvc49zr3POuAXQ++gCKV9En0DfkUf/+/UOfnqCvp89PA2MQxiKMSRibSHKFV0oFs7Ps2WVGOi3f+c53oj/7sz8Lr6n4TOefx2IrFCm56667QgedVlVrtR8rDqQUsmecAisU/nHlS3lGoMGxWpyNShGhKVOmOPFWA8guWbZsWdjiQvGxvOEUAsYMFFQDff6f/umfhtdpYMxABkNaK8dSlhnwShVKClVRPTmtIih79+4NwQZHa+Cmm24K//28oTNesGBBCKr4fdV5+CzY90VqOftz+bKarYqEAIRVMb5IpaXSfp7POs8CJiGYjGA1Po+fBX37ZZddFl5TqZoCVieddFL4vlK06bfccosFrKQXOG0vVYBiPqyGsbcxzYqfn/vc5+qD3Ve+8pW5DHZZVaFoB2naVKFW52DOk6rLDIwYIF144YVh35fBroqGe557n2cgCRY4+9x1gc5D38BqO31FWim/teTSSy+tP1OfPv/zn/98eJ2GpO4CYxTGKlKRucIrVaAahaqoUszKAkfAEEST7sRqW57Q7HDWLucQkq5mcNU5OKqFlEEqhZLG6SqA1IDsHYIFqt5yjIxpzp2DlXe2vVBRm88hrb62VpBRQGBKO0yQSqYNR2elgb7WAlaSK7xSu1WjUBU+9KEPhWAX73//+3MX7IIVRQaT7C0y2O14rF6xv+uee+4JaXScG22wKx2NZ4Jng2eEqsHJnkh1LPoI+gr6DFbc84Y+nr4e3F+MAdJiASupjiu8Ujtx5i6zsWkWqrr11lujiy++OLxmRpbqob169Qrf5wXnD3Lt5s2bl9uq07WK5p5CMMuXLw9VQqlQ63nHUusIFnhuOE6G54YCe3lbaax1ZKQwSUfwy3nKebJnz56Qvk3GGBgLkFqfFgtYqehc4ZXagZlmBj6kIaWFtK33ve998Xd1+3jzFuwyaGQvFumzBrsd6+DBg2GigbNHZ8yYEQY+BrtSeXhWeGZ4dniGeJZ4ptRx6DPoO+hD8rZa2bt37+izn/1s/F0UxgJp7rtlmxRjFsYuUhEZ8EptVK1CVd/+9rfDfxezZs2qP5IoL9ifxCDxjDPOCFWZ1TFY1d24cWM4Z5S9iEmKpqS2S7YA8CzxTJExYaJcx6HvYHWdvoQ+JU/e8pa3hL4f1Fa4/vrrw+s0WMBKRWdKs9RG1ShUxdmnY8aMCTOwYL8YKb95QTOzaNGi0NGeddZZnuvaQViBSoqDUezFQFdKD1V1eb4oZsXzxVnsqj6qNXP2fZcuXaK5c+fmKrWcvp9CjmDbCdua0iqWRj/MMYD0Ax4DqKJx1Cm1QbUKVf3DP/xDfbB79dVX5yrYBVUnOVt49uzZBrsdgIENK0+u6krVk6z2UlSJPZeu9nYM+hD6EvoUJqDzZP78+dEb3vCG8JoxwSc/+cnwOg2MWZiYIYi2gJWKxhVeqQ3uv//+MKvMPq60sB+MAJrVzxNPPDEctH/aaafFP82+zZs3R0uWLAkr4nnbk1yLkgrMZA24qit1jNLVXgoZkkKq6iLg5cgd+uMhQ4bE72YfEyeswJKhw2QK6c3swU0L/THjDSYNpKJwqUUqE2mhFHxI8yw75ps4jiDZU3PdddflKtg9cOBACL4YkBjsVt/27duj22+/Pczku6ordZxktZdnj2eQZ1HVRZ/C5AJ9DH1NXrBHmbEAKGb5gQ98ILxOC2MYxjKMaaSicIVXKhPHIfTp0yeaNGlS/E7lfvOb30Qvf/nLw2uKOZH6yypvHrDP6q677grXjJVGVQ/NOJkBpNtzfw4fPjxX+9qkrOBZ5KzYFStWhLoMHDXjs1hdrKzv3r077H3Ny5YZAngCU1Z78dvf/jZ66UtfGl6ngfuTa5a37VNSc1zhlcrA2bHMhjKAScvhw4ePmrn90pe+lJtgFwTvrFxzZqWqh7Q3JmM2bdoUnXvuudGIESMcYEudhGePZ5BnkWCFZ/PZZ5+Nf6pqoI+hr6HPyQvGAowJEmSCMWZIC2MZxjSMbaQiMOCVWsGMPfts6SDSPIbo61//eigeAQZHV155ZXidB1SxXrduXdgjxJ5nVcfWrVtD+iTVYS+44IKwmi6p8/Esnn/++eHZpHgcz6qqgz6GvoY+h74nL6666qr6is1r1qyJ/uVf/iW8TgNjmdGjR4exjYmeKgJTmqVWPPnkk9Hy5cujiy++OBSQSAOdMqlue/bsCSsCDzzwQKqFsDoTK44EYcy6sxdJ6SNdnOqka9euDQXPSIeXVHsYYrHSS+GhkSNHhjRVK9VXB9eZvprJvx49esTvZtuDDz4Ygnnuo969e4dJ8oEDB8Y/rQz7g2+55ZZoypQpuSr6JTXFVldqAYEFaVJUTEwr2MXf//3fh2AXf/EXf5GbYJfrRfB+6qmnGuxWCVWYSZOk6AgrSAa7Uu1iQpNnlCr1PLM8uzzDSh99Dn0PfRB9UR7MnDkz+vM///PwmjEDY4e0MKZhbMMqb16ul9QcV3ilFlB8hEJAVN9Ma1a+8YwtqUp00nnA5ADHEBGIpTlBoDoUGVm4cGHUr1+/UJ3UayxlBytqVBTeuXNndOaZZ7oFoQq4xgsWLIiGDh2a6okKnYmMMLZUcQwTEyiMIWj/00CgyxnSpDdT7FDKK1d4pWbQcZI2OnHixNSCXYLca665pn7PzEc/+tHcBLsUv3j88cejOXPmGIhVAan1d955ZxiUzJo1y2ssZQzPLM8uzzDPMpODShfXmAllJqrzUpCJMcLHPvax8LrxGKJSjG0445cq/4x5pLwy4JWawf5I9gGleZbpj370o3BUD5ixfe973xteZx1VSEkjY98uq9ZKDwMbJl5YGWKw7DEnUnbx7PIM8ywvWbIkPNtpBS+qw8o5fRF9Ul7SxxkrJKdE3HHHHdFPfvKT8DoN7N+luBpFv6S8MuCVmkD5f4pDsLqbVnDBuXp/8zd/E38XRf/8z/+catXnzsJgjYHbKaecEg0bNix+V2lgxn3x4sWhGAuVvNOcfJHUeXiWk6OLeMZdXUsXfRF9Eum/eZhQYKzwT//0T/F3UXTttdeGApFpYIzDWIcxT5pHH0m1xIBXagINf9++faMBAwbE71Tuy1/+crRx48bw+sUvfnGqh8h3Jn4nimlMmzbNlccUMUFC2uORI0fCnmhXzqV84Znm2eYZ51nnmVc66Ivok+ibkn436172spdFl112WXjN78SYIi2MdU4++eT6oxKlvLFoldQIs6aU6uf8OzqANDCLTzVE/tucGfjwww+HfTNZxwCNMybZM5WXvci1gKI2FKei8AqpeR5jIuUXhYM4Tod9+hSzoiid0kHBp/vvvz8UnszDUUVUVOYouueffz468cQTw97b0047Lf5pZZ555pmw5YojGPNyrJOUcBQlNcKeqkGDBqUW7OK6666rTz/6q7/6q1wEu8yVsa+U/T8Gu+lhgMbRJezzY2BjsCvlG884zzrPPM8+bYDSQd9E+jh9VR7Wd0g9fs973hNeM+H8t3/7t+F1GhjzcL0IoqW8cSQlldi/f3+0adOmVI8zuPvuu6Pvf//74XX//v2jj3/84+F11m3YsCEck8AKpNKR7OfjyIlRo0bF70oqAp55nv1k377SMWXKlFylNn/iE58IYwl897vfDZMkaWEynnvP9HrljQGvVIKjDJgNPumkk+J3KkOqGkcIJD796U+HvcFZR2e4YsWKMDg74YQT4ndVCe69ZcuWRXPnzk0tRU1StvDs0wbQFtAmqHL0UfRVpI3nIZBjDPGpT30q/i4KYwzGGmlg7MMYyHtPeWPAK8U4WoeZzaT0fxr++7//OxyNAGaZ3/a2t4XXWWYqc7q4nkweUCxk/vz50cCBA+OfSCoi2oB58+aFNoG2wVIrlaOvos/KS2rz29/+9vrsKvYof+c73wmv08AYiNVwxkRSXhjwSjHO3eUYA87wSwMpVH/3d38XfxdFX/nKV8Kh+FlnKnN6mJXn2IzNmzeHI0rS3DcuKbtYxaNNoG3g2Le0VvCKjD6Lvos+LOsYSzCmSDDW4HdLA2MgUqYZE0l5YcArvYBjITh0Pc3V3c985jP1xUde85rXhCqRWZekMs+YMcNU5gpx7iaVmJkYYWCbVhq9pHygTaBt2L17d7Ro0SLP6q0QfRZ9F31YHlKbqab86le/Orx+6qmnos9+9rPhdRoooMaYiLGRlAceSyS9YM2aNdHWrVvDUURpYP/LpEmTwiHu3bp1C0cJjBw5Mv5pNtFU3HvvveEoBPZDqf2SYJdryjEkTh5Iag5BB+0FZ8vSXuQhU6gzsWLOqQlnn3125s+OZxWWQlOMNbp27RrGGmkVPORsaFLBCX6lrHOFV4VH8PH444+nurp77bXXhg4IH/zgBzMf7II0sH379oVAXu3H4PW+++4Lr8866yyDXUktoo2grQBthyu9lclTajNjC8YYYMzB2CMtBLoE1Jz5K2WdAa8Kj+IMHLKeVrGgm266KfrlL38ZXlPtsHQfb1ZRvII0sGnTphmgVSAJdjl305UaSeWiraDNYEWSTBtTTduPPowsJfq0PBRmYowxaNCg8PoXv/hFdMstt4TXlWJMRIZaHiYGJANeFRqFQEg/ZnU3jdQmZt7f9773xd9F0ec///lc7M0kTWrAgAFWZa5AEux26dLFYFdSm9FmsNJLG0JbYtDbfvRl9Gn0bVnXq1evMNZIMAZJIwuAMRFjI8ZIFk1T1hnwqtA2bdoUVts4riAN3/zmN+s7UM5SfNOb3hReZ9mOHTtCpVCrMrcfg4/SYJc/JamtStsQ9vWa3tx+9Gn0bfRxWfenf/qn0Zw5c8Jrzhv+1re+FV5XirERY6Qnn3wyfkfKJgNeFRYFgzjncPTo0ams7tJpfuxjH4u/i6KvfvWroaPIMmZ1ly1bFvbyUKxKbZcEu9wLTIIY7EqqBG0IbQn9lkFv+9Gn0bfRx2V9BZP+hTFH4qMf/Wi0c+fO+Lv247/LGImxkjVulWUGvCosyvgzUDj99NPjdyrziU98Itq1a1d4zWxrUmQky9avXx8KVqRV9bFouHYMSGEas6S0JHt6CUI4ssjCQu1D38a1o6/LOqpOJ1llBLuMSdLAGImCWIyZpKwy4FUhMUjgKCI6uzRW3Egh+rd/+7fwmlnjz33uc+F1llHMY+XKldHUqVNdlWwH7rEHH3wwTKow+WGwKylNSdDLXl7aGlfg2o6+jT6Ovu7QoUPxu9nFXt4kG+sb3/hGKMxVKa4Rq7yMmbzHlFUGvCqk7du3R/v374+GDx8ev9N+dAAUiUhm2D/84Q9HQ4cODa+zLClUlVb16iLhnnj44Yej3bt3G+xKqprkyCLaGtocA5K2o4+jr0sjOOxsjD2SkyEYk7z//e9P5Z4YNmxYGDMxdpKyyIBXhcR+FM6vSyMQ+dWvflV/DAAB9Ac+8IHwOsssVFUZZsK5fvPmzQvHOkhStdDG0NbQ5tC3qe2SAlZp7HvtbJzLS4AKjkn8zW9+E15XgokVxkxUbJayyIBXhcOB8wR0aazukgKVHPqOL3/5y+FM3yyzUFVlOLPw8ccfD/upvH5qjNUWtguwIsfgmrZo27Zt0datW6Onn346TJbwxWve42f8M/yz/Dv8u67iqTHaGtocAl7PTW07rh9H8ND3Zf35YgzCWCTBJHwa6dqMmVjhZQwlZc2LXniw7TlVKHRo7HmaNWtW/E77ffGLX4yuu+668PqCCy6Ibr311lQqPnemtWvXhq8LL7zQvbtttGXLluiBBx4IA8/+/fvH76oImChiUElAmnw1/j55D6yY8HzRXlAJlT/5SgaTnK1J98wX/23+JEUxOXuVVb3u3bsf9dX4Pb7PeqV4tQ0BCVXh6d8GDx4cv6ty8HzddtttYSWTryyjvaAPX7BgQfiescqHPvSh8LoS9G9du3aNpkyZEr8jZYMBrwqFweIf/vCHEJD069cvfrd9qFjIjPC+ffvCoJKiIdOmTYt/mk0MxknPnj17tnt324hVuHvvvdeBZgFQsfSZZ54JX6y68ueBAwfCz5KgszT4bCoQbe9kEoPy1gJrvucLrFydfPLJUZ8+fcKffDFgVX458dZ+ZFZw7S6++OLwnGbZ0qVLo5kzZ4bglwk0Vv9PPfXU+KftQ6YJ/dxll10WJu2krDDgVaGwcvnEE09E5513XsUrsX/+538e/dd//Vd4/c53vjP65je/GV5nGavfBw8eDJU/Vb49e/ZEd911VzRx4sRUUuVVOwgck6A2+eIZSQLJJJhkQMkAuVZWVJMVZ1aMS//+BOb83UsDYF5nfXCvo3HMDoUHzz333HBvqnwcJUdaMNWbs46xybe+9a3w+i/+4i+i66+/PrxuL0IGVo3ZIzxixIj4Xan2GfCqMLjVSTlmVfaMM86I322f+++/P5ozZ054zWCRmVOqPGYZFRi5Pueff37Uu3fv+F21htW+O+64I1THnDBhQvyusog2gskLVnlKg9uePXvWB4bJn1ldJeV+LQ2Aec2zzwA/CYBZBaINyPr2jKLjqJ0nn3wyTPC6ql8+2gCCuosuuig8+1lGDQDGPDznPM+LFy+ueDvXxo0bw5iH62Mboaww4FVhUACGVCVScSrZm8ojc84550T33HNP+P6f//mfw7FEWce1ofMiBUrlYRWN9C6qfc+dO9fOP4P4DNn3yBYFvggImbwiFTQJcPOeusdWjyT4TYpoESANGjQofJ1yyinuBc4g+qpFixaFNHiOLvIzLF9yrnEatT46G2OU5PSI+fPnR3feeWdFfRX3E1vD2PqU9Yl+FYcBrwqDNCVSu0g7rcT3v//96Oqrrw6vx48fH9KAsz4gZqDLKiX7lkh3VHk495JgibRBz9rNDoJaVnEJcJkI47MrDe6KXqyNAW3pJMBzzz0X9vRzfVj9dbUwO5jMIMAhMLHQUPlI/aeeBavjTHxlGe0d6dmrV68O3zOG+ZM/+ZPwur1Il2e7hNuflBUGvCoE0hI5j+6SSy6pKKAj9Y8gd9OmTeH7G264Ibr88svD6yxjlZLJAM/dLR9Hf9DpMyDKetpbEVBcLgngKLxCym4S5DKgdXW+aQwRmBBLrh3pnhT8S67dSSedFP+TqlX0W0xoMtmbnM+q1i1fvjy0G6yOZx1jlZe97GXh9emnnx6tWrWqorEQEwI333xzdOmll2b+KEYVQ5dPvCB+LeUW56KyalNpkYXPfOYz0a9//evw+qUvfWn08Y9/PLzOMlZyOEyelNyir2yVi7RPUsCZ3SblVbWJisXr1q0L1UrZc4YhQ4aEaursa2M1l6rJBrvN49pwjbhWFGSj/gGpsayMM+HD5B8rwkz6mOVQm1iRp50iTZdUfbN4ysNE2IoVK8IET9avGe0d6e309UxacU9wlGJ7kdW2a9euUBiPtkGqda7wKvfYo8fqLoNcViTaixU9VncZRDOwY/Z33Lhx8U+zicefdDfSFLP+u3QUZrYpaMK9YJXK2sM9TTDG80raMgN8gjSefQOydJEuyzWmiA2TQLQjrCCS/uwkQu1h8oe0VrJSDHrLw/XiHmfbStbvaVZ1SWtniwKrsnxfSQFPMj4eeuihsMrr/nDVOu9Q5R6dFR0Vg7FKXHfddSHYxXvf+95cBIic10gAN2rUqPgdtYSBArPkrBIa7NYWnk0Gp0xuLVmyJKTaUkV03rx50WmnnWawWwWs8nBtucZca645157PgM8iaS9VG1ih54xw2jDaMrWOvpE+kuAu65ik/eu//uvwmm1ejGkqwZiKsRVjLKnWucKr3GN/KilJlQSorIIyKw6Kf6xZsybzqaysfN92223RyJEjDd7KREog++GodOmMdm2gujDna3P8Cqu53MsMxPx8OgftCgNgVhNZ9eW4LtoYU/9rA5/P3XffHSYnZsyYEb+rlnAv08ZceOGFmW9XaC9Jb2YrExjbcOpEezGxRWpzHvY5K98cESjXCE5o2CtJ22F/2jXXXBN/F0Wf/vSnczF4e+KJJ0L6p0VMykPaJgN5jmIwmOpcDNo3b94cBmt33XVX2HvOfjRWGlnB8vPpPFx7PgM+Cz4TPhs+Iz4rPjM+O3UePh/aMFYs6QPUOvpI+so8XC/GLoxhEoxtKnkmGVuxhYRVcKmWucKrXKOoClUWKcjUXtdff3309re/PbxmHzDFirJe3IkgngqLkyZNCimJahnHL7Bvd86cORWnxqv96K4oksTeM16zcsiAy2NyahvHojBhxCoZKZCkVtLuuM+38xDw3n///dH5558fKvSrZbQ7FLDipIc89P+ct8+RiviP//iP6M///M/D6/YgRZ6MgUqPfJSqyYBXucWtzeHo06dPb3eQwnEcpP9s27YtfH/77beHAULWMfCkqA8rMA46W8bggCM9KMTDBIE6Hs9yUhWYQklJwORKbrawkpRMWLD/lwGyBa46DwEczxXbdazQ3zLaIPp/VnuZaMs6fhdStMEzSBV7jmprDzKfqIR/2WWX+SyrZjlaUG6RykwnxZ7b9iL1Jwl2r7zyylwEuww6OZpg7Nixdk5loBo3g8EJEybE76gjcWYuew7ZP81q7sUXXxz+NNjNHj6z0s+Qz5TPls9YHY82jbaNNk4to6+kz6TvzENaPpPdr3vd68JrJj1K05zbijEWY61kX7BUi1zhVW5RLZTKrJThbw8KU02ePDmsKHEO5cqVK0OVy6wjtZDfjUGnAW/LKITEsQsMDjzGo2NxViTPHBNOVEodPXp0WBVUftC2EkBwTjqDZlZ8Ta/tWOy9ZLWPTCiqz6t5DJdvueWWEPgyYZN169evD9kynKVL28qKPxlt7fHwww+Hyt8WQlOtcopcuUQaKgVSKtmf+sEPfjAMyHDttdfmItilwyZ1iU7NYLdlFDwjTYuBoMFux+G4DCar2DPNWZHsmWMlymA3f/hM+Wz5jPmsCbz47LkH1DFo22jjuO60eWoefSYTb/SheVgrYkzD2AaMdZLX7cFYizEXYy+pFhnwKpcoyMGqbHurKf/ud7+LfvOb34TXHKvxt3/7t+F11nHuLrOwFqpqGSlrFHQ5/fTTXfXoIBQ2IrWSFRQGTZzrOnXq1PAcK9/4jPms+cz57LkHuBe4J1R9tHG0dbR5eUjXrSauE31oHs7lBWObpI/71a9+FeqetAdjrW7duuXmuih/DHiVSxRGaW8VUGY63//+98ffRdEXvvCFqGfPnvF32ZWs7jJDbYGSlnGdGHhbpKr6uC9Js6dqONWwOROSY1Py8MypbfjM+ey5B7gXuCe4N/KwmlbraOto82j71Dz6TrZYsC0oD/cl1ZUZ4yQY+ySZbW3BWIvJAMZeUi0y4FXusCpA1cD2rmL+27/9W6giirPPPju6+uqrw+uso6AEKWueu9syKnMz6GMvkhMD1UXq6sKFC0P1Za43z1sezrhWZbgHuBe4J7g3uEdMc64u2jquN20f++fVPFKBkzP+84AxzllnnRVe87x985vfDK/bijEXBbDMzFAtMuBV7lBoiAFTe1aI6MA+/vGPx99F0Ve/+tXc7HVlRprjFCjkpaaRzsdeNq5T375943eVNlZGnnjiiei2224L+zhJZR08eHD8U6kO9wT3BvcI9wr3jKu91UObR9tH9WxTm5tHH8p1ystqONXTGeskGAPt2LEj/q58jLn69OkT9vJKtcaAV7lDSg2pNe3xsY99LHrmmWfC6z/7sz+L5syZE15n3a5du8JXHs4PrCYGMAz0xo0bF7+jtD377LPRokWLQkVQVpRmzZoVde3aNf6pdDTuDe4R7hXuGe4d7iFVB20fbaCpzS2jL+U4LfrVPJg7d2705je/Obzmdyqd+G8LVnmZmJJqjQGvcoU0Ixrr9hQaWrZsWfTv//7v4TX7Wj73uc+F13nA4IU0LAOL5pnKXF3Jqu6tt94aVkhc1VVbJKu93DvcQ672VoepzeWhL6VPzdPEAGOeJDOOrV0cNdRWFPlkDMZxV1ItMeBVrrC6O3DgwFAtsC0YOL3vfe+rT+P6yEc+kpvBOIMW9jRTaENNS1KZuUamMqfPVV2lwdXejmFqc3noL+hbKbCWBywUMPYBnztjorZOKjH2Ygxm8SrVGgNe5QYNc1Kdua1+8YtfhD1ioKOnoc+Lxx57LKR4c86lmsYsPR382LFj43eUhtJVXVaOXNVVGpLVXu4p7i3afVd702Vqc+voUxlv0MfmBVWaR4wYEV7zbP3yl78Mr9siSWv2mVQtMeBVbpCSSiXPQYMGxe+UhxWCD37wg/F3UfTlL385N2d/Hjp0KBTxcu9u81gBZ1A3c+ZMU5lTxFmVrBCxEjd9+vRw3IyrukoL9xL3FPcWZ/Zyr3GsjtJBW0ibaGpzy1jlZcKFvjYPGPswBkowNmrr78YYjLEYYzKpVhjwKjfodEjJaWsV4n/+53+O1q1bF16zavCqV70qvM6DDRs2RP369Yt69+4dv6NSzECzd5u9WB6Hkx4GO3fddVfYx3XBBRe0a0+9VA7uLe4x7rU777zT44tSRJtI28heTlfrmkbfSh9LX5sXr371q6MLL7wwvF67dm30la98JbwuF2MwsjBMa1YtMeBVLtAZtyedmfL5n/nMZ8JrSvPTsOflGCLS0davX+/qbgtY/abQmVWZ00Pl0gULFoTjKebNm5ebbAnVLu4x7jXuOe497kGlg7aRPaq0lWoaKcD0tXnZ78wYiLEQYyJ8+tOfjrZs2RJel4ttVG41UC0x4FUucGYcDeuAAQPid8rzd3/3dyHgwbve9a5oypQp4XUePPXUU+HPtqZ4F8WRI0dCKuSkSZPCOZ+q3MaNG6N77rkn7IUm1dQUcXUU7jXuuTFjxoR7kHtRlaNtnDx5cmgraTN1rKSPTfrcPJg6dWr0zne+M7zet29f9OEPfzi8Ltcpp5wSxmROPqlWGPAqF6iUSKfTltVZKnx+5zvfCa+pSvnJT34yvM4L0rSZec7LinXaVq9eHfXq1Ssco6DKsLLBgJgvznMkq8D7Th2Ne449ldyDyf3oClPlaCM5qo82U8diJZTU72RrVF4wJkq2+vy///f/osWLF4fX5eCanHrqqbmaBFC2GfAqF0i3oXEtFwP09773vfF3UfSJT3wi6t+/f/xd9lFkhJnVYcOGxe+oFNeHwQkr+gZmlWHVZ+HChWHS6bzzzgtHUkidiXuQe5F78r777nNlskK0kaz40WZawKpp9LX0uXm6PqzSMjZKXHPNNW2aQGIRwoBXtcKAV5nH/iIKlbRloP29730vDNIxYcKE6N3vfnd4nRfsJ2JW3qq4x6LDplAVq98W86oMzx57JhkQE2CwCiTVAu5F7knuTe7RvJyV2lloK2kzLWDVNM6fpYBanopX4S//8i+j8ePHh9f33ntv9P3vfz+8LgdjMorJkRItdTYDXmUes/js3S23OjON73XXXRd/V1elOU97ODkOhjPwSLHSsSi+wj1goarK8NzdcccdoRrnmWee6T5o1RzuSe5N7lEqOHPPqv0sYNUy+lz2jtMH5wXPUGmV5r/5m7+pr3vSGsZkrBK7yqtaYMCrzKMxbUs68+c///lQnRkvf/nLoxe/+MXhdV4wGDnxxBPDvmQdjYEI+/oowmKA1n5kELCfizRHin6ZFq5axb3JPcr2Be5Z7l21D21mUsAqT0FdWjieqEePHvXji7xgjHTFFVeE14wvvvCFL4TX5TCtWbXCgFeZdvjw4bBvptxKxAx2kkPV6bz/8R//MbzOE35H9hMZhBzr8ccfD5MBFqpqP85lXLFiRXT22WeHoyekLOBe5Z7l3uUeVvvQdtKG0pbqaPS5rPLmcVKFsVIySfylL32p7N+RsRljNMZqUmcy4FWmkaLG3iJmVcvxoQ99KDp06FB4TQEGjrDIk2eeeSaknBmIHIvP/bHHHnNFsgKPPvpotGrVqhA45KnIm4qBe5Z7l3uYtkBtR9s5ceLEcP2SvlQN6HspXLV79+74nXzgqLmk0Oezzz4bUpvLwdiMMZrbCdTZDHiVaaTKlLu6e/vtt0c/+clPwmuKKfz93/99eJ0nFMxgBt503WOtWbMmDHgN1NqOIjUcScIgd968eSF1T8oi7l3uYdoDj9lpH/Zl0o5yDXU0+l764LwVr8JHP/rRUC8FP/7xj0MNh3KY1qxaYMCrzHr++eejrVu3lhXw8s+yopv47Gc/G/Xp0yf+Lh84aom9Q67uHotKkaRgsTKhtiHYXblyZTiSZP78+fXnMkpZxT18zjnnhHuae9uqw23H6Qa0qbStOhp9MHtd6ZPzhDETY6cEYyrGVq1hjMZYLW/XQ9liwKvM2rFjR6gCWE7gev3114ejaDBz5szoLW95S3idJ3QoXbp0cQWzCaQwcmSExxC1HatgVB4l2PX6KS+4l7mnWYlzpbft6HdpU2lbdTT6YPpi+uS8eetb3xrNmDEjvF66dGn0n//5n+F1S7hXGKtt3749fkfqeAa8yqwknbm1/Zjsay1NX/7qV78aOqO82bRpU3Taaae5P7UR9lMx286KhNqGlEVWwUgB7dWrV/yulA/c09zb3OPsT1fbcD4rbSttrBrQB5PWTJ+cN4ydGEMlPvKRj4QxVku4HqY1q7MZ8CqTSEErd//uJz/5yfqZxde//vUhlS1vjhw5Eq4HAa+O9sgjj4TKmVQWVfmowprs2XVlV3nFvc09TsBr5eG26dmzZ2hbSQvX0Uhrpk+mb86bc889N7rqqqvC623btkWf+tSnwuuWJAGv2wfUWQx4lUnMKFPmnuIZLSHd6utf/3p43b179+iLX/xieJ03W7ZsCYMPA5OjkfbOFxUmVT5WvJJqzHnb6y41xj2eVG/O45Ey1UTbStBDO6sG9MX0yfTNecRYijEVvva1r7W6LYCxGmM2swHUWQx4lUnMFFJpubXU5A984AP1B+Rfd9110RlnnBFe5w2pUxarOhYD2FGjRkXdunWL31FrSFFkVZwAoG/fvvG7Ur5xr5911lnhnF6eAZWHtnX06NHu5W0CGVd5TGsGZ/0nRxMxxvrgBz8YXjeHsRpjNsZuUmcw4FUmUQzi1FNPjb9r2g033BDdeOON4TUdT7nnxmUNZ+KRss2eITXYtWtX+Bo5cmT8jlrDXqwlS5ZEs2bN8ughFQ7Fhrj3eQZa25eoBrSxSXurBow76Jvpo/OIMVWyjeq3v/1t/XirOYzZ8ljIS9lgwKvMYTaRjjU5D64ppM6wupv40pe+lNs9nKxGMFDjgHc1oOAS+8u6du0av6OWMChbuHBhNG7cuLL2xkt5xL1Pmu6iRYtyG6ikjTaWttbCX0ejT6ZvzmvGACnbpdvE3v/+97e4Z5m0ZsZuSdad1JEMeJU5O3fuDHtHWgpg//Vf/7V+TwlHT1CsKq+eeOIJi1U1wj4hZpJJZ1brOEtx8eLFYUBCeqJUZGPGjAkZDjwT5Zwzqii0tU8//XS0d+/e+B2Bvpk+Oq/+5E/+JBR9A2Muxl7NYczG2I0xnNTRDHiVOaQItVSsikDnH/7hH8JryuFTQj+vR/UwuOCL8xDVgOrC7Gl21bt1VM3kjOo//vGP0fTp0z3WSoXHM8BZowS7PBtWlm0dbS1trqu8R6NvTvrpPErGWIlPfOIToYhZU/hnGbt5Hq86gwGvMqe1gPejH/1otHv37vD6rW99a9iTlVcUxCAF74QTTojf0YEDB0IKmSuV5Vm7dm1YmZk7d24uz6eW2oNn4cwzzwzPBs+IWkebS9tLG6w69M3sXc1r8SrMnj07jLXA2OtjH/tYeN0Uxm5W9FZnMOBVprD3g2IizQW8S5cujb797W+H17169Yo+85nPhNd5xKoDgwuLVR2N1d3BgwdHJ510UvyOmkM2BGdoEuy6Gi4djWeCZ4NnxGI7raPNZQKWNlgNSGumr85zpsBnP/vZ+j73W9/6VvTQQw+F140xdnMfrzqDAa8yhb0fDEKa2r9LZ/K+972vvlNhpTfPxXf27dsXHTx4MJT6Vx2KzGzcuDHswVPLuH/uv//+aOrUqVZklprBs8EzwrPCM6OW0fbSBh86dCh+R/TR9NV5vn8YazHmAttjSsdipdzHq85iwKtMIZ2ZqodN+elPfxotWLAgvKaAxnvf+97wOq84z45K1ccff3z8jkg95P7o06dP/I6aQiVNKjJzlmJez6aW0sIzwhfPTEtVaBVFJ598cmiDTQNvQB9NX533M2ivueaa+kKRt99+e/Szn/0svG7MfbzqDAa8ypTm9u8ye3rttdfG30XRP/3TP4UD8fOMzjPPK9htRYGZDRs2uHe3Fcy6s1rFTPvEiRPjdyW1ZNKkSeGZeeCBB3KdmpoG2uD169db4boEfXXeA17GXP/4j/8YfxeFMVlTR3u5j1edwYBXmdHS/l0aWYIdXHrppdHLX/7y8DqvSBdjH4wBbwOKgtDhNnV/qAFVVPfv3x8KjViRWSoPzwrPDGmpViJuGW0wZ/Pm9fzZ9qBwFX123lO9X/GKV0SXXHJJeM2kB4sPjXF/uI9XHc2AV5nR3P5dOtXPfe5z4TWVNf/5n/859wN5KoeStsteGNWtWq5bty4aMWKEQVwLOJ94zZo1oXK5lb2ltuGZ4dnhGeJZUtNog0eOHBnSml0Nr8PYhT6bvjvP+OwZgyUV/ylm1Xjiw3286gwGvMqM5vbv/u3f/m39MQh/+Zd/GVLP8s505qMxW8yqJedAqmkUEnnwwQfDQLRv377xu5LagmeHiTWeJZ4pNY22mDaZtll1ipDWjMmTJ0fvfve7w2vugb/7u78Lr0uxyus+XnUkA15lRlP7d++9997of//3f8Nrqmly6HnesS+KIzIMeBuwuktRGQt4NY80TAbo48aNi9+R1B7jx48Pz5Kpzc2jLaZNpm1WHfps+u4i7G1mLJZMrP7P//xPdN9994XXCQNedTQDXmVCU/t3GXBQFTDxyU9+shDHq9BJsD+qd+/e8TvFxp6ozZs3R8OHD4/fUWO7d+8Og/MZM2bUp5pJah+eIZ4lnilTm5tHFXja5sOHD8fvFBt9Nn13EQo2kY3HmCzBMUWlGRGM5RjTuY9XHcWAV5nQ1P5dZg0XL14cXpPG/M53vjO8zrskndm9qnWeeOKJMJPcq1ev+B2VYpCxZMkSU5mlFPEs8UyZ2tw8AjyuE+fyqm5/K8WrtmzZEr+Tb+9617vqt5hxpNd3v/vd8Bru41VHM+BVJjTev7t3796wdzfx1a9+tRDprBQAcf9uA64HlSBd3W2eqcxSdfBM8WyZ2tw82mbaaItX1Rk8eHAoXFWE68GY7Ctf+Ur8XRRdd911ocp5wrRmdSQDXmUCqS+lq1NUZU6KP7zqVa+KLr744vA670hNJQWoqeJdRURq2JEjR8IgQsdKUplnzpxpKrOUstLUZp41HYu2mTbac1fr0HeT4l2UVHiOKHrlK18ZXrOynZyoAcZ0jO2kjmDAqyYx+3jguT9Gzxx6PvzZmbOR/L8pa09aJh0nRx0kh5uzH+bLX/5yeF0EzAwPGDDA4CVGOvNpp53m9WhCkso8atSo6OSTT47flZSmJLWZZ83U5mPRNg8dOjS01aq7HgMHDixEteYEY7TkGDzGbhQyYyzHdgDGdp292l1L411VT5dPFKGsrcr27AsP+5Ltz0a/3rA3WrDlQHT/tmejhVsPRit2HopoAvp36xIdf1zH7h09ePBg9KY3vSn6l3/5l1Dh8Oc//3m0YsWK8LNrr702uuqqq8LrIli9enVIZy5d7S4qKl0yyGSPEPu7dbTkrFDODT3uOOc2pWqhWCJpuwziG58koLrzi1euXBkm32yLorDCy+Q1VayLgOeDVOa777479NubNm2Kbr/99pDi/Mgjj0RvfetbO+Vc+Foc76p6bHlUb+2ew9G/rtgZ3fLk/uiZw0fPVPM97/Nz/rmORCpUEuAuWLAgBLwg8PvIRz4SXhcBHQUFHhxQ1WHA0K1bN1cvm0Cgayqz1DF4xnjWeOas2nwsJmhpq2mzVbd3lfOJi3A8UYKxGgW78NOf/jS64447wmsC3s4oXFWr411VjwGvAh7qHz++JzrSSkYWP+ef68hGgJSXBDODide+9rXRN77xjXCweRGw14VZ0JNOOil+p9hIkTv99NOtVt0EJogoFuNkgNQxeNZ45pLJWTWgjWbriWnNdejDKehUlP2rjNH+7d/+LXrd614Xv9Mwlku2rHWkWh7vqnpMaVZI6/jOmmei59uwbWHN7kPRzFO6d0i6x6JFi6If/ehH4XVynh/HHdx1113RzTffHNJZzzvvvPB+njFYoJNkP1TRcR889NBD0bRp08I+bjWg6uVjjz0WzZ0719XdGsN9S2ofq4BkrrDixWCPY1v44hlnXxtbF1j1YFDIXj/+WYoiMXDk3GkK15Ea6udbWwh6CXhJ4Sw9Qk9ROIKGazNixIjC37dMACQrvEXI2PriF78YVng5RpKxG21YMpbDS1/60mjChAnxd9VV6+NdVY8rvIoe3nmo1Zmuxvjnl7/w71Ubs39NFXcoTRubOnVq/CrfGh/NVGSbN28Og0tXu4/G88KgcsyYMU4EdLJnn302tF0Er5xB+fvf/z668cYbw0Tdww8/HIJbjlcjcCXlk2q2TGYREPDFa97jZ/wz/LP8O/y7/Df4b/Hf5L/N/4P/F/9PdR6eudGjR4c0TQvfHI22uk+fPqHtVrGO5CkdozWV8k/15o56Xmp5vKvqetELN5mtcoHx8f/7I7uO2cNQjpO7Hhe9c2LfqqaUHjhwIJyx++EPfzh+pwEpUt/61reiyy+/PH4nv5gJvuGGG6ILLrgg6tWrV/xucd15550hIKA6qhowmFy2bFk4CqII51LXElZdKapH4Llt27YQfCaDfCZn+OJ1WsVZKJDEqi9pkckXK8CspFHJnRoHVIP1PuhY3AdkHjHIHzJkSPyuwAkLtFHnnHNO/E5xMYFFTRLGL0VY8WaC7u1vf3uT6cuf/exno2uuuabqWRG1Pt5VdbnCW3AHn/+/dj384N97ti15Ie3AII7Un8ZoOJcvX16IYBdcB/fv1mEShHvC1O6jcSQKlVDHjRtnkNNBqCDPERv33ntvGNBx/SnOQwEj0vQ4H3z27Nlh1Y8VnTQrkfLf4r/Jf5v/B5Mc/D/5f/N34O/C34m/G39H/q6qPp49nkGuv8cUHY02m1R92vCiK9o+XsZqZB+97W1vi99pkEzYVVutj3dVXQa8BXe4wgf4UAcEvD179oy/q9sjddNNN4WVXVZLioLUJwa3zi7WFbtg5YpBvRqQ7soM9rBhw+J3VA1kW3CtSSumLWLFghXVCy+8MAS4HJPF92kGt+Xi/8n/m78Dfxf+TnzP35G/K39n/u5Fqg7bGXgGeRa51mpAm53cj0VHX16ktGYwZvv2t78d/eEPfzhq/EYdFrJVqq3Wx7uqLotWFRxzXZw71l7zB50YnVDFjfwU3znrrLPCjDDpq7fddls0ceLE+KfFkZy/S8BfdMwSk87utWhAAENxNwKdIk0EdSTaIM42fuCBB8LgjHuQ1VTaJYoU1eKeaf5O/N0475MKwqw4klZKe0LRGFaZOiMwzzuCGa49q7zsx/bs2Qbcg0xaOjH3QgB16FChzuNNcB7zu9/97nCM19lnnx295z3vCSv/nLpQTbU+3lV12QoXXI8uLwp7E9qDf6/7C/9+tTBDzgovA7brr78++slPflLIwTzBDJ2BBavqCgFxTyTn+akOQQyrJ+4ZTB/BLZMJt9xyS9gjS/Xriy66KKQSZynLgL8rf2f+7vwO/C78TvxuHbG6UjSk73LNSSdXA9pu2nCCvaJjhZe+vYgZF4zlGNP9x3/8RxjjcU8w5qumWh7vqvoMeAuOmehZA3rE37XN7Bf+vWqm2BLcUJil6CtW7FdlFcb9u1GYDWdll8I8qsMzwkw5mQ+mvKeHgJDVXAqkUUyFFGECxaxvLeDvzu/A78LvRDohvyO/K7+z0sF15pkkK4BnVHVou+nTmzp9oWiSDAuCvSLjqCIyTqpdZZ5nslbHu6o+A15FU/p1i05ow53AI88/P/mFf6+a6ASoSFz0M/s4g9P9u3UYJJHarQYEuwwg2desyjHootL1rbfeGlJRWRGdPHlyLs9V5XeaMmVK+B1pX/id+d2rPfAsCvar8mzyjKoBbbgBb8PkU5H28TaF4l2M9Toi8K/V8a6qz4BXUffjj4tePaJ3eLDL9ZoX/nn+vWqi8Sv66i5Y4eUszqIj7YvjXgx4G1B5l3TmIu5rTxt7C9nbypEyXNfzzz8/mjFjRi4D3cb4HdmPzO/M78414FpYZbgyBDQ8mzyjVsluQBtOW27xtCj07UVf4QWZWx1xHWp1vKvq8xNUMLJ31+jKUb1bnfni51e98M+NeOGfrzYOKDfgrQv8LdAUhQESe+I8h7gBA2lWkZwQqQzPGGdickbovHnzojPPPDOk2RUNvzO/O9eAa8E1cX9vZXg2eUZ5VlWH+4yiXkVf2URHBXq1jrEeY76OUIvjXVWfAa/q0Qi8Z1K/6JKhPY/Z2M/3vP+eyf067OHft29f4fetklpIcQ8D/7p0ZgqemNpd57nnnos2bNgQKl6qfVjBXLVqVTiuZ/DgwWGFkwIqRcc14FpwTdjfyzVytbf9eEZ5VnlmVbfybVpzHfp2+vmibyNgrNeRNQRqbbyr6jPg1VFI25g9sEf0zol9o2um9IveFf/J97zfvUvH3DJU66PxK3rAy8wv14A9LkXG/UDBKtOZG3C0BwWHrN7dPqxcsoK5ZcuW6JxzzonGjx/v8TEluBZcE64N18jV3vbjGeVZ5ZlVnSTgrXZl3lpH304fX/RV3p49e4YxX0feD7Uy3lXH8NNUk5iB7fFCY3Byty7hz45eVePMS3CkA4VUisp05joMtFkdocCH6iYASJHkDFhXvNuO1TZWLhl0s5LpM9Y8rg3XiGvFNePaqW14RnlWeWaLHuAlaMtp051EqXvGinwdbrvttmj9+vXh2UjGfh2ps8e76hgGvKpJpDNTnXjq1Knh6IwPfOAD8U+KhU7QwXjd/l0GSK7A1eF6kOp+2mmnxe+oHKTlUoX4kUceCXtVJ0yY4D1VBq4R14prxrV7+OGHTXFuI55VnlmeXdXdU1YorkNac1FXeBnbUSWesR5jPo9GU7XY06smEfDedNNN9bPhX/va16KlS5eG10VCJ+j+3YajmVSHlaLhw4cX/siutuCcx3vvvTcMsM8777xQSEhtwzXj2hG03XfffeGaqjw8qzyzFq9qQKq3AW9xC1cxpmNsB8Z6VIdn7CdVgwGvahKzfKVnF3J8wetf//pCNYZJIYuiB7ysJBHwule1DilfW7duDYNnlYfqn3fccUfYL3fuueeG/WJqH64d15AAjmvaUZVV84Bnlme3M9I2axGTmLTtRc8WKGLhqr1794YxXenRVIz5DHhVLQa8qkkUs2i8ortmzZro3e9+d2H2QDHjSzGLE044IX6nmEjrZk+NK911Nm7cGKpVUwRHrdu5c2fYezp06NBo7ty5hX+e0sA15FpyTbm2XGO1jmd24MCB4RlWXaCHou/j5XliIqko14Ex3F/+5V+GMV2pJUuWhOKUUjUY8KomsXLQ1BEO//u//xv993//d/xdvrl/tw4pb6zuWkiibqBA0aBhw4bF76gl3DukMU+cODHsQfUeSg/XkmvKtU1SxdU6nl0C3qJM3LaEeyhZ5S26IqU1M4ZjLNcYYz7GflI1GPCq5pDics8998TfHeuv/uqvooMHD8bf5Zf7d+u4f7dBMvvNKpFaluwznTx5cjRixIj4XaWNa8s15lpbkKl1ZGcQ7JLaLPfxJooS8DJ2YwzXnLvvvvuoNGcpLQa8qjns3yW1Bd27dw9/Yvbs2eFP9vuw/yPv6PyKvsKb7N814K3D6u4ZZ5xhZeFWcM8sXLgwVP50Nbz6uMZca665q3Ut49nlGeYYFrmPN1GUgJexWxLQzpo1K/yJbt26hT/ZymalZlWDoybVHIoW9OrVK7x++ctfHv4Eg6of/vCH0YIFC3K/wkX1UwtWNezf7d27d/xOcXE/sMJrANcyBo3Jyi6BhToG1zpZ6S3CwL0SPMM8y0UqUtQc+jja+KLv46WP437Ie+Vzxm6kLTOWKy28+IpXvCL8Sd0SC1epGgx4VXNo7L7xjW9EP/rRj6Lrr7++fuZv+fLl0VVXXRXNmTMnfJ9nXAN+76IX2HH/bgMKufXt2zc68cQT43fUGOlyrDKOHTvWKtadgGvOteczMJhrHs8wzzLPdNHRtpvWHEVdu3YNX0VY3WQMx1iO87xBJt9//Md/hCCYsZ8rvKoGA17VHBq7UaNGRVdeeWWY9aQoCihZX4S9u+AaeHRKFO3atSvq169f/F2xMTgeNGhQ/J0aI01u0aJF4azY0aNHx++qo3Ht+Qz4LNyL1zyeZQPeOrTxtPVFV6TVTcZyjz32WHjNGI+sPoJgxn6u8KoaDHhVc2jsaPgTU6ZMCX+yx2flypXhdd41vgZF5T7mOlSvpCCQAW/TKALE3i9Wi6ZNm2ZGQCdKPgPwmViNuGk8yzzTTZ1GUDSkNRc9pRlFCngfeeSR+n3byRgPpjSrWgx4VXNo7EpXN0sbwyQFJu8MeOv2MTMLbKXquorDnOGZ7G3X0R5//PGQEsnZsF26dInfVWfhM+Cz4DPhs9GxaN95pq1sXVew6cCBA7nfv9oaxj1FSectHcuVjvGKdA3UsQx4VVNIgaPTK92nWMSA15TmutVd7gP2NRWd6czN43iXVatWhQCrtKq7OhefBZ8Jn41H8ByLlXDTmuvQxtPWF73YWZFWN5sLeLkPDh065HYIpc6AVzWFhg5JoSpw3EWiCAEvKYCu8JrOnOB+oKKrAe+xjhw5Eo4wY8BEESDVFj4TKjfzGfFZ6Wg80zzbpn3XrfIWPa05CXiLcD+UjuVKx3jJ2C8ZC0ppMeBVTaGyJw1e6R48BgVUccSyZcvCn3nGNWB2s+grvAx+DHjrCnex18niXcdi0ERhO48fql0cwcNnRJV9HY1nmmfbgk11+3iLvsJLn0/fX4QK50nAyznMp556angNxn6MAa3yrrQZ8Kqm0Mg1TkukAUxSXkj/yvvxBczwktZT9L2IDH7cv1t3zzMgOO44m+tSXJctW7ZE06dPP2qCTLWFz4bPaPPmzWE1Uw14pnm2TWuuW+EtesBLn8++7rzvYWXfenLPM7Zr3H4zBjTgVdocQammNBXwokj7eN2/W1ewiiImrvC6f7cp3B8PPfRQSJdlgKjaxmfEZ0XV5qIXJmosSWsuOtp6C1cVYx9v6RiudGyXMOBVNRjwqqYY8Nat8Lp/14JVYPKD+2HgwIHxOwLpsaz+m8qcHXxWpjYfi2d77969ha9MS1vPxIj7eA14GQO6h1dpM+BVTaGRM+A14N2zZ08YHBcdq7vscTrhhBPid7Rz586QHut5u9lSmtrsntUGPNvUqDCt2fN4UYRjeVzhVWcw4FVNaW6Fd9KkSfGr/Ae8pjTXXQPPnDWduTGql65cuTIaNWqUqcwZxGc2cuTI6JFHHrEycQmecQPeutXNoq90F22Ft3Rsl7BolarBgFc1hUau9EiiBMEPAyWQEkdly7w6ePBg4QfzdPhFD/qT6q2s8KoO57myAjR69Oj4HWXNmDFjwmdI4RrVGTBgQH019iIrQrDXGvp+xgB5xT2+YsWK8JqJy6ay2VzhVTUY8KqmNLfCiyT1hRngdevWhdd5w1mVHEvQ3DUoCtO6664BXOmuw4ogK4Njx441xTvD+Oz4DF3lbZA840UP9gx464I9xgB5PbeasVuyit9UOjO4Bu7hVdoMeFUzmPmjQmNrAS/ymtZMwM9RFUUe0D/33HPhOhQ94E2OZXKfap0nn3wyDAJHjBgRv6Os4jNkQMtnqrr9zZ5DWxfw0vbTBxQVfT9jgLwGfMuWLYtftR7wFj3jQeky4FXNSBr4plKaUYSAl2tAY1/kIIfZXzr9oldoZvDrsUx1WAlctWpVNG7cuMKfT50HfIbjx48Pn6mrvHUs2FRXqfn4448v9D5e+n7GAHlN6W2tYBWSMWBeg351DgNe1QwaeBo6ZjebUpQV3uZWuIuClDb27xZ9ZZPBL4NgRdGWLVvCbP/pp58ev6Os47MkdZPPVnXn0BZ9hZc237TmfBdtKifgZQzI5Eder4E6hwGvakZrwR7FTpKZvzwHvM2tcBcFg52ipzOz6kXA6wpvnbVr14Y02OYmw5Q9fJYUIuSzVV3AyzNf9BVvA95872FNxm6Mc1oqPpjnVW51DkcPqhmtBXukOk2YMCG8fvTRR3PZGLYW9BeBAW8U7d27N/xZ9OsAggBWvoYNGxa/o7zgM+WzLXoqL5JnPXn2i4rrUPSjifIa7FF9mrEbJk6cGMZ0zclz0K/OYcCrmpHsX23J1KlTw5+kwnEeZ96Ucw3yjsFO0Y8kIgjo3bu3K5ov2LBhQzR06NDC7+nOIz7TIUOGhM+46HjWeeaLHvzT9rvCm8+AlzFbUoiquXTmRJ7TutU5HE2pZlCZsaUZP5Q2kqXV/vLCFd66a1D0c4hNZ65Dm/DEE0+4uptjw4cPjzZt2hQmMYvOfbx159AWPdDJa7BXuhUtWbxoDoUri1ytW+kz4FXNaGvAm8d9vEUPeNm/ZtBvhebEU089FQbAffv2jd9R3vDZ8rxbvKquUnPRA94k2CvyXua8rvCWcyRRgrGgAa/SZMCrmmHAa8DLOcwMdFray513FqxqQBBEymvRK3bnGZ8tn7EBr4WrQP/H709fUFR5DXhLx2wGvOpoBryqGeUEvIMHD4769esXXuct4OX356vIwR6dPPdAa/dBnlmwqg57vbZu3RoNGjQofkd5xWfMZ53s7yuqXr16hWCvyHtYk/a/yAWLCHgZC+QtzT8Zs/Xv37/Vdp17wIBXaTLgVc0oJ+BlNSCZGWRFYMeOHeF1HiQz2kUuzlP0FW4Q8DLwLXrBqu3bt4f2wLOI84/PmM+az7zIksJVe/bsid8ppryucJYrGQPkKejn2WaLChjDtZa1Q3vgvn6lyYBXNaOcgBd5TWtOfv8ip28a8NZdg6IX7QKDI1YBTGfOPz5jPutkQFxkRQ/2UPRrwPPAWCBPK5xtSWdGly5doiNHjsTfSZUz4FXNMOAt7/fPM49lqgt4i5zWDtI6k4BXxZAEvEXevwoDXq8Bih7w5u33V+cz4FXNoHFjVq81peXs83Q0kQGvK7zwGtSldZPif8opp8TvKO/4rPnMkz3sRWWw5xmsyFvAVzpWa+1IIvD7m9KsNBnwqmaUG/BNmjQpfuUKb94wyCn66qYBbxTt2rUrVKwtZwJM+cBnzWfOZ19kBrxeA+Qt4C0dq5WO4ZqTt99fnc+AVzWBNDZm8zhsvDUU9BkxYkR4vXz58txU9jTgrSvcVeSiXTDg9RzioqJ4FcfyFBnPfpErFIM+oMjHEiFPAR9jtBUrVoTXI0eOLOsEguT3L/oWB6XHgFc1IUldKXdFJ9kDsn///mj9+vXhddYZ8HoN4D7mKAQ9VmcuHiY5mOwoMtN5Xd1Dnq7BunXrwlgN5ezfRTIOMK1ZaTHgVU1IGvZyg508Fq4y2PMa0LlTmbLIAS+rAQS8rvAWD585R/IU+Txenn3agCIP9PMU7LVXnq5BWwtWIRkHFP0+UHoMeFUTaNQ4g7Dcs0cNePOp6NeAlR2OpChyWjdFi7gG5aS9KV+Sz3zfvn3hzyJihZf7v8irvPQBRV/ZI9stL9egPQFvMh404FVaDHhVE9oa6Bjw5pMBb13RLga8RZWs7hb5GhQVnzmp7EVOa+Ya0AYUeR8vfUDRA508XYP2BLzwPlCaDHhVE9oa6IwdO7Z+FSwvRxMxm1vkqrRJ4bIiB7zu363bl9+zZ8/4OxUNq7wHDhyIvysm2oCir/AyJihywaI8BXvJGI2JnDFjxoTX5cjTKrc6nwGvakJbgz06g4kTJ4bXjz76aC4GB20N+vMm6diKfA24j4se8Br0F1vRgz0Y8Nb1AUUOdvIS8B48eDCM0cCYrS39e16ugWqDAa9qAjO5bU1hTFJj6BRXrlwZXmdZ0QPepGMr8jUw4PUaFJ1Vir0GSR9Q5GAnL8EeY7OkCF1b0pnBmNBjiZQWA17VhEoCXuRhHy+dQrlFu/KIzr0thcvyiOqsRQ74wUCfAb+KyRXeKJxHX+Rgjz6A8UDRr0EeqpW3d/8u2jomlFpiwKvMylvA256gP08Y3BR5DzO4B4oc8MMV3mIz4HVlC0z8FTmlOS/3QCUBL4r+HCg9BryqCe0J9gx484Xfv+jBXtHvAVY03MNbbHz23ANFHujmZXWvEkUP+vPSD1S6wlvke0DpMuBVzWhrAz9kyJCob9++4XVeKjUXOdixY6sL+Ip8DyQpjEU+h7joks+e9P6icqDvNUAefv8k4O3Xr180ePDg8FrqDAa8qgntadjpEKdOnRpeb9myJdqxY0d4nVUGfMUO+ME9UORV7uQZKPpKf5ElbUCR20ODPa9BHn7/7du3h7EZWN1ta//uc6A0OapQTaBRa2tjiDylNbf3GuRF0X9/FP0aJGmcRb8PiiyZ7CjyQNeUZtEGZv0ZKB2TJYsTbZGHa6DaYcCrTMvbPl4Vm0G/VKfoA92i//4GO9lXyf5dKW0GvMo0A978cIDjNTDYV3L/F/le4BoUPa2fa1D0eyDrv38aAa99gtJiwKuaQKPWnoH+5MmT41fZD3jbew2UH0VPZUwGN6ZzFlfSBhZ5oFv0YA/2hdlXOiabNGlS/Kp83gNKkwGvakJ7O/devXpFw4cPD6+XL1+e6YFy0QPeov/+KPo1SFa1DHiLK/nsi7zCSRtQ9IAXRb4GWb8HeI4Zk2HEiBFhrNZWPgdKkwGvakZ7B/pJqsy+ffui9evXh9dSFhU94D3++ONDoMM5rComPnvuAe6FoiJYKHLAj6IHO1n//RmL7d+/P7x2/65qgQGvakIlA/3S6n9ZTmsuerDDAO/555+PvysmrkGRVzd5Brp16xY9++yz8TsqGj777t27G+wU+PcH7WDRr0GWf/9ly5bFr9of8PocKE0GvKoJlTRqeSlcxTUocsDLig4Bb5GvQdHvARDsuMJbXAS8THoUWdEH+vz+zz33XKFX+bPeD5SOxdpzJBGK/hwoXQa8qhntbeDzEvB26dKl0CucDG64B4q8wtm1a9fo8OHD8XfFRMDrCm9xJSu8RcaED21BUSX9YJEDXq4BY4KsKh2LVZLSbMCrtBjwqiZUkso5ZsyY+sFBlgNeOndmtYsqGdwU+RoY7HkNio5gr+gBb9GDfgPeun4wy79/MhYjW4MxWnuY1q40GfCqJlSyunnCCSdEEyZMCK/XrFmT2XTIoge8THrQuRnwFjvYcw9vsRU92EPRg376APqCIhfuynLAyzP86KOPhteMzdr7e2Q96FdtMeBVTag02EtSZgiaV65cGV5nDdegvUF/HjDAqfQ+yDqDvbqjxvbu3Rt/p6LZs2dPdNJJJ8XfFVPRg/4k0Cny6l6Wgz3GYMlYppJ0ZgNepcmAVzUhCXTS2MdbWh0wS1jlLnKwh6JfAwa57OEt8j7mk08+OQQ9RZ78KSo+cyY7uAeKimefNqDIhbsMdLJ9DdLYv8tYkPYgy/uYVVsMeFUTaNgrKVhU2qhmdR9vEvQXGdegyIFOMsgtcpXiHj16hPuAoFfFsnv37rBFhXugqJIMDwNeA96sXoM0jiRiLMiYsOj3gdJjwKuakDRq7Q348nAWL9fAgLfY14A9a0VPayaNkRW+Z555Jn5HRUHA26dPn0KnsvLs0wYUff9q0Vf2sry6WToGa++RRMk4wIBXaTHgVU2otGDRkCFDor59+4bXBrzZxTU4cuRI/F0xWbiqLq3ZgLd4+MyLnM6Mou/fBf1g0QOdLF+DZAzWr1+/aPDgweF1W/H7MyYs8sSP0uWdpJpAw0bj3t50Vv79JHVm8+bN0c6dO8PrLDHgrUvjK3I6L4q+wgtW+VjtU7EY8FqhGV6D7Aa8O3bsiLZs2RJeMyZrb7ZG8vu399+XGjPgVc2otGBR1vfxGvC6ugmvQd3KAHt4iz75USR81hSsSjJ1iopnv8j7d+E1yG7AWzr2au/+XWT191ftMuBVzag04DPgzT6CvaIHOQa8dYWrevfuHT399NPxO8o7PmtW9otcsAo8+0Vf3fQaGPAa8CptBryqGWkGvFk8mqjoR/LAYM+gP8Her6eeeir+TnnHZz1o0KD4u+Iy2DOlGVkN+NKo0AyPJFLaDHhVMyoNeCdPnhy/yuYKL8dx0MgX+QxW96/WrW7u378//q64CH62bt1a6GOqioLPmM/agDeKDhw44Cp3wYN+xgA8E1lf4S0dk7UVxStd4VWaDHhVMyoNeEmBHD58eHi9fPnyzAWOyZ6lIq/uJSu8nL9XVKR17tu3r/Cr/TzPXbt2DUVQlG/bt28PnzWfeZHxzPPs0wYUFW0/fUCR9/AmY4CsXQPGXIy9wFisV69e4XV7ZDXgV+0y4FXNqDTgRZJCw6Bhw4YN4XVWUH6fQV+RVzgJeOk0ixzscQ0Y6BS9SjHVOU899dT6ip/KrySduegVWXnmefaLvLrJyh59QJGvQRLwZ+1InvXr19dnJ7X3/N0EYwADXqXJgFc1I82AF1lMa6aTL/IKL/cA+3aKHPQz6GeFx3No687X5pixrGVrqHx8tnzG7T2vM0+SY5mKHPjT9tMHsMWnqLK6wp1WwSoY8CptBryqGQa8DSm9RcVAr+jXAAx6PYc2ik455ZTQLli8Kr9YwSe44bMuOp75Iqczg7a/yKu7yOo1MOBVLTPgVc1g0EM6UyUMeLOPgi0UbikyAl5XeOsmQIYNGxZS5ZRPbD0544wzCp/OjGSFt8gOHjxY+KJdWa1SnWbAy1iwyKv8Sp8Br2oGKTyVBntjx46tbySzeDRRGtcg60466aSwB7vIGPTu3bu34oyHPCAYonAV10P5wmfKZ8tnXHQ861yPoge8tP30AUWW1RXeZMxFLZIxY8aE1+2V1Wug2mXAq5qRxuomwe6ECRPC6zVr1mRuPyzXoMh7eNGzZ8/CH8vDfcCgYc+ePfE7xcW1YC/v2rVr43eUF3ymfLYObKPwrBe9YBUMeLO5h5e/86OPPhpeMwardHXWgFdpM+BVzaBxqzTgRVIdkLL2K1euDK+zgmtASleRucJbl8prWnODkSNHRk888UR0+PDh+B1lHZ8ln+moUaPid4qNZ539u0VP7Wayk0nPIstisMdYKzkzvdJ0ZmQx6FdtM+BVzaCBJ60raTTbK8v7eLkGRV/hJeBl0FPks3hhwNugb9++4euxxx6L31HWsRrEZ1r0FN6E+3frzuCl7XeFN3sBb+lYK40jifjK2jVQbTPgVc0ghZPZ7UpXefMQ8BY52DvxxBPD71/0lW5We6zU3GDixIkhBbbo90Ue8BmuW7cufKaqk6zwFhnFCmn76QOKit8/i0Wr0ixYxe/PWJAxoZQWA17VDBq4NIo2ZTng5fdPOryi4rB9BjwWrqorXFVpxkNesBo4cODAsDdf2bZ69ero1FNPDZ+pLFiVYHWXtp8+oKiSvj9r6bxpBrzJCnfR0/uVLgNe1RQauUoD3qFDh9YPHLIW8CYH7ld6DbLOfbx1xzNxL7jK24BiKBs3biz8vZFlBHbs3U2KC6ru/F1Ws4p+HI8Fq+qCPe4FxgJZkoy1mMSiEF0luAbu31XaDHhVU9IIeJkVTGYYn3zyyWjnzp3hdVYww130c2gNeOvu4wEDBkRPP/10/I569eoVnX766ZkrRqcGq1atCp9h0QObUlu3bg3PetFXtAx469K6szbxwdFimzdvDq8Ze1V6HzMGzFpKt2qfAa9qCo1cGum8WU5rpsMv+rE8Brx1Bg0aFD311FPxd8K4cePCJACDLGULnxmfHZ+hGvCM86wXHav/RQ94sxj0p5nODANeVYMBr2pKGiu8KK0SmLWAlyMZih7sJQWbily8C+xZZRBY9BX/Uqx+jB8/PlqyZEnY+6hs4LPiMyOVueipu6V4tnnGedaLjLaeNr/ohbuyeCyTAa+ywIBXNSWNolXI+gpv0QPe3r17R0eOHCl8RV72cvXv399V3kY4u5W2wtTm7OCz4jPjTGU14NnmGS96RVraeiZFaPuLzBXeusJdBrxKmwGvakpaK7yTJ0+OX2VzhbfoKc0U7GC/pufQ1qU1u4/3aOwRmzFjRrRhwwZTmzNg+/bt4bPiMyv6PtXGTGeuQ1tPsJu1Yk1py3rAWzr2ai/GgBatUtoMeFVTCHjT2MNLxzls2LDwevny5ZlKjaWz4xqwwllkVNo24K0LeAkYin4/NMZzQnqsqc21rTSVOWsD+WrjmebZNuD1HGIcPnw4fGUppfmPf/xjGGNh+PDhqazQm9KsajDgVU2hkaPBT+Ps0SS1hv1RrC5kBaltfLmPt24fb9Ex+KFy97Zt2+J3lCA9lpWAFStWxO+o1vDZ0K6bynwsqjMzCZC1PZvVQMDrOcT76/v/rGBslYxV0khnZuzHRJABr9JmwKuakqSxpF2pedmyZfGrbGAQVPSAN1nhLXrhKrAC5D7eY5EeO3PmzHD8WJYmtYpi/fr14bgSPiNTmY9lOnMdC1bVyWI6c+nYKq39uzClWWkz4FVNYVBEBc80qtKWNr7u480eBj8WrqozePDgsI/X4P9YPCtz5swJz7j7eWsHnwWpjnw2rmAei1RQnmkD3rqCVbT1BrwWrGLcQ0aTE2RKmwGvak5aq5tZDnhd4bVwVam+ffuGP3fu3Bn+1NEGDBgQTZo0KVq8eLFHONUAPoNFixaFz+SUU06J31WpXbt2hUF98mwXGW08bX3RC1Z5JFE2r4GywYBXNSetYG/cuHHRCSecEF4b8GYTM/4GvHWZD6eeeqppzS0YMWJEWAkn0LKIVefh2vMZDBkyJHwmalqSzuxKlvt3E1le4WWsNXbs2PC6Elm8BsoGA17VnLTSeWmAqQyK1atXp7IvuKMkAW/RU1g5n9JVzToMjrds2WJacwtYYTj++OOjBx54IKSMqmNxzbn2tL1prPbkFc8wz7LpzHVo4/v16xd/V0zcE1kL9hhTrVmzJryeOHFi/QJDJQx4VS0GvKo5SbCXhmTQReW/VatWhddZQNDP3zmNM4mzjICX1L80qnZn3cCBA8MAg+uhph133HHR3LlzQ0otR+E4OdBxuNYPPvhguPbs2+WzUNN4hnmWScUvOjICCHiLnvpOX08/l6V03pUrV9b3zWlNcBnwqlrskVRzaOxY4U1jhaa0Ec5SpWb2MnEdin4sD50/RzS4yhuFlcvTTjvNasSt4H6ZN29eSJM06O0YXGOuNe0V1z5Lx6p0BqpXn3766eGZLjqCfyryUqioyLK4jznt/buM+Zgwcw+vqsGAVzUn6fjSKD5T2ghnbR9vcixPkbG/jZn/7du3x+8UGwf7cwQPFU3VPAbQBF4Mpll1NL25eri2XGOu9fz58z1OpBU8uxzVNGzYsPidYqNtp40v+l7mLB7LlPaRRIz5uA+KPvmh6jDgVc2hwUtrH68Bb/YxGPK4mToMiFgF2LRpU/yOmsPxZgRgDCTd01sdXFOuLdeYa929e/f4J2oOzy7PcNGP4EkkAW/RZbFwV9orvKQzM/azkJuqwYBXNSmtfbykgCYDCwPebEr28Vp5tw4rQ6Y1l4cAjECMybO77747U4Xrah3XkmvKqozBbnlI/ebZJVNDdft3adsNeLMd8PL3Hjp0aHhdCY8kUjUZ8KompRXwMlM4derU8JpUUDrXrCBQZ1BZ9MJVyT7eLH121cTAgmfD61EeUmzPOeecsOK7YMGCwu+LTwPXkGuZrKKbxlweghqe3TSCgzygDXP/bhQdPHgw9PVZWvWnrgap+WB1N41VWZ4NC1apWgx4VZPSCniR1bRmCppwHYq+yktH6j7eBhz9QMGbdevWxe+oNTxLs2bNCitrd955Z/1ATW3HxCHXkGvJNbXwUvnWrl1rsaoS7t+twwQSfX2W7ovSsVSyqFApA15VkwGvalJae3iR9X28rkjV7eM14G0wcuTIEHgUffW/LRhUjx07NgRpVBTmmDIrOJePa8U1W7p0aTR79uxwLYseqLQFzyoTLTy7quP+3Tru361jwKtqMuBVTaLRI80njX2bpY1xlo4mgvt463BeJelvhw8fjt8pNoreMFDkeBO1zeDBg6Nzzz03FA+66667UsskyTOuEdeKa8a1GzRoUPwTlYtnlWeWZ1dRaMtp0z2LuG6FN2sBb9oVmhnrMSnkHl5ViwGvahL7ekjvSWOVd/LkyfGr7K3wsqfHgLfuqCoGilu3bo3fEStFDKKTg/9Vvt69e0cXXHBBGGTefvvt0eOPP+5qbxO4Jo899li4RlwrrhnXTm3DM8qz6upuA9py2nSPoKlb4c1a1e7SsVTpGKu9GOsx5rMegKrFgFc1iVS5tNKa6UjOOOOM8Hr58uWZGtjyd2fW09TVKKwqPfXUU/F3GjhwYBgguB+1fbh2rEycffbZYT+0q71HS1Z1CdS4RlyrLO0xrCVsP2DvPc+s6tCWmylQl+rOV5YCXo4jYywFTg1IYxIsSWd2m4SqxYBXNYvZ371798bfVSZJueG/l6UjXRgkEfi7j7cu4H366ac9TzXGwGDUqFFhBc7Vyfbj2KvS1V72qR45ciT+afHwu3MNSld1uUZqH55NMghY3XUwX4c2nLbcgLdudZdAj74+KxhDJZODaaQzIwl4pWox4FXNYtYwrUCvtIpgFgtXmdZcdx26dOkS7dixI35HZC6wF44VJLVfsto7b968aNu2bdHNN98cKuoWaXKFtFt+Z353rgHXwlXdyvFsMomQZBkpCm04bTltetFlcf9uNQpWcR2yltatbDHgVc1KM9ArbZSzFvD269cvnHlXdKyOmNZ8NAaN48ePDytyrnxXjmeNM3tnzJgRUnlvueWW6Iknnsj1Cjq/G7/jrbfeGn5nfneuAddCleGZXLlyZTRu3LjwrKpOks7sindd8N+3b9/4u2woHUOldSRRFvcxK1sMeFWzaPyo1JxGZd4sB7xU9qRTNKBp2MdrCm8DzvVk4JilVP1alkysXHjhhSFQIWAhvXfjxo25KhDG78I9w++WBGX8zgYi6WECgUDX1d0GtN3u361Dn85kdtaOZkp7hffQoUNhrOeKv6rJgFc1q2vXrqGCYxqrvAzmkj0yWQt42cvMoMm05rrgnwIfae3tzoPjjjsumjhxYrR69epUjvFSHYI+ApWLL744GjFiRPToo49Gf/jDH0JweODAgfifyh7+7vwO/C7sLeV343fkdzXQTQ/P4po1a6IJEyZ4XUvQdhPgeBxR3aomfXvWjqpKxlCMqTiPu1KkM1OrJEv7mJU9BryqaWmlNdOQkvoJ0j/pcLOCwRJFYzikv+jYT0ilU9Oaj8ZqCZNDBDBKFwPS4cOHRxdddFE0a9asaM+ePWGf67333lu/P7PW8Xfk78rfmb87vwO/Cyu6/G6m26aPZ5FBvCuZR6PtJtj1notCn84kbpYmRBg7MbkKJnPSCFJNZ1ZHMOBVTavGPl5S+Qh6s4RO0YC3DgNIj+I5GgMmVnmp2JylyZws4Roz2XLmmWdGl156adjjSjty4403Rvfcc08o+FRLK7/8Xfg78Xfj78jflb8zf3d+B34XVx6rg2eQZ5Fn0mt8NNruwYMHx98VG3161iqgkx2SbO1Iq2AVYzzTmVVtBryqacz6pVWpOev7eNnr4z7eKBoyZEhIizOt+WjcIwQ0pN6qunr06BG2SZAKzMrvqaeeGm3ZsiWsnt52223RI488Egb2BJ0dsd+c/wf/L/6f/L/5O/B34e/E342/J1/8nfm7q7p4BglkPM7paGQW0G4b8Lp/t5QBrzqCAa9qGo0gA7miF65yH28DUqhY5d20aVP8jhKsKFEop5ZWGvOOsyM5D3n+/PnRS17ykmjMmDFhnzlpfwSdv/vd78IqK4EoacUMcvl82jN5xb/Dv8t/g/8W/03+2/w/+H/x/+T/zd+Bvwt/J/5upNaqY/D5rFu3LqR76mi02bTd7tXM/v5dpBHwMrajYJUpzaq2F/2f5U5V42666aZo2rRpIQWvEhy9kVTLvPzyy6MbbrghvM6KRYsWhQmANIpEZB0rV8uXL48uueQSUwYbeeCBB8I1mTlzZvyOOgupf2SoMLjlT74ISJO0cwrzde/ePerWrVvYn87nRhEyENzSPVP8iH+efy+Z+OOf599jkMgX7QJ/ui+y8z344IPhc2OPtBpwTejLOcbGfc1RKGhGezBnzpz4nWxg7MQEGxhTnXbaaeF1e23dujV66KGHwlYLqZoMeFXzFi9eHAZzlQZ63Oqcd0cnQyNNY50l7Mej4Me8efPid4qLYIBOl72Ipg0ebf/+/eFM1fPPPz/q3bt3/K5qCfcvQWwSyPJFcEwblaz8EvgSABPEEtwmgTFfSVCs2kLK7oIFC0Kau6vqR+NovYULF4bMA+/fKGRmEPiPHDkyficbGDuRXcIkG5kmlU44ZzXwV/bY6qjmEezSIFaKhjlJwSG1ateuXeF1VriPtwEDpqFDh5rW3AQG2sOGDQvprs5n1ibuX/bSMmhk0EulZFKPR48eHSb2+OI17/Ez/hn+Wf4dg4XaxLO2YsWK8HkZ7B6Ltpo22/s3u/t3k60UYCxVabAL9++qo9jyqObRGKa1d9V9vPmRzDQ7AXAsjuDiPnFCQOoYPGtMzFIYTEejjaatrjT9NS+YbHf/bh2eGRY1pGoz4FXNI+C1cFXdCjUzwh5PVIeKxBQ/efrpp+N3lGBvKPveucdJl5VUPRTd4VnjmePZ09Foo2mrabOVzfN3kXbAy5iOsZ0rvOoIBryqeQwgSOVLI605ywEv6CQp8qC6CQBWDFzFbBpHf3AkDQVBTG2WqoNni2eMZ83jdppGG01bnbUAr1q2bduWuXRmpB3wkoV04oknOkmkDmHAq0xIK6158uTJ8atsBrzs5WMfTRqr3XnAIIpCXknVWx2NQQnpc04KSNVB8UP6pjQCgDyibaaNPv300+N3io2+mz48i5WqS8dMpWOp9jKdWR3JgFeZQHVlOolKETgnRxNxrE3WVr5Y6abyrmm8ddgDRZrcxo0b43dUqjS1mbRLSenhmaIfMZW5ebTNtNGcV6269G76cPryLGGsxL0OiiKmEagypmNsJ3UEA15lAuk/HGuQRoCazMRzhEQWAyVmhpkxVx2qom7YsMG03WaY2iylj2fJVOaWcY1om2mjVYe+O4uru3yOe/fuDa/TyGbg3mBMl8XUbmWTAa8ygdlEGkiC1EqVNtZZTWtmH6/Viesw2Dxy5EjYF6Wmcc+Tdpm1s6elWmUqc+tok5977jknBGL02fTdWU9nTuOeJ52ZMZ0pzeooBrzKBM7u69+/fyoViksb62XLlsWvsoMO4vjjj7dac4x7gzT19evXx++osSS1mZQ0U5ulyiRVmadPn24qcwtok2mbPXu3Dn02fXcWg7zSsVIaAS+ru4zpvDfUUbzTlBnVCHizuMJLpUtmiN3H22DEiBHhenDEgZpmarNUOZ6dpUuXhucpiyt1HYW2mPRd05kbJOnMWaxWnfYKb3I0k9RRDHiVGWnt4x03blyYZUUWA14QuNB5GrjU4WiDgQMHusrbCgYqpjZL7UfdB7bWpFGlNs9oi+mnaJtVN1GS1f27SMZKnKfMGKoSXItkhVfqKAa8yoy09vGSgjZ+/PjwevXq1Zk84mfAgAHhuIekiISiaOTIkaGwxvPPPx+/o8a490nDZPCSxn54qUh4ZtgWYCpzy2iDaYtpk1WHe4exRhZXNRlrMFYCYyeC3kq4f1edwYBXmZHmPt6pU6eGPymosWrVqvA6S7p06RKCXmaMVYeBBINQz5xtGSsMo0aNihYuXOj5xVKZeFZ4ZkaPHh1WLtU82uBu3bqZslqCvposJPrurGGMlEwkJ2OnSrh/V53Bu02Z4j7eBgQuBrwN2BdFIPfYY4+Z6t0KUtKYXb///vut9i21gmdk8eLF4Rz3sWPHxu+qKbS9tMG0xVncq1ot9NVZnShx/67ywIBXmZLWPt48BLx0nuzHfPbZZ+N3dPrpp4dVeycCWsZAdObMmSHFLqv3v9RReEY4+mzGjBkGca3YsmVLaINPO+20+B3RR5PGm/X9u6g04GXsRsDr/l11NANeZUqyj5fOoxKljXYWjyZC9+7do759+4YBhuqQLsbKwpo1a1zlbQWF284888xo8+bN0bp16+J3JZXi2eAZ4VlJih2qabS5jz76aGiDs5i6Wy300fTVpHlnUZpHEiVjN7IlpI5kwKtMSfbxsspbCVYCk4IJWV7hGjp0qHtWGxk2bFi0f//+VFLf844KqnPnzo1WrFjh9ZIa4Zng2eAZsdpw67hetL0eRXQ0+ugsr3gnYyTGTJX+HsnqrpkS6mgGvMoc0porHZzT2CbHStAZ7dq1K7zOGgJe/u6eP9uACpJUB2WlQa1j8MGzwB5FBquSovAs8EywomX6ZXnIrKHtdSW8AfcRffSQIUPid7KFv/uTTz4ZXvMsVBqosljh/l11BgNeZU6ywpvmPl6OmsgiUqSo/Ogq79EYdO3cuTOzExkdjRUZJk8WLVoU9t9JRcZ+XSoys5pFxohaR1vLl0cRHY2+mT46q+nMpRlwlVZoTvbvGvCqMxjwKnPS2sdb2nhnOa2ZQdkTTzzhntUSHE9EEOcqb/lY5eW6Pfjgg95LKizufZ4BaiRMmjQpfletoa2lzfV84gbcS3lJZ0Za+3eT7WRSRzLgVeYk+3i3bdsWv9M+pY13lgNeKj8ePHiw4gmAvKFwytNPPx3t3bs3fkct4bmaM2dOtGfPnkyeTS2lgXufNmP27NmeE1omrhdtLW2uGtAn0zdntToz0gx4GbOxuuv+XXUGW3NlEh0IHWwlkj28yHLAy34p9geZ1ny0Hj16hOJk7CtTeVidoUAPlWkff/zx+F2pGDg/lnufZ8CVyvLRxtLW0uaqAX0yfXOW9zSXjo1Kx0ztkeWziJV9BrzKJBpN9mhyjmh7URafTho06llO4yRlis7VVNSjjR07Nhwp4up3+Xr37h3NmzcvrHR5XJGKYu3atdHq1avDvc8zoPLQtnLsDm2tGuQhnZnfIQl4zzjjjIpSkQ8dOhT2eBvwqrMY8CqTmElmUFLpKm+SokMa58aNG8PrLEqKQFSa5p03HCUyYsSIaOXKlfE7KgeTQWeffXb0yCOPRBs2bIjflfKJe5w2gnve80HbhjaCvbse23S0pC8eMGBA+DOLeC6SLUGVpjMzViNgNgtAncWAV5k1ePDgkCJTibzs42WvmWfyNm3MmDGhqnelR1kVTb9+/aIzzzwzPBcURZPyiHube5x7nXte5aNNJdPK1d1jJau7Wd6vWjomqjTgZayW5b3Myj4DXmUWqTFbt26Nnn/++fidtstLwAvSs0kt81iZo3EcxOjRo8NKhCnfbUPmAPsZH3roISdTlDvc09zb3OMeldI2tKW0qbSt7nc+Gn0wW2mynM6M0jFRJUcSMUZjrGbAq85kwKvMIj2GYhCs3rVXngJergdHaVSa5p1HVA89cOBAxRkBRcQZkgQES5cuzXTav1SKdE3uae5t7nG1DZOrtKlWZj4W/Qypu1k/fietFV7GaEyKuDdencmAV5lFqhAzhpUEMePHj6+voJj1gJfrwYyyQcmx+IxJu2NF4o9//GP8rspFQEDK57Jly6L169fH70rZRDE22vuzzjrLYLcdaEPZ8zxu3LhMVyCuFvpgMq6yfvxOMiY64YQTwmfdXkyOMFbzOCJ1JgNeZVoS8LY3VZVZR4JeUJW2kqrPtWDYsGFhX9X+/fvjd5SgsAoDNfejtg/FVyjqs2LFCo8sUmZx7zLxxb1sGnP70IbS59Lf6Gj0vaxoUtU4yxgLUbUcjJEIetuD+4SsM9OZ1dkMeJVpDFhomKmy3F5Jqg77bpIGPqtIaWZvs5V1j0VhrwkTJoSJDfc5t0///v3DsS08J5y96Z5oZQX3KvdscvQQ97LajraTNpQgiDZVRyMDhj6YvjjLSvvJStKZGZsxRvN5U2eztVKmdenSJaSkVZLWXNqYk7KZdaxkklJl6u6xqGTN3qpHH300fkdt1bdv32j+/Pnh3NIlS5ZUVDRO6gjco9yr3LPcu9zDah/aTtpQ2lIdjT6Xvpc+OOtKx0KVBLyMzRijMVaTOpMBrzKv0n28pY151vfxgtRTOhf2zeho7CGi2iRpjfv27YvfVVtRjOX8888PZzTefffd0bPPPhv/RKot3Jvco9yr3LNZLyTUmWgzaTtpQ92PeSz6XFJ/s3z2biKtglWMzUxnVi0w4FXmkT60e/fu6ODBg/E7bZO3gJeBCDPMFhdq2sknnxwKivBZm5LbfqzynHPOOVHPnj2jBQsWRLt27Yp/ItUG7knuTe5R7lXuWbUPbSVtJm0nbaiORZ/LvuY8TAaUjoXaeyQRYzLGZozRpM5mwKvM45xVUtTaexwPxSWScvl5CHjB77Rz586wqqFjsZf3mWeeqSgzQHVbCmbOnBmNHDkyrKJ5Vq9qBfci9yTH5nCPmlJZGdpK2kzaTh2Lvar0uVkvVpVIxkJkRLT3PGHGZIzNGKNJnc2AV7lQSVozs7HJKi/VJ+nUs44OZsiQIeH4DR2L6twTJ04MnboFrCrD8zNmzJhozpw50UMPPRQq4Lpyrs7Cvcc9yL3IPTl69GjTbytEG0lbSZtJ26lj0deyrzkPwR2ZEcnkJWOj9j4/pjOrlhjwKhdoVLdt2xYdOXIkfqdtStOaly9fHr/KNlbdKKDR3muSd8zEMzixgFU6SFs777zzos2bN0eLFi3yvlOH457j3uMe5F40lTIdtJFUHc7L6mXauO+YLB8xYkT8TraVjoHau3+Xa8KYzIBXtcKAV7nQq1ev6KSTTmp3oaa87eMFqUSkanvubNOYtbaAVbp4Dgk0qIp75513eh60Ogz3Gvcc9x73IPeiKmehqtYxsUxfm5fq36VjoPYGvIzFeAZ9DlUrDHiVG+wzae8ewtJGPQ9HEyWYceYoDlNMm8YAxQJW6SLl8ayzzgqVSikYtHXr1vgnUnVwj3GvcfwJ955pt+mwUFXruEakM+dldRdpHEnEWKy9e3+lajDgVW7QuG7fvr1dR6RMnjw5fpWfFV6wj5f9V6QWqWkUYaGSpAWX0nPccceFgRLPFSmm7Kc0xVlp457i3uIe417ji3tP6aBNpG20UFXz6FvpY/N0LnHpGKh0bFQuxmCMxTyrWbXEnkG5wZET/fv3j5588sn4nfKx0pfMRrJ/JS+rfVQm5Yiixx57LH5HjbEaNG3atNDJe55sutjzd+GFF4a0yNtvv92JF6WGe+m2224L9xb3mPtL08WRMrSJtI2umDeP/c30sXmZaGHsk+zh5Zlqz8o+YzDGYh4DplpiwKtcIWht757VJHWHGe087XuleBXHJXhOavMGDx4cCtywWmRqc7o4A3XevHnheJiFCxeGa2xlbLUX9w73EPcS1cG5t7jHlB7aQK4xbSJto5pGn8oXfWxesB+ZI5bQ3nRmxk+mM6vWGPAqV0jh5ezZ9pw/W3q4ep7SmpmdZwbaasQto3Nn8GKRr/RR7IZBIStxPJuszJHyJrVF41Vd9k1aSCl9tIEcz9fegKco1qxZE/rWPK2Al4592vP5J+MvxmJSLTHgVa6ccMIJoQx+e/ZjljbueQp4weoah8C3ZyKgKJLUZtK5SOdT+liJmz9/frgf77vvvlAcxdVetaZ0VZd7x1Xd6qHtow2cPn26qcwtYBWUYmncj3lSacDL2IsxGGMxqZYY8Cp3SKWh0W1ramqeA1720lBp01XelpnaXH2lq70MGl3tVUu4N7hHmKzjnuHecVW3OkpTmT0/tWXUxaBPzds+1UoCXu4fxl6mM6sWGfAqd+isqd7Z1j2r48ePj44//vjwOk9HEyVGjx4dikkcOHAgfkdNoZMnnc/U5upqarXXSs5KcC9wT3BvcI9wr7iqW12mMpeHPpS+lD41b5KxD2OhcePGhdflolYIzy1jMKnWGPAqd6iWSDn8tgYspG8lDfyqVauiw4cPh9d5cdJJJ4VZeys2tyxJbWam29Tm6mq8t/emm24KWQjPP/98/E+oaPjsuQe4F1zV7ThJVWZTmVtHH0o2EH1qnjDmWb16dXjNAkBb7wNWdxl7eTSYapF3pXKJlJrNmzdHf/zjH+N3ypPMbLNnLGn484SqplRhPHToUPyOmsJghqIb999/f5vvIbUdK3fsy5w9e3ZYObn55pujDRs2eO0LhM+az5zPnnuAe8G9uh2Da09bR5tnKnPL6DvpQ+lL84aJ/qSmQmkRz3JwD/Hcms6sWmXAq1zq169fOIOWohJtked9vOBMPc7HW7t2bfyOmsO9QHpWHic+ahEreAMHDozOP//8aNKkSWGVj72bTFy5nzq/+Gz5jPms+cz57LkHuBdc1e0YBDq0daYyt+7xxx8PfWifPn3id/Kjkv27FMWkUBVjL6kWGfAqlxgoJcWr2iKvRxOVYmaagNf9ki1jDxOrTAxw2jpxovZLnt2LLroopLKyp+zOO++0sFUO8Zny2fIZ81nzmfPZG+h2HNo2+gPauqSGhZpGn7lu3bpo7Nix8Tv5UknAm6Qz++yqVhnwKrcYOG3ZsqVNgV3eV3jB7HTv3r2j9evXx++oOVwn7okHH3wwevbZZ+N31RHYB8Y5q5dcckkogsKRNPfee2+0e/fu+J9QVvEZ8lnymfLZ8hnzWbv3r2PRptG20cbR1qllBLtcJ/rQPGpvwMsY66mnnjKdWTXN3kW5RcfUq1evkC5XrjPOOKO+489rwMsMLKu8rFx6BmrruCcGDBgQPfDAA6bWdoKkWihBEc/zHXfcET4LjjRStvCZ8dnxGfJZXnrppeGzdWWx49GW8VnQttHGqWX0layE53HvbiIZ85CuzZFL5WKMxfPspIlqmQGvcm3YsGFtWskkGJw8eXJ4TWGKvK4msapy4oknhqBXLeOeINWdKqZr1qyJ31VH69atW3g2L7744rASuGDBguiee+4JKwtORNQuPhs+Iz4rPjM+Oz5DPkurAXce2jLaNNo201BbR19JAbW8HrlTehQfz2Zb7gnGWIy1pFpmwKtcI8WGoy1ozMtVhLRmOrOJEyeG4xWs2Nw6inGwx42iOjt27IjfVWdgombGjBnRZZddFlILly5dGt1yyy3uS68xfBZ8Jnw2fEZ8VnxmfHZ8huo87J2mLZszZ05o29Qy+kj6SvrMvE4OlI512lKhmbEVYyzTmVXrDHiVa3TmNMQcd1GuIgS8OOWUU8IglIGPWkeFawY8ixcv9nzeGsCKL+mwBFH8yerEH/7wh+ihhx5q0wSX0sW15zPgs+AzKf2M+MzUuWi7OIKItiyPlYargdVw+sq87t1F6VinLft3Wd1ljOXEiWqdAa9yb/jw4WHgVe7qT1ECXkyYMCEU4jhw4ED8jlpCYR2OS1m0aFH0/PPPx++qM5Eiy36z8847Lzr77LPDeZB33XVXdPvtt4fBmKu+1cc15lpzzbn2fAZ8FnwmfDYWo6oNtFm0XbRhtGVqHX0j9zYTBHnWnoCX557qzIyxpFr3ov9z85MKgL1jFOYop5PftWtX/Vly55xzTjg2I88oXEKa1syZM+N31BIGjXfffXfYz8U1c/9b7WEg9uSTT4aB6r59+8JxGUOGDAlZDZzPrcrxHJAaS8EarvVJJ50UBr5ca1d7ag9DPSoy79+/P5o/f77PQZm4Zly7WbNmxe/kE2Md+jUwBiKjqTVMllPrhHOzpVpnwKtCIKWZ/WQXXHBBWQEKqxLMXJLyReOf56CGAdCtt94aOi2rLJaH4zyYRBk1alQ0evTo+F3VIlJsGZRROOnw4cNhdYvCM4MGDTLFto3Yy8h15Gvbtm2h6NTgwYNDe1nOAFmdh60r9IG08927d4/fVUuoKk47T5G1PO87Jwzo27dvKNLJs0x72Rr+HTI6OD/bglXKAvOMVAisOpCaRPBajiSlhw6AwDfPWKmkw1q5cmX8jlrDgHHu3LnRqlWroqeffjp+V7WIQIwiLByBQ4otk1is/P7+978Px+OwP4+BrXO/x+KacG24RlwrrhmTh1xTriXXlLbSYLe20UatXr06tFkGu+V75JFHQtZC3ousseUrOZGi3HRmxlKMqRhbSVlgwKtC4JxHZi5JwSlHkfbxgoIyrNhYgbh8zIhPnz49FIChSqVqG1kaZDBwr7PKRSElJnoYuBHM3XzzzeFZ5zlgD2pR8btzDbgWXBOuDdeIa8U1I9DlGnItTeevfbRNtFG0VbRZKg99ISn7Y8eOjd/Jr/bs32UsxZjKM7SVFQa8Kgz277LfjHTU1pQ2+suWLYtf5RepnaTmMqPtSlf5qE7JfbVw4cKQLqvsYKWLIO7MM8+MXvKSl4Rnnn2p7Gm/8cYbw7mxPA+0GaT95/G54Hfid+N35Hfld+Z35xpwLbgmXBuuEdfK1cFsoU2ibaKN8tiY8vFc8DzQJxZh20PpGKecI4kYQ9FmWPhMWeIeXhUKAzqOFmCFoiUcq8GMOK6++urou9/9bnidZxT6YUWHczLZ36jy0IQmVZvPOussK9JmHJ8n6X2savIne4BJ62Ulg3Ro0neTL1Ids7LKye9FCiK/T/LF7/fcc8+F1Vp+H34/VgH509XbbGOl/r777gvFqUhl9vMsH3vUlyxZEl1yySWFKMDGGOf73/9+eE3w29oqL+nxrIDPmzcvfkeqfQa8KpQtW7aEBp29Zy0FJhRnYW9rsspRhFVePP7442GPHsW9DNzKx2QBFS579epl5eYcoh0g6E0C4KaCYKoUswKafFHQqaPvA7pzVvVYgUm+qFLdVHCbBLh8b8XefOE+oLow6cxUZLZqdvmYKKAYE3t3KchUBIxxli9fHtozMj5ou5rD9bnpppuiadOmOTGuTDHgVaFwu7OKyZl6rRVbmDRpUkhrYrBAJ1CEQQOd2W233RY6eyoQq3wEFxxhxfE33DvKN54Vgt4kmCSw5B5gsowJEIJd0iFLg2C+St9jUokv/tnkzyRIpq3ii/9P8idfSSDL/yd5Xfoe/yxtVfL/IRBPgnKCWyey8o/ghVVKjprhHlD5mPSlqN2FF15YiGeFCTIm95kMmzx5cqs1SziCjHERq98dPaEnVcKAV4XD8QxUrWQw0JI3vOEN0Q9+8IPwmk6AzqAIKFhDii5HMThYahuCnrvuuivs/fK4ouJiRbipYLTx90kQSzfcXFecBMFJcNw4iOb7Hj16HPW+K7bF9dhjj4Wvc889NwQyKh/P5S233BJSwAcMGBC/m2+MbZJ9u4x5vve974XXzaF/Y2XX/k1ZY8CrwmFG8w9/+EMYELDy0ZzPfvaz0Uc+8pHwmk6AzqAoFi9eHAbXeT9svxpY8SO9mUEEVSylciRdMQEwktUlV1FULs5PJYAhjZkVfbUNxdp4DmfPnh2/k3+Mbd74xjeG14x5/u7v/i68bgqZLGQxUa29pbRnqRaZ26TCoaGmYiWpSy0pLdzQWppP3rCazX5njmVQ2zDQnDNnTih85hm9KleyksvqLF/J91I5aGuoNcHqpMFu29HX0ecVbTtK6dimtWJVZA4wdjLYVRYZ8KqQSMdhLwpVS5tT2vgXpWhVghRJKlnTGSYrTirfwIEDQ7VrVsp37twZvytJ6aONoa2hzSlKKm6a6OPo4+nz6PuKpHRs09KRRIyVOIrIVGZllQGvColCLuxDYcayOZw7SdVdFG2FFxStYiDAAfNqO4qiURyNczApbiRJaaNtoY0ppxCjmkYfRypzEQs1JmMbtne1tAWHsdLgwYPD2EnKIgNeFdaYMWPCnieKxzSFdMKkUBX/HPtXioQ9hKxyr1q1KhTzUNtxrAWH83P+M0eESFJaaFNoW2hjinKETtro2+jjWN1M9s0XBfUmnnjiifCasU5zWyi4RoyBGDNJWWXAq8Jin1P//v1b3MtbmtbMUQ9FQ2ouXytWrIjfUVuRJnfGGWeEQlZUcZakStGW0KaQiUQbo/ahb6OPK2IqeOmYpqX9u2vXrg1jpZaKfEq1zoBXhTZ27NiQzsS5mU0p3dNSxLRmJAWsduzYEb+jtmDWfMKECSFdjAEqZzpLUnslwS5tyvjx45tdmVPLkkJVRTlysLFyClYxNmKMxFhJyjIDXhUas5a9e/dudp9qaSdQ1IA3KWBFcQsLWLUPA9Jkjx3nGLrSK6k9kmA3qRFgsNs+RS5UlSgn4GVsxBiJsZKUZQa8Kjz2pZCy8/zzz8fvNDDgrZMUsOI6qX0YmHLkBcc6MGB1T6+ktqDNYMKMNoS2xGC3/djKVNRCVYnSMU1Tq9yMiejzXd1VHhjwqvBOPfXUqFu3bqEoQ2N9+/atr3zJbDAdZBFRzGP69OmhuIeBWvslK71JerPXUlI5qMZMm0E9AFd2K0O7u3r16tCnFa1QVYKxTBLw0h8x1mlsw4YNYWzEHmcp6wx4VXgMHFjlpex+Uym7ySovVZo3bdoUXhcRKU3Dhw+PlixZUtjAPw3cb+zppdgMA1gqZUpSc2gjaCtof2k7DHbbj76LPoxrWeQ0XaozJydPNJXOzFiIMRFjI+835YEBr/SCIUOGhD+ffPLJ8Gcp05obUCDl8OHDLZ5frNYlQS/pdAxkt23bFv9EkhrQNtBGjB492gJVKaDvog+j/S2y1vbvMhZi9TsZG0lZZ8ArvYCGnZnMRx999JjVSwPeBscff3w0Y8aMkA5mOm7luOe4vxYuXNjkZIuk4qJNoG2gjaCtUGWSVOaZM2dGXbp0id8tppYCXsZAjIWYZClqyrfyxztZirGPhZnfp556Kn6njkcTHc3U5nSxJ2/OnDnheloUTBJoC2gTaBtoI1QZUnQffPDB0Hf169cvfre4Wgp4GQNxHBFjIikvDHilGDO+zGg2XuUljSyZDTbgrUM6mKnN6aFw2rx580JRsJUrVzqRIBUUzz5tACuRtAm0DaocVZmfe+65wqcyJ5KxDFlbjHES3H9r1qwJ222KvgqufDHglUpQSIhzDkv3VFKlkLP6wECEmc+ioyMkLczU5vSw6nDuueeGYiIPPfRQkwXUJOUXz/zSpUtDG3DOOee4EpkSKlzTV7EdxyAuCmMYJldBsNu1a9fwGox99u/fH8ZCUp4Y8EolTjjhhLBX6pFHHjlqlS1J+aGjYPZTdQEa6WGkiRmcpaNXr14h6N25c2e0ePHisCIhKf941nnmd+3aFdoA2gJVjr6J1PARI0Y4gRAj+E8m7kvTmRnzMPZhDMRYSMoTA16pETrGQ4cORZs3b47fObpT4Dxe1SE9jIEa6WJKR48ePcLqDgOSu+66Kzpw4ED8E0l5xDN+5513hmeeZ582QOlg2w19VGnabtGVjmFKxzaMeRj7jBw5Mn5Hyg8DXqkR9rSQwkz6crJyWdopsPdl/fr1IRgpOtLDkqrNpI0pHaSYsX+vb9++0YIFC6IdO3bEP5GUJzzbPOOsPvLMl6aXqjL0SWRkmcpchzELY5emClYx1mHMU1qzRMoTA16pCVTF5LxDZodvuOGGaMCAAfFPouj+++8PlTNJO/vOd74Tv1tcDNSYEea6PP/88/G7qhTHQUybNi0MQO69995ow4YN8U8k5QHPNM82zzjPukfApIe+iD6JvslU5iiMVRizMHbhuiROOeWUMMahWCdjHiszK69sXaUmMPAgXfcLX/hC9LKXvSx6yUteEp144onhZw888EC0ffv28NqzU+swYGNlfPny5fE7Sgsp9meeeWbYW8XMvPulpWzjGSatlGf6rLPOCs+40kVbyT5UU5nrJGMVxi7U3UDPnj2jF7/4xWGM86UvfSmMeZx0UV55Z0vNGDx4cH16WWm6LgWFEpdcckn8qtjoJGfPnh06VScB0keGwXnnnRcqaN53333hSChJ2cOzy6ougQfPNCtsStemTZvCftRZs2YZwMUuvvji+FXDGIYiVcnYhskBxjxSXr3ohRveAx+lZrDfhUEJx0Q0NmjQoBDc2aE22LJlS5g9vuCCC8LssdJFURuuL0dBzZ07N+rdu3f8E0m1juBi0aJFoQIzx7pZCTd9HCvInmiurwFcA7IKhgwZEj399NPxOw3YwsU149QFKa8cqUstoAP47Gc/G87ibYw0IIPdozHAoPPkeA3386aPATKB7mmnnRbdcccdYQ+gc5ZSbeMZ5VnlmeXZ5Rk22E1fsm+XPshg92iMVRizNNa9e/cwxjHYVd45WpdaccUVV0Rvf/vb4+8a8L6ONXHixPAn+9OUPgqLsC+NQTNVNVnxTc5UlFRbeDap+8Czyl58nl2eYaUv6XOSPkhHa2rM8ra3va3JQFjKGwNeqRUnn3xy9OY3vzm66KKL4nfqZkvdv9s0jjRgP+/GjRtDirOqY+DAgSF1/Nlnnw3paM8880z8E0m1gGeSZ5N9uzyrpdX+lS76GvocqhB7rE7TGLOUTrawr5exDWMcKe8MeKUyUL3wHe94R9SjR4/w/ZgxY6KTTjopvNaxuDYcs7FkyZLowIED8btKG+lonN3JURKcsbh27VpTnKVOxjPIs8gzSXrt2WefHZ5VVQd9DH3N9OnTrR3RAvaOM3YBYxky11wNV1FYtEoq00MPPRSqP65evTp0FHQeatnSpUtDgaX58+e737nKduzYEfav9e3bNwz8kgrjkjoOq7kEX6zukunSv3//+CeqBooxMbHQp0+fMMmqltEff+tb34rGjRsXJmOmTp0a/0TKN0egUpnoIJgfestb3mKwW6YpU6aEPWzsX1N1MbAmbZIB4O233x6OMJLUcXjmePboJy688EKD3Q5A30KxqsmTJ8fvqCWMXd761reG12PHjg1/SkVgwCuViZS0UaNGRStWrDBttEzspWJPFcc7cS6iqotq4hTGGT16dLRw4cKQlfDcc8/FP5VUDTxjPGs8czx7PINmWFQffQp9Cyvp7tstD2MXxjCMZUyzV5EY8EptwP4X9guR2qzyJGdOUk149+7d8buqFoqSjBw5Mqwwkb522223udorVQnPFs8YzxrPHM+eVZirj76EPoW+xYyr8j3xxBNhDJPs5ZWKwoBXaoPjjz8+pE4xQ+pRMOXjTEQ6WFZADh06FL+raqJ4C3unmcl3tVdKV+mqLs8Yz5oFkzoGfQjXnZRcz9stH2MWjm5iqxFjGalILFoltRGPzD333BP17t07dBwqD9eN8yg5RofKwhax6jj79+8PhXQOHjwYzZgxIzrllFPin0hqq+3bt4fniUq3PE8Guh2HGgV33313uPazZs1yNb0NHn744ZCJQNVwr5uKxhGn1EZ0FFQ2ZO+QKbrl47pRPZiVkWXLlrkPugMlq72kW953331hZcoMBalteGZ4dniGXNXtePQZ9B0UqaIvMWgrH2OVDRs2hEl6r5uKyBVeqZ1Ia965c2c0fPjwMPBhMPT6178+uvzyy8MMKivAOharjAsWLAjpaARg6lj79u0Lg3Zm+jmDkTN8HQBJzWOYxN5H0kHZL+p5r52Ds43XrFkTnX/++fVn4utoe/bsCRloN954Y/SjH/0oOuGEE8KKOBP0/fr1iyZNmhT/k1KxGPBK7cRK5S233BL95Cc/ia6//vr43Tqk6zIoOvfcc0MQTACsBkwU0ClTzXTAgAHxu+ooNPtUOF2+fHl04oknhowFzrGUdDRWxlhVpNAP9RuGDBniBFEnoDgY+3bZDkPgpgb33ntv9MMf/jC68847w9n3pH2X+ou/+IvoyiuvjC6++GL37qqwDHilCjz55JPRT3/60+iaa66J3zkWgyP2rrLXSw1Ir2KVnNl6V0s6B5M2q1evDisnZCqMHz8+rAhIRUfGzqpVq8LKGJkonMNusNA5qEFAVhATDmeccUb8rkClao5lamko/9WvfjV67WtfGw0dOjR+Ryoe9/BKFWC2n8IZc+fOjd9pkKwCsNprgaZjDRs2LAxemLV3P2nnYABPitsFF1wQUpzJWNi4caP7q1VY3Ps8AzwLPBM8GzwjBrudg76BPoK+wmD3WIwtkrFGU5kHZFExRmGsIhWZo3CpAnQwpIOyb7cxBk6XXXZZ6KynTZsWv6tS7CHl8HtmqQ2yOg/7Ekm7p6DJypUro7vu+v/t3Qe0VdWZwPGdSFMQsAKCKGKliF2xxWVw1AhKEUQIirEbRRxjokTHWHGWDQeNDbsSUSMWdBxjBmOPHQFbRBREaSpFpFhm+G/ueT4eD3jl3vvuPff/W+uu9865IMkt++zv7G9/3wsx7VwqJXzm+ezzHWBc5zthj9e6wzWB7Cj263Kt0KrYOsUc46CDDqr0GvqrX/0qfpYrC4alUmJKs5QFlPvv3r17XBmoiH28Dz/8sK1gVmPZsmVx7xGvjxfmukea87/+9a8wZcqUsOmmm4YddtjBSb9SjZVcClKxT5Tqy/QMd0W3bjE1pbjel19+Ga+hDRo0yDyj8miR1bt373gNrYgsqnHjxsVUcKnUucKrosZF8dvvfwzzlv4Qf9bV/Rv2Pvbo0SNzFGJxCFYuwYWItCImVFoVExkKkcycOTPuJ1XdYqJPkNutW7fQsGHD8Oyzz5b18JXShM80n20+44zXfOb57Bvs1j2uBbNmzYrXBoPdyjGnYDtVEuzyGT7wwAPj7zj88MPj3KSuFMr8TIIrvCpKS5YPnhO/WhremLM4zFv2U0XC5g1+HnbdZN3QecOGoVG9/N7PoV3C7rvvHtsCHHHEEWHYsGHxJ4EcaFNEJcVDDjkkHmtlvG6kEzLhbNeuXeas6hptjCjew+eY94XVLyegKmZklZDFMHXq1NCyZcsYFDRp0iTzrOoa7wtp5fvuu6/t/Vbjqaeeih0guG6iVatW4dFHHw2XXXZZ/Mnr9vrrr8fxOt8KcX4mGfCq6Hy8YFkYO3VB+G7lyvsrqb98LO3VrmnYqmn+JuZ8le64447YbueCCy6I6USfffZZXPmlVQAoMDFixIhw+umnm7pbiaRd0S677GKRjQIzb968uKLw9ddfx0kUlWtdCVMxIV2fiuQEuxtssEHcF9q8efPMsyoEtEujpoPthyrHPGPkyJHhrLPOKms/RAeIxx57LLRp0yZ2P7jkkkvCPvvsEwYPHpz3eUahzs+kdf60XOZ3qeAxmD44ZUH4YS23aX5c/vy7Xy8NmzWuFzZouE7mbG5xYdl6661jgY3kJ3dZBw0aFAMFVsm4WNEQfvbs2bGg1Trr5Od/W7FIXjMKlTDZoUesCgPpcptvvnkMFFiBIeWQCRfvl59jFTJWdD/66KM4rixdujQW+mFVN9l2osLAftTXXnstttmxP/uqqFjNzfJLL720LD24V69e4fHHHy+rEcKYTJs/ilWxJSWfCnl+JhnwqmiQJnP3h/PWOpiW9+H8pWGXjRuFej/Pz13O5AJDcMsKLyu6pH/269cvTrpI2QWpRjSLZ/WXIE8/IbWQ15G9dS1atHBSWmCYTPHZbtasWcxgoJcyEzECX1d8VUiWLFkSb8wQ6BIgULyHVV37fhee+fPnx2sihQvtF7sqMmvYIvXggw9mzoRw3nnnhZtuuqls3vHDDz/E15DCa6Q451MxzM9U2kxpVtF4bfbi8PcZizJHVdetdeOw26b5Cyq5w0oRiY022miV6oh33XVXOPHEE8v6zm633Xbx7mxd7LMpdOyJJv2QCp1OUAsXaeikiJK1QJ9Msht8v1SXFi1aFD+T06dPj5XGGV9Njy1cvF9cM5MK2VoZn2W6QHBNBDfRb7311nDMMcfE48SkSZPieMze53z3/i+W+ZlKlwGvigIf05vf/XqlAghVRaGEkztskNe9LLS5+Mc//lHpPiRWeUlDIn0LpIjStuiAAw6Ix1qB95wLOJU6CXrznZ6l6qF4ChMz9uCxusDElVVgKV9YJeQz+MUXX8QaAHwGyTxQ4SLFnGCXbB5uEFvbYmXjx48Pffr0iSu8INV77NixcY9uebRvYnX3F7/4Rd7byBXb/EylyTJpKgqLf/i/Gg2m4O8tqU6eTRZwwWH1luIbpBmVx91XGsUnjfS5kNE0ftSoUfFYK3ABZAJEUZlXXnmlbFVchYnAYtddd41tMerXrx+ee+658OKLL8YAOCmuImUbny0+Y3zW+Mzx2eMzyGfRYLewMaYTpDHGG+yuilVcan0kwW7Hjh3Dq6++ukqwSzE2tgAx56iLnunFNj9TaTLgVVFYVssBcWkdDKikdpJ6RHuFiqhwy4X+0EMPjcdcsEh1Pvvss1cJkEsZEyAqNjOJ5ULP66TCRjpzly5d4kSN1QhW6Z955pmYjsdqjpQNfJb4TPHZ4jNG6jKfOT57ptQXPsZyxnSukYzxBrs/YQ7w7//+7+Gkk04qu+ZRhIoOBltuuWU8Lo+aIbyOzDnqQjHOz1R6LFqlosC9w3/OXrzioAb2ableqJ/nwghcwElnnjBhQtzPW7HiMCm69NEj/ZkVTBAEsypMMStTeFfgdSRFlgJJM2bMiAVN8r0/SdVHASs+9/Tu5bPPe0dgwuedyRnF2pzkqjpInSR1k6r3jKscU22ZQkdUqbVoWnEgiCPLCXvuuadV3stha0jfvn3D3XffnTkTwtChQ2PLw8oKXPJ9YFzda6+96mzOUIzzM5Ue9/CqKBTzHhH2lNEbjz26q5uQ3XzzzbHdQHI3t3PnzrGYFdVwtQKvDTcEmBw5SSpOBLt8F6ZNmxYnZ6xWcAPDStxaE6otc8Pkk08+iSu7FEdjbKyL9E3VDquXBLv87Nq1qzcpyuHzzc1uAljw2txwww1xpbcyXBOfffbZOI7W1eouinl+ptJhwKuiUaxVAPmKUZSD1d6KVZvL+9///d9YnGLevHnxmBQ9ilNQ+EorJHu+SHHeY489DHqLFJNd9l0S/FJVlNTnNm3axJV8J8ACk3mKT5HZMWfOnJgtQKBLMSq/98WJ7z1pzIzjBLuM41qBPegUs+SzDopZPvTQQ3E/+upMnDgx7u+lqGNdB4xWaVahM+BV0aDP2w2TvwrfVfEmIsN/vZ+H8NuOG4ZG/FKHkqrNXOSZuK0Oe9JoP8CqMEj9vP3228PAgQPjsVYEvexlYoVw9913d/Jb5BYvXhyDGh60JyHoJfglCDZ1vbRQgIoJP58Fgl324vJZ4GG/8uJGsPvaa6/FfvQGuyu75557wgknnBBfG2y77bYxw4ufq1OXVZkrU8zzM5UGA14VlY8XLAsPTlkQqvKhZUDt175paNe0wYoTdeyjjz6KKUtrSm0GK17s4WHFN/HHP/4xXHzxxQYAGQa96URbmST4Jfgh3Zlgh9UOU97SiSkIq1S856QtM8YlQa5trdIhCXZJRydjyWB3Bca4888/PwwfPjxzJsQVXVZ2GfNWp1BSmSsq5vmZ0s+AV0WHQXXs1AVrvJNYf3lc2LtdYQ2mfNVIbeZCxh7dNSGgY0/vLbfckjkTwpFHHhnuuuuuVYpflSrTm9OL7worGNOnT48rfQRB9Ols2bJlXPk17bm4MWFnJXfmzJmxzzYTf1b2N99885gB482N9CDYZc8u77kruz8hm+WYY46JPfgTJ598chg5cuRaXyNSmdn6RIvDQvuuFOv8TOlnwKuiRPrMpK+WhtfnLF6pUAIFEHbbZN3QaaOGodE6hbcaWtXUZvDVvO6662KrIiaEoLfko48+Gle+tCLopcI1wS5Br4FQ+vDZJ+uB4IgHKdAEvQS/BMGmuhYH3jeCW95Dgl3eN95DHtQ3MHslfQhyCXb5DlNF2GB3BTIZDj/88NiRAXz2r7nmmjBkyJC1BrBJKjOZYk2aNMmcLSzFOj9Tuhnwqqjx8aVpOX3cGq7zs+WD6M8KfnVgypQp8cEFiz26a/Pkk0+G/v37x2AZFG157LHHYvCrFUEvkyred6o3G/SmF9/3b775piz4JRWWtFcCX4Lg5s2bu9JfIFjZYxWK4JZAl3R1sluSIJfJuiu56ZUEu3xnCXYdl1d4/fXXY7BL5grYfztmzJiynvxrwh5fUpnbt28fH4WuGOdnSi8DXinP+MoxEeCuLvtPq3IBoE0B7QrYAwxWR+jTR5qzfppcMclmclWVGwkqfuwJJJiaPXt2mDt3bvwcEFTRk5WHAXD+JAEu7wMPVuVZ0eN9oOI8NyXsLV4aCMySzBtvQv6EvbmkMZPtAHqUU5yqY8eO8XhNmDewD5rVcl5TA0epegx4pTrARJ07tdtss03YaqutMmfXjEl97969Y/uCxKWXXhqGDRvmxW85JtzcPWcFkMIoprqWFi5lvPdJwEXqX8UAmNVgJ9/ZwWvLqm3yerPazmvL68x2DX66ilt6COYoKMjKJVlI3nBaMTZddtll4YILLsicCXH/Lft3yUypio8//jh2byAzzBtHUvUZ8Ep1hEkid8G58LESVRUEyieeeGJsY5CgZdGoUaNCo0aNMmdKF8PZhAkT4qof+6SbNm2aeUalprIAmO8PE3G+bwS/yU+D4DVLgltWcJOfbLFg4p0Etwa4WrBgQdxfymp+ly5d/Cwst2TJknD88ceH0aNHZ86EcOyxx4abb765yoEr37cXXnihSrU/JFXOgFeqQx988EGsREsvvaoW9OAre8UVV8SV3QQXwrFjx8aJRqnj9Xn//ffD1KlTY3ozBXEkPhdMPpk8lg/cCIIJ1Ah+eXCThGNuIJXahD15jbhRQPCSvFYcMzkvf6OARym+RqocKezcwCVjabvttvNzsRw3Xnv27BlfF/Ca0ILo97//fZVfH2pUUOiSCua8rpJqxoBXqkN8/Uj/YuK4yy67VGuSQDrUoEGDwrfffhuP27ZtG8aNG7fWlkelgoB38uTJYbfddotFcqSKygfB5Vcu+U6Ritm4ceMY/CY/k0ex7xFnjyVBbPKgRUryk60BtD6ruBJucKvVoYAc20nYi8q+VIXwzjvvxLob06ZNi8d8p+67774YAFcV49Mbb7wRv6/c1Pb7J9WcAa9Ux5hws593hx12CFtssUXmbNW89dZb8aJKmwMwGf/LX/4SunfvHo9L3eeffx5bP3AToLqvrUoXQR9Bb8WAkAcrwqRAEwCWf7ACWvGYP5evSSqXclKP+d/HmJI8Kh7z4M/xvy8J4MsH9EzM3Xepqvr0009jX1hu2NJBQCEWohowYEAcL9CmTZvYWWHnnXeOx1XFa/vee+/FfbuMKZJqzoBXKgAUpHr11VfD/vvvX+19pwR1RxxxRLzDDibYV111VTjrrLO8I7wcbVF4bSkQxsPXRLVBiiHBcPkAsrIgk2qqfNYIHgl8V/fg+eQzWfGzmVye+UkQTqC6ugfP8+eo/l5Z8F3+mKDWnqiqDT5rFFHiQQ/0qhZfSjNek6uvvjqmLCffXTox0Du/VatW8biq2FLw3HPPxdeWKueSaseAVyoQ7777bkwNI+hlIlwdTMCPO+648MADD2TOhHDCCSeEG264wRY9y5Gqyj6q1q1bh06dOhn0Kqe4rBIY80iC0YoBavLgueTvVLwc8zlNPqtrCpyT5whiefj5Vi7xOaVVHplFpNqS9l7qSDs+9dRTw+233545E0K/fv3CnXfeWe2OAYwLBLsEyWR+Sao9A16pQLAiRMsh0gqrm/oE/v5FF10ULr744syZEFOh6P1nZccQ01KpIMp+RF5f0zYlqXq4QcNWGm4iEuySDl/qqADfp0+fWFwqceGFF8ZHTW4+8fqSDr3PPvvEjA1JtWfAKxUQehiOHz8+7LjjjnHfT02wh5fVXtIqsfXWW8c9Rdtvv308LmWkm5LezLBHqpi9eiWparg+MX4SxO25554xVb7U0RGAmhlTpkyJx7wmrOr2798/HlcXXRtYPedmtdcnKXu8dSQVEC5wFP+gl2xS8KK6jj766FgEK2lR9NFHH8X2PM8880w8LmXsX+SuORVouRv/9ddfZ56RJK0OYyVjJmMnY6jBbghPP/10vLYmwS7XXF6jmga7XPOp7kwGksGulF0GvFKBoYUOFYUpQpXs76suLsLciWelGLRcOeSQQ8KNN94Yj0sZqcxMKChgRQo5d9QlSZVjjGSsZMx0O8gK1Mf41a9+Fa+t6NKlS7zmsvJdE1zrueZz7beNnpR9BrxSAerQoUPcu/P222+vUsimqujL+8ILL8S2ReCCetppp4UzzjgjFsUoZaTktW/fPqY101KDfr3u7pCknzAmMjYyRjJWMmaWekE0rp2nn356fCQ3pOmSwLWWa25N8Dqzb5cbCVz7JWWfAa9UgAh2mWDMnTs3piTXFOlnY8eODeecc07mTAjXX3993HOU3JkuZbR7oCo21bH/+c9/xqq6klTqGAupbJ90DrA1zopq/4cddlhc3U3Qgujhhx+OxSZritZOFL6ihZFFqqTcsGiVVMC4wHLneLfddqt1mhPtEk455ZSyoI52BxSz4q59qeM1IZ2M9k6kpNVm8iJJxYy9pNwApF8z1x57Noe4T5cbxRSpAq/JLbfcEgYPHhyPa4obClx79t1339hBQFJuGPBKBY5eh6Q277fffqFp06aZszVDQY3evXuHr776Kh7Troi709zBL3UMhfRC/vTTT+MkzxUNSaVm9uzZZXtJSa+1p3OIPXG5brIKC66bZE5xTa6NBQsWhOeffz7stNNOsUe8pNwxd0IqcFwIt9pqq1gQg+b2tfGLX/wi/neSFkVcwLt16xbuuOOOeFzKmNh17NgxdO7cOb5GpJJ7P1BSKWCsY8xj7GMMZCw02A3x2sg1Mgl2yYziNaptsMu1nFV0ru0Gu1LuucIrFQG+plxkKZhBs//a7vMhVfqoo46KbRUS7PMdPny4FTiXYwWcVY5mzZrFqqQNGjTIPCNJ6ULwRdEk6jqwj3SDDTbIPFO6KEh17rnnhquuuipzJoSDDz44jBkzJl4XauPHH38ML7/8cqhXr16s1eGNBSn3XOGVigAXRPrzLl26NFbNrC32Cj3xxBOx0mTiyiuvjGlbNe3/myYbbrhhbPwPehond/clKU0Y28aPHx9/Z8wz2A1h4cKFoVevXisFu3Q3GDduXK2DXUyaNCneZNh1110NdqU8cYVXKiKLFi2K+4nYW8Ueq2z485//HIYMGVLWYoF+go899liNWyykCcPjxx9/HN57772w7bbbxj6UTlAkFTvGNqoDf/jhh/F60q5dO8e25ajhcPjhh4d33nknHpPxNHLkyHDqqafG49r65JNP4vWEuhmNGzfOnJWUawa8UpGhVRHtIkhtpnhGNvztb38Lffv2LWtV1KJFi/Doo4/WuIl+2nz99dcxxZkJCivtjRo1yjwjScVlyZIl4c0334xV6SnQZ3XgFbiu0lOXwl1gNffBBx8MBx10UDyuLVbTSWXea6+9wsYbb5w5KykfTGmWigwXSgqKsKeXCUs2cEHnYp+0KJo1a1YscHX//ffH41JHmh/pfrSiIMV5zpw5mWckqXgwdjGGUZeAMd5gd4XRo0fHMT4JdrkWck3MVrDLtZprNtdug10p/wx4pSJE+tlmm21WVsgqG6jcTNVIJkFgv/DRRx8dLrzwQqsVL0ewy2pI8jrRj9HXRVIxoFASqbSMXYxh7B+1v+6K1+U//uM/wsCBA+M1DwS+yeuUDVyj+e9xzebaLSn/TGmWihQX6pdeeik0bNgwBmLZ2n9FMY3TTjst3HbbbZkzIfTr1y/ceeedYd11182cKW30T3zttdfia8/E0ddFUqFavHhxeOONN2JARxXm2vZzTwtWXQcPHhzTlhMnnHBCuOGGG7JWmZ8pNtthuK5mo8OCpJox4JWKGBMYili1atUqdOrUKXO29hgWrrnmmtiqKBkimCixr5d/Syvu2lPYZObMmWHHHXeMvRQt+iKpUDB2z5gxI45TLVu2jOMUrXAUwueffx736xKMgrH76quvDkOHDs3aOM7rT1eFL774Ihap4gappLphwCsVOdoIvfDCC2HrrbeOj2x6/PHHw4ABA8paFbVp0yZWcKY3rVZg4jRhwoRYQIwJpQWtJNU1ClMR6FIoicr7pNNqBQp2UYmZmwFo0qRJrFdx2GGHxeNsoQr2lClTwn777WdFZqmOGfBKKTBv3rzw4osvhs6dO2e9nRCTph49eoRp06bF4/XWWy/ce++9sU+hVmClndeJCtoEvUwuXe2VlG9M6QjkJk6cGIsjMR65sviThx9+OAwaNKis4CPt/bixy7Uzm7he8h7ss88+FgaTCoABr5QSVN+kMAapx7QVyiaqNvfs2TNWrUwMHz48/OEPfzCwKydJH2S1l1UVJ5qS8oUbb2SbuKq7Kqa6V1xxRRg2bFjmTIh7ah955JGw6aabZs5kB9tcSJWmrd8mm2ySOSupLhnwSilCwPXWW2+FvffeO2y44YaZs9lBitzxxx8f2zckjjnmmHDLLbcY2JVTcbWXvb2SlEvJzTZXdVfFmHziiSeGe+65J3MmxKrMo0aNyvoWlK+++ioWk2Tbj2O/VDgMeKWU+fjjj2PLHPYNrb/++pmz2cFwcdlll4ULLrggcybElK2xY8d6J7sCJ6CScs0bbGtGX1223xCEJriGnXfeeVnPTlq4cGF4/vnnYzujrbbaKnNWUiEw4JVSiH6L06dPj0FvLlrm0Mbh2GOPje0usOWWW4Zx48bFpvr6SfkUQyejkrLJLRRrNmnSpFh/4pNPPonHXAtZ5e3Tp088ziauhQS7m2++edhhhx0yZyUVCgNeKYX4Wr/99tvh66+/Dvvuu2/WegqWxx4l2jpQpRisJo8ZMyYceuih8Vgr8F7wGjExJc2c4igU/pKkmqDgEgWRSJ/lRppF8lb15JNPhv79+8dVV/Aa0WGAvunZRo9dOiUwvnPjwfdCKjwGvFJK/fjjj+G1116LF2P29K6zzjqZZ7KHFQbaO9DmATTVp3/vkCFDvOhXwGrvu+++G1+zbbbZJraQysV7Iimdfvjhh/DRRx/Fdje0iGMl0VXdlTGlHTFiRPjd734Xr4EgyKWHfC4ybOjH/vLLL8ebyhSM5BooqfAY8EopxgSJvUu5vBgvWrQoFq+i3UPi5JNPDiNHjgz169fPnFGCVRlWe5koderUKbRs2TLzjCRVjsq/pOjWq1cvrupmuyhhGnz33Xfht7/9bbj11lszZ0I48sgjw1133ZWTrJp83FSWlB0GvFLKJelWG2ywQdhpp51ysvLKhZ9CVpdffnnmTAi//OUv415f/l2tjGGXfWXstWb/HYFv48aNM89K0grcUCTQpQ5Ahw4dYt9Ys2dWxY1Egtvx48dnzoRw/vnnh4suuignN3oZw3O9bUhS9hjwSiUgKaiRpMHlasJ07733xtZFBNnYdtttYzErUni1KtKcCXo/++wz05wllSE7h9RlUphNX16zDz/8MHTv3j2+XuB1uu2222LroVxg2pyM27kqDCkpuwx4pRJB8Y4XX3wxVlSmbUKukELds2fPMGfOnHjMCu9DDz0UDjzwwHisVSVpzqTkUdTKNGepdJG+TFEqVg1JXzZLZvX+/ve/x5XdefPmxeNNN900PPLII6Fr167xOBdo+0eGDi35st36T1JuGPBKJWTBggUx6KVH4HbbbZc5m31MBmgHQSoe2Hd2ww03hJNOOikea1UMxZ9++mksbEWaMy2emjRpknlWUtp98803YfLkyaYvV9HNN98c9+yyGg5uFj7++OPxdcuVDz74IPa6J9ht2rRp5qykQmfAK5WY+fPnx1VY0mdzmWpMcD1gwIDwxBNPZM6EMHTo0HDVVVeZtrsGpDmzgjBt2rTY05EbE6bMSenFlhMCKXqnt23bNmbgmL68ehT8owrzddddlzkTYkrz6NGjc7riSur0lClTDHalImTAK5Uggl5WetljS+CbK9x5P+ecc8K1116bORNin97777/fCcNakIJO4Dtr1qy4Is/NCateS+lBrQP2nU6dOjW0aNEiBrqmyK4Z166jjz46/Pd//3fmTAhnn312+M///M+c3khlLzUBL8Fus2bNMmclFQsDXqlEseeJlV5WENu3b585mxu0iTjttNPinXmQrkvqWbt27eKxVo8qoKQ5M9Ej6CX4dYVcKl7cCCQtlmCX4In0Zffprh2vGVtlGA/BVpmbbropFkrMJVZ1WYGn9VDz5s0zZyUVEwNeqYQRTBH0srKQ66CXdhF9+vSJ/yY23njjWFyEO+ZaM4ZpioAx0SPlmfeLdOdctNuQlBu0byNtmcwNUpYJdCmypLWjy0Dv3r3D3Llz4zF9iP/617+GAw44IB7nCsEu7xfBrjclpOJlwCuVOALQl19+OS8rvaxosNeK1DBQhXTUqFFh0KBB8VhrxnD9+eefx5YYFLOhVUmrVq0sbCMVML63X3zxRfze8jvf280228zvbRXddddd4cQTT4xV7MG1inZ3udyOgySNmYrPBrtScTPglVSW3kzKbC4LWYEAu2/fvrGdROK8884Ll156qSuWVcRKERWdSbNbb7314orvJpts4gRaKiBMr8jMYIXw22+/jYEaFYQd56qGcW7YsGFxf26iW7du4YEHHsh5AMrNWR6mMUvpYMArKUqCXu6aU8wql7hTP2TIkLj/KtGrV69wzz33hMaNG2fOaG3YE82+NtLuqOTM++aKr1S3mFaxosvqIBWYyZxh7z17TlU1tGgi84dtLwnqQIwYMSLnxfuSaswEuxaoktLBgFdSmaRlUa779IKh5/rrr4+tiriTj5133jk89thjoU2bNvFYVUPgy4ovKXhMqrlp4R5fKb+SPbqsDPI7gS4ruga61cNrePjhh4e33347HjOO0YLo9NNPj8e5lPTZNdiV0sWAV9JK6J9Ly6Itt9wypsrmerXwqaeeCkcddVT8d8EK5aOPPhp23333eKyqSybcBL4EwQS+Tril3Kp4w4ltIdy084ZT9b366qvhiCOOCDNnzozHtK8jhfnggw+Ox7nCVJjUc95Hgl3b5knpYsAraRUEn6z0Ulilc+fOOQ96qT5MMSv6UaJRo0bh7rvvjnt9VX0M6+VTKlmxpwUURcIkZQd9dBmzWBF0S0HtjRkzJgwePDgsWbIkHjNuUZyKIl+5xHg5ceLEWBDQYFdKJwNeSZWiyApBL2ldu+yyS857v1LchbYTL7zwQuZMCBdffHE4//zznUDWEMM7rysplhQLI+hlEsnkXFLNcBOJIJdgl+JJrOhaNK7mGKcY6//0pz9lzoSw//77x7ZDtK/LJXoiv/nmm3E7D8EuRQAlpY8Br6TVoufrK6+8EtP09thjj5wXC+HfO/nkk2MbisSAAQPCbbfdFld9VXNfffVVDHxnz54dV+4JfpmsO0mX1o6pEjeNCHJZCaR/LoEu/WBVc9w8+M1vfhPuv//+zJkQjjvuuFjQMNcZKRRPJIWalPS99tor9kaWlE4GvJLWiMnAa6+9FoNRJgW5DjwZkq688spw7rnnxt+x5557xmqdLVu2jMeqOaqfMmmfNm1arIjNim/r1q1zvoIvFSNWAGfMmBFXdBctWhTatm0bbxY1adIk8ydUU2y76NmzZww6wc03WhD97ne/y/mNONKmuZlLkEu9COscSOlmwCtprSiG9NZbb8VVQtK+8tE6iAB34MCBMbUaVB1+/PHHQ5cuXeKxaofVjc8++yxO5NmLyESeQmW2hZJCDG4/+eSTeGOIoIggl0JUuc5yKRVUYO7Ro0ccg8C4M3r06FidOde46ffyyy/H1Xk6A1hcTEo/A15JVcJQMXny5DhBYaU3H83463JSVCp4X+fOnRtXfWfNmhX3zBH4tmjRwomgSgo39vgOEOiy952MEgJdvhOm/mcPVfi5mclNBeTzZib95lnZ5eZFx44dfV+lEmHAK6la2AdK9V/29FKoJdfqMu2t1LCfjhUtWnNwaaClESu/FnJRmpFFknzuGVP43POwbkB2MabU5XYV6hewPYce87Rsk1Q6DHglVRuTw3feeSemg7H/M9cIxChkQtuKRL4Km5QiLgvJSheTRFL/WBGh2JWvt9KANH6KT5E9wlYNilAlmQ3eSMs+akCccsop4c4778ycCeHoo4+OBQnzUTWefdhsy9lxxx3jTTxJpcWAV1KNEBBxt7xDhw6x8FGuMVRddNFF8ZHIV+uKUkZxFyaLBAb0ZyYgIPjlp4WuVEwoQMW4xWeZn/Rb5bPMTTtXc3OHLRO0nHv++eczZ0Icxy+44IK83FygTgG93ilOxbglqfQY8EqqMVZG2A/FPrftt98+L5MX2lewuksgBoLtcePGhR122CEeK3co9kKwwIMVGwIFAoaNNtrIVTEVJKY4X375ZZg+fXpc0aUAFZ9ZHlZazj0Cze7du8caAeDGAm3n+vXrF49ziff+vffei6nqpE7bQkoqXQa8kmpl4cKFseIlq6wUHcnHqh/7eY844ogwc+bMeNysWbPwwAMPhH/7t3+Lx8otLhv0JCXwZfWX95zgl+IzrJpJdY1sBIJcPqMUo0puzth7On+eeuqpcNRRR8X3Aq1atYoFq1hpzTVW8ydMmBBXl7t27RrWX3/9zDOSSpEBr6RaY4/tP//5zxj4UMwqHw38mcxSrZlKzuDfHjFiRDj99NPjsfKDYIKKtrwf3IBgPx4FaJjcGlwoX5jKkHHCZ5AHYxKfQ27CUFzPiuP5w3tx/fXXh6FDh8bxAdR7eOyxx+JNh1wj+4ftNgS9rOzmY4+wpMJmwCspK77//vsYfDLpZJLBqmuukWI7aNCgWOUzcdppp4Xrrrsu1KtXL3NG+UJvX4LfJOgg2GXPHIEHRYF8T5RNjDkUVeOzxp5cJJ83glx75uYfY8CZZ54ZbrzxxsyZEHr16hXuueeevPT4pu0QGUBJj13rDEiCAa+krGE4SdoW5auCMysIw4YNi62KEgcddFBMcc5Hr2BVjveFtOck+KX1C2nvBCM8XHVRTbBym3ymSFelZVbymSKjwJXcusP3nb25zzzzTOZMCOedd1649NJL8/K+JJWYt91227DNNtuYXSKpjAGvpKyjd+6bb74Z2rdvH3se5mPiQbuLk046Ka4wgCJajz/+uP0WCwR7vVmFI1AhC4C9vgQprMiRDWCgospw42T+/Pllnx32g7J6lwS5Fp4qDNzo7NGjR/jggw/iMe3Lbr311nDMMcfE41xiGvv+++/Hasy77rpr/FxIUnkGvJJygokp+3oJZnbZZZe8pLPS9oL0OaqygokxbYsOOOCAeKzCQA/UJIAhBZrLEJWeebAKbABcupIAl9Vbvsc8uGFGinJyg8Re0IVl/PjxoU+fPnGFF3yHx44dG/bdd994nEuktb/xxhvxesNWGovmSaqMAa+knCGwoXgIP5mMkH6Ya9zlZ6WBdhgg0L7pppvC8ccfH49VWLgEEeAQ2BDk8EAS/PLTADi9kgA3ef+Tm1W89+Xff9NTCxOruNRNIPBEx44dY2YNrepybdGiRXG/LjdAqPzsjRBJq2PAKymnmNBOmjQp7q9iUsIkNteYQPfv3z+2xUicffbZcZ+vRUwKWxIAJ8FPZQEwqzi+j8WJyrmsxlUW4CbvsQFu4eN9POecc8K1116bORPCoYceGvuk52OVlc8ON1OpE9GpUydviElaIwNeSXnxySefxMCXycmWW26ZOZs7rDgQ5P7Xf/1X5kwI3bt3D6NHj7YnYxGpGADz4L1lUk1RMh4ESAbBhScJbqmcy3vIT47JuiC4NcAtTryHAwYMCE888UTmTIgtiK688sq8bF2ZOnVqmDx5ct6uJZKKnwGvpLypi7vypDPTm5fJNzp37hxT7rbYYot4rOLCJYuKzwRPyYNgKgmCCZ6SQNggOH/KB7fJe5IEt+XfEx5sbTDALU7cuGTLCDcvwftLz92TTz45HucS2UITJ04Mn3/+eez3zg0TSaoKA15JeUWwQjEr9ltRUbNRo0aZZ3KHNhl9+/aNE3HQE5bevV27do3HKm5JEJysIiYPgmBW8wl8qeZLH9Dkpz1aa4Yq6OydpAd28pPAlircBD/lA1sCXYPb9HjppZdCz549Y6E50AbqoYceCgceeGA8zqUlS5bE4lT5rAchKT0MeCXlHYHIhAkT4sSJCs4EoLlGuwxWJmifgYYNG4bbbrstDBw4MB4rXbi00bOVwJdgLAnOeBC08f4T/JYPhHkwkS71VWFWa7mBkLxe5V+7pUuXxpsF5V87bioQ4NJb2eA2ne69995Y+I+AE/S6JVOGn7k2e/bs2OaOSt1dunTJS9q0pHQx4JVUJxh6pk2bFlPUkn69uU5xpv/rkUceGdtoJM4///xw0UUXWfSkhDBpTwK4igEdaZMEvWQeEBTzs+KD82QoFFtwx3eO/+8ErayYVXwk5wl2CfrLr4gnAS4Pq+GWDr4PF1xwQbj88sszZ0Jc0WVllxXeXOLfTvrrshWlbdu23lCRVCMGvJLqFOmQr7/+elw12m233eIqUS6xuvfb3/42ttNIEATfddddpsmVOC6HBHwEvhWDQo5ZMeYnGQpMvCsGwKw8relBEMnnnJ8c89+o6gSe/208+LdZgeVzzE+O1/SoGODy3+Df5n8z37WKQT3HBLX8bnBR2rgRdOyxx8Ze5gn26o4cOTLnWwL4rnFd4HPOdYFtCZJUUwa8kuocE3NWemfOnBl23nnn0LJly8wzucGwd91118UqzqwigEnVo48+GjbbbLN4LK0On9fygTA/CSw5v7YglOcrSgLL8gEwn9Hk8lzZZToJmlf3SJ4nEE8C2SSo5by0JrSRO/zww2MqMciAueaaa8KQIUNyfiOE6wD/LmMxxQ39vEqqLQNeSQXjs88+i3t7qaDcoUOHnKcZ01bj6KOPjns8wQSLfWnsK5ZygUtuEvjye3IJTn5PjpPgNwkukt/Lrw5LuUBxKIJdqiGDPdpjxoyJfXZziZuP7777bvj000/jXt02bdpknpGk2jHglVRQSCcllY0JPauu7B/MJdpr0J+XSRZI87znnntCnz594rEklQr25h5zzDExpRj0uR03blzo2LFjPM4V0qcZ95mSMu6TVi9J2WKVFkkFhYnOfvvtFwuiPPvss2WrDLlCytyrr74a9t5773jMRI89vZdddlnZapskpRlj3aWXXhrbtyXB7j777BPHxlwHu4zxjPWM+Yz9BruSss0VXkkFi4nQ22+/HVq3bh0DU9I5c4V9mCeeeGJsv5H49a9/HYtbse9RktKIsY+WQ6NHj86cCXGV95Zbbol7v3OFtH4ybNgvvNNOO1k/QVLOGPBKKmi0SCHVjckRqW7sJ8sVhsPhw4eHP/7xj5kzIa78jh07Ni+9giUpn2bNmhV69uwZXnnllcyZEMfAP/zhDzndJ07dBMZ1bmIyrlshX1IuGfBKKngUM3nvvffC1KlTww477BC22mqrnE7GaMMxaNCgstQ+imhRzIpekJKUBu+8807o0aNH7IcOgk4yXHr16hWPc4EpJ311Gc/btWsXx3N7oEvKNQNeSUVj7ty54a233oopxrQvyuVeL9piUKmUdDvwb91///3hsMMOi8eSVKy4gTdgwIBYJBBURH7sscfiuJor/FuM37Ty4t/ZaKONMs9IUm4Z8EoqKrR0oXUFqxK5Xu1lD/ERRxwRU+/ASsRVV10Vhg4dmtMVZknKBaZ89NM955xzyory7b777rEHeatWreJxtvHvJKu6ZMswbttbV1I+GfBKKkrJai9thFgtyFX7IvYQDx48ODz44IOZMyEWt7r++utDgwYNMmckqbAtW7YsnHbaaeG2227LnAmhX79+4c4774zjaC6wqkvhQbaHME5vvPHGmWckKX8MeCUVrfKrvR06dIh7wnKx8soe4j/96U/hkksuyZwJ4YADDoh7fTfccMPMGUkqTF9++WXsLf6Pf/wjcyaECy+8MD5yMWaWX9Vt27ZtHJ9d1ZVUVwx4JRW9fK320rbjN7/5TdyDhq233jqMGzcubLfddvFYkgrN+++/H7p37x6mTJkSj2k1xKpu//7943G2LVq0KI7HrupKKhQGvJJSIV+rvS+//HJs4zF79ux43Lx585ju3K1bt3gsSYXib3/7W+jbt2+YP39+PG7RokXcr7vnnnvG42xiOkklfcZhV3UlFRIDXkmpMmfOnLhnLJervZ9++mls5zFx4sR4TC9J9vSecsop8ViS6tqf//znMGTIkNjDHF26dImVmAlGs81VXUmFzIBXUuqw2jt58uQwffr0nK32Lly4MLb1IKU5ccYZZ8QKqK5qSKorjH9Ukr/hhhsyZ0JssXbfffdlvZWbq7qSioEBr6TUYrV3woQJcQK24447Zr3AFCsn5557bmxVlDj44IPDmDFjQrNmzTJnJCk/5s2bF4466qjw9NNPZ86E2IJo+PDhMRMlm7766qvwzjvvxACb1eNNNtkk84wkFRYDXkmpRlD60UcfhX/961+hdevWcQWCoi3ZRJsP0pmZ+IE+k6z80iNYkvKBolQUp6JIFerXrx9uvvnmcNxxx8XjbKFoHyu6M2bMCNtss00s3pftYFqSssmAV1JJoJ/upEmTYkXn7bffPutpzrT76N27d1z1wEYbbRTGjh0b9ttvv3gsSbny3HPPxfGH9kNg/Hn44YfD/vvvH4+zgeki6csE1OzR7dSpU1hvvfUyz0pS4TLglVRSZs2aFYtN5SLNmZVkilmVX2G55ZZbwuDBg+OxJGXbHXfcEU4++eTw3XffxWMyTB5//PHQvn37eJwN5dOXO3fuHKs9S1KxMOCVVHJymeZc2R663//+93EP3c9//vPMGUmqnXzUECB9mQKAn3/+edh2221jEG36sqRiY8ArqWTlKs25siqpRxxxRLj33nuzXiVVUun55ptvwsCBA2OboUQ2q8T/+OOP4ZNPPgnvvfdeLEZl+rKkYmbAK6nk5SrNmYD3zDPPXKkPJqmGm2++eTyWpOqaNm1a3DpBijFYcR05cmQ49dRT43FtsQ+Y/zbjlunLktLAgFeSliuf5rzZZpvFNOdGjRplnq05Upv79esX5s+fH49btmwZHn300bDHHnvEY0mqqldeeSX07Nkz3qQDqcsPPvhgOOigg+JxbSxZsiRWXzZ9WVLaGPBKUjlJmvPs2bPjhI+WGxSfqg3SAlmRoW0ICKQpNNO/f/94LElr85e//CW2GGJfLRifaH/GdozaoNgVN/sYnzbddFPTlyWljgGvJFWCqqSsdixcuDD2mmR/b21WO0gTpG0I7UMSF154YXxksz2SpHRhP+1FF10ULr744syZEA444IDw0EMPxfZDNUVWC22GyGpZf/31Y1ZLNqvWS1KhMOCVpNVgeGSll8CXVRBWUth/W9MAddmyZXGf3e233545E2K685133hnWXXfdzBlJWoGME9qakbacOOGEE2J9gAYNGmTOVA/j2vTp02P7NLJXCHRZ2fXGm6S0MuCVpLVgmPzss8/iBJFVXvpcshe3JhNE/ltXX311bFWUDL+777573NfbqlWreCxJ7KWluvvrr78ejxlvaEF01lln1XjsmTlzZtxiweouN/DatGljoCsp9Qx4JamKklYdH3zwQWwvxMpITVMKaScyYMCAsGjRonjMxJNzO++8czyWVLrefPPNcPjhh4cZM2bEY8Yb9vB27949HlcXWyrIVGG8oSDVlltuaV9wSSXDgFeSqon0Zgq8UOhl4403joFv06ZNM89W3YQJE2IxK9ILQaGY++67L1ZhlVSaHn744TBo0KCYzoy2bdvGdma0TKuuBQsWxECXgJcCfFtttVWti/BJUrEx4JWkGqJa6ocffhhXfVu3bh1TBKtb3ZQUw169esV2IyC9cPjw4THl2VRDqXQwHbviiivCsGHDMmdC6Nq1axg7dmy1e+ESLJO6TFo0q7ms6jZs2DDzrCSVFgNeSaol0gTZ38vkktUYVlIaN26ceXbt6H95/PHHh9GjR1iqjz0AAA9zSURBVGfOhHDssceGm2++2UmqVAK4eXbSSSeFu+++O3MmhIEDB4ZRo0ZVqx84YxGZJ9OmTYv9xKk3YIshSaXOgFeSsoT0QVp8EPgy2aSdUVVTnRmKL7vssnDBBRdkzoSw7777xvTGTTbZJHNGUtrMmTMnZnm8+OKLmTMhjgXnnXdelbM8ajP2SFLaGfBKUpaVX2Wh3QeTz6r2t6T9CKu7ixcvjsf0/2X/XseOHeOxpPSYNGlS3MfPtgjQnuyee+4Jffr0icdrQ79wAl3ap9Uku0SSSoEBryTlCKnKFLeaOnVqaN68edxHx2rt2lZtaENChdYvvvgiHrNSM2bMmHDIIYfEY0nF78knnwz9+/cPCxcujMeszFKpfdddd43Hq8O0jVVh6gfMnz8/7tFt3759tVKfJamUGPBKUo4tW7YsBr0ff/xxXMFhxZfJ7ZoCX/r+EvS+9dZb8ZgWItdee20444wzyv4eqzsEw/Xq1YvHkgrP999/H1OOkywPpl3XXXddOPvss2OrMxDk0oub4nerw98jZZkVXTJAqLhMBkiDBg0yf0KSVBmbsElSjjEh3W677cJBBx0UNt988zB58uTw97//PXz66adlE96K6Mv7/PPPh969e8dj/tyZZ54ZTjvttNgWacSIEbEHMKmP3reUChPfTb7DfFcJcvnunnLKKeGss84q++7zHX7uuedWG+zy5xgrGDMYO0hdZixhTDHYlaS1c4VXkvKMCSwruKzUsPrDvrstttii0pVa/iyFrC6//PLMmRB++ctfhmbNmsWCVmAifOCBB8bfJRUOvpvdunWLvxPYkpUxfvz4eIw//vGP4eKLL44ZHBUxNhDoUg+AsYHMEG6EVfZnJUmrZ8ArSXWE4Zd9ugS+FLpi5YYUxcqKzlDI5oQTTojp0WjVqlXZHl9Sn0mHlFRY+G5SdA4tW7aMfbfByuxtt90Wfv3rX8fj8hgL2AJB0TvGAgJdvu/25ZakmjHglaQ6xjDMyg97fJkQU9iK/XkVC1zRtoT2JRSsAc/xd/lJ0EzhGkmFgYJ1BKvJdzSZblG5/ZFHHgldu3aNx+A5vteMAfwkOGYMYN+vga4k1Y4BryQVEIrR0KKEVEbSGJn0su/3hx9+CEcffXR49913YwuSefPmZf7GCkOHDo1FrSQVBr6T7Nstj2rtBLwdOnQI999/f0xPZiWXFV1SmNnaQNVlittJkrLDgFeSChABLhVZmQhT4ZUg9/jjj888uypSJFkZomqzpLrFDakWLVqUbUGozO233x6zOPjOspWByu3rrLNO5llJUrZY+UCSChATX1Z2999//7DPPvuEHXbYIRxwwAGhfv36mT+xMibWFL+pLlaVxo0bF/7nf/4nc0YS+E7w3eA7Ul2XXHLJaoNdvsN8l7fffvuw7777xu8433WDXUnKDQNeSSpwG2ywQdzv9/TTT4cJEybE1GWK3XCuYcOGmT8VYvpzVTGJv/vuu2Mg3aNHj3DIIYeEZ599NvOsVNqopMx3gu8G3xG+K9UJfElLTvAd3XvvvcOgQYPid5fvMN9lvr+kOEuScsuUZkkqMgzbX3/9ddzrm+z/o8/nUUcdtVIAXBkm7aNHj44rULQ7SbDq9Morr4Rddtklc0YqXW+++WbYc889VwpyaR9Gi7ABAwZU2kKsvCVLloQxY8aEL7/8Mt6IogI7QTA3ryxCJUn5ZcArSUWMtEn2+tLXl0rP7AmkVydtTCpOykeNGhXOOuus8M0332TOrLDxxhuH7bbbLlaElbQC36cPPvggzJ07N3NmhSZNmoQRI0assqee4JhWYXwX2U/P94nvIntz2WMvSaobBrySlBLffvttnGzz4HeCXibcBMFUg6WnJ+cl1c56660X++X++OOPMbjlO0ewy3m+czz4XZJU9wx4JSllGNap7JwEvxy3bt06nHLKKeGll17K/ClJNcWe3BtvvDFmV5CinAS5VFw2ZVmSCosBrySlGEM8KZkEvjNmzAhvvfVW+Otf/xoL55S34447xvPNmjXLnJFKF22F+vTpEyZOnJg5s0KXLl3CkUceGXbaaad4E4kgly0BBrmSVLgMeCWpRNDbd+bMmWH69OnhmWeeCQ8++GB45513Ms+GGPD27t07cySVLr4LBLYJbgj17ds3dOvWLbYQatmypW2EJKlIGPBKUgmi2BUrvvQZpWozRXWuuOKKsO2228ZKsuz5lUoNe3KpgP7hhx+Gc889N35PBg4cGA477LC4omvxKUkqPga8klTivvvuu1h4h9XfWbNmxXObbrppLHpFwStaFklplXz+KTo1e/bseK5FixZxFdfPvyQVPwNeSVIZLgm0YyH45UFVZ3r8MvnnYeVZpQGf6+Qzzh53Kpjz+eYmj71yJSldDHglSatFz15WfQkMvvzyy7D++uuXBb/Nmzc3MFBRYKpDIaokyF24cGHZjRxWc+mtK0lKJwNeSVKVsJ+RlE8CBoJg9vkSNFCllgfBsAGwCgFTG4JaVm95cLOG/blJqjIp++7HlaTSYMArSao2ggdWzJKAgjRoqtYaAKsuVBbgUpV8ww03LPs8kpFgMTZJKj0GvJKkWjMAVj4Z4EqSqsqAV5KUdasLgAlECIJ5EAAbkKgq+DwR4BLYGuBKkqrDgFeSlHOVBcBo2rRpDFSaNWsWfxoEKwlu+bzMnz8//lywYEF8zgBXklRdBrySpLzj0kMFaIKZ8oEN5wl+kwDYIDjdyge3yeeAB6nv5W+E8KCSsinxkqTqMuCVJBWE8kFwEgDzk6AoWQlOgiCCYFKkVTxIQSa4Td5bHqzccjOjfGDL7wa3kqRsMeCVJBUsLlGLFi0qC5CSYOn7778P6623XmjcuHEMjpIHx5w3WKobvF/ffvttfM+4eZE8OOZ8vXr1yoLaJMDlPfP9kiTligGvJKmocNlasmTJSkFV8js/CZ4IoioLhhs2bGhwVUu8/kuXLq00qOXB88lrX/494PdGjRr5+kuS8sqAV5KUGqQ/r26FcfHixXGFkcBr3XXXjcEvAVjySI75Wap7hnn9CGa5oZD8TB4c8xryWrLCzmtYPqBNglpW2N1zLUkqFAa8kqSSQJCWrEJWDOSS35ctWxb/bPngt2JQzIPAufyDAK/QVi65vBPA8v+7/IP/v5UFs8lPNGjQYKX/z+VfA4JaHvz/liSp0BnwSpKUUX6Fs7KAMPk9CR4TBLsEgBTSKh8IV/ZIguMkQC7/M/mdS3NyeS7/k0dlQWzFBwWi+Jn8XST/fvkAtmIwm5xzhVaSlBYGvJIk1cCagk8Czu+++67s9/LP8XeSSy8/K/u9YkBc/neC0fIBdBJk169ff7UBdyGuQEuSlA8GvJIkSZKkVDJnSZIkSZKUSq7wSlIRYKhe/MP/hWXLHw3W+VlYd/nDFFWpuPg9lqT8M+CVpAK25Psfw8SvloY35iwO85b9mDkbQvMGPw+7brJu6Lxhw9Consk6UiHzeyxJdceAV5IK1McLloWxUxeE736aH6+i/vI5cq92TcNWTRtkzkgqJH6PJaluGfBKUgFikvzglAWhKgM0CZF92ztZlgqN32NJqnvmz0hSgSH9kRWhqt6N5M/x5/l7kgqD32NJKgwGvJJUYNjrt6b0x8rw5yct/3uSCoPfY0kqDAa8klRA2GVCYZuaeH3533OXilT3/B5LUuEw4JWkAkLLkvJVXKuDv7dk+d+XVLf8HktS4TDglaQCQn/O2ljqRFmqc36PJalwGPBKUgFpsA61WmuuYS3/vqTa83ssSYXDgFeSCsi6yye6zRvUbGjm7zVyoizVOb/HklQ4DHglqYD87Gc/C7tusm7mqHp2W/73+PuS6pbfY0kqHAa8klRgOm/YMNSvxujM1Jg/32n535NUGPweS1JhMOCVpALTqN7PQ692TeMEuKp6L//z/D1JhcHvsSQVhp/9n83eJKkgfbxgWRg7dUH4bg3dTVgRYpLcrmmDzBlJhcTvsSTVLQNeSSpgS77/MUz6aml4fc7ilfp6UtiGvX6dNmoYGq3jipBUyPweS1LdMeCVpCLAUL3kh/+L/TlpWUIVVwvbSMXF77Ek5Z8BryRJkiQplcyfkSRJkiSlkgGvJEmSJCmVDHglSZIkSalkwCtJkiRJSiUDXkmSJElSKhnwSpIkSZJSyYBXkiRJkpRKBrySJEmSpFQy4JUkSZIkpZIBryRJkiQplQx4JUmSJEmpZMArSZIkSUolA15JkiRJUioZ8EqSJEmSUsmAV5IkSZKUSga8kiRJkqRUMuCVJEmSJKWSAa8kSZIkKZUMeCVJkiRJqWTAK0mSJElKJQNeSZIkSVIqGfBKkiRJklLJgFeSJEmSlEoGvJIkSZKkVDLglSRJkiSlkgGvJEmSJCmVDHglSZIkSalkwCtJkiRJSiUDXkmSJElSKhnwSpIkSZJSyYBXkiRJkpRKBrySJEmSpFQy4JUkSZIkpZIBryRJkiQplQx4JUmSJEmpZMArSZIkSUolA15JkiRJUioZ8EqSJEmSUsmAV5IkSZKUSga8kiRJkqRUMuCVJEmSJKWSAa8kSZIkKZUMeCVJkiRJqWTAK0mSJElKJQNeSZIkSVIqGfBKkiRJklLJgFeSJEmSlEoGvJIkSZKkVDLglSRJkiSlkgGvJEmSJCmVDHglSZIkSalkwCtJkiRJSiUDXkmSJElSKhnwSpIkSZJSyYBXkiRJkpRKBrySJEmSpFQy4JUkSZIkpZIBryRJkiQplQx4JUmSJEmpZMArSZIkSUolA15JkiRJUioZ8EqSJEmSUsmAV5IkSZKUSga8kiRJkqRUMuCVJEmSJKWSAa8kSZIkKZUMeCVJkiRJqWTAK0mSJElKJQNeSZIkSVIqGfBKkiRJklLJgFeSJEmSlEoGvJIkSZKkVDLglSRJkiSlkgGvJEmSJCmVDHglSZIkSalkwCtJkiRJSiUDXkmSJElSKhnwSpIkSZJSyYBXkiRJkpRKBrySJEmSpFQy4JUkSZIkpZIBryRJkiQplQx4JUmSJEmpZMArSZIkSUolA15JkiRJUioZ8EqSJEmSUsmAV5IkSZKUSga8kiRJkqRUMuCVJEmSJKWSAa8kSZIkKZUMeCVJkiRJqWTAK0mSJElKJQNeSZIkSVIqGfBKkiRJklLJgFeSJEmSlEoGvJIkSZKkVDLglSRJkiSlkgGvJEmSJCmVDHglSZIkSalkwCtJkiRJSiUDXkmSJElSKhnwSpIkSZJSyYBXkiRJkpRKBrySJEmSpFQy4JUkSZIkpZIBryRJkiQplQx4JUmSJEkpFML/A5Xh4lI5mtUKAAAAAElFTkSuQmCC;" vertex="1" parent="1">
          <mxGeometry x="30" y="510" width="1126.52" height="1090" as="geometry" />
        </mxCell>
        <mxCell id="fqr_pHElhw7Sh0NQ77Ix-16" value="学习" style="rounded=0;whiteSpace=wrap;html=1;fillColor=default;strokeColor=none;fontSize=30;fontStyle=1;fontColor=default;" vertex="1" parent="1">
          <mxGeometry x="860" y="690" width="60" height="30" as="geometry" />
        </mxCell>
        <mxCell id="fqr_pHElhw7Sh0NQ77Ix-17" value="实践" style="rounded=0;whiteSpace=wrap;html=1;fillColor=default;strokeColor=none;fontSize=30;fontStyle=1;fontColor=default;" vertex="1" parent="1">
          <mxGeometry x="1050" y="982" width="60" height="30" as="geometry" />
        </mxCell>
        <mxCell id="fqr_pHElhw7Sh0NQ77Ix-18" value="思&lt;br&gt;考" style="rounded=0;whiteSpace=wrap;html=1;fillColor=default;strokeColor=none;fontSize=30;fontStyle=1;fontColor=default;" vertex="1" parent="1">
          <mxGeometry x="980" y="1282.5" width="60" height="25" as="geometry" />
        </mxCell>
        <mxCell id="fqr_pHElhw7Sh0NQ77Ix-19" value="分享" style="rounded=0;whiteSpace=wrap;html=1;fillColor=default;strokeColor=none;fontSize=30;fontStyle=1;fontColor=default;" vertex="1" parent="1">
          <mxGeometry x="718" y="1498" width="60" height="30" as="geometry" />
        </mxCell>
        <mxCell id="fqr_pHElhw7Sh0NQ77Ix-20" value="交流" style="rounded=0;whiteSpace=wrap;html=1;fillColor=default;strokeColor=none;fontSize=30;fontStyle=1;fontColor=default;" vertex="1" parent="1">
          <mxGeometry x="430" y="1497" width="60" height="30" as="geometry" />
        </mxCell>
        <mxCell id="fqr_pHElhw7Sh0NQ77Ix-21" value="练习" style="rounded=0;whiteSpace=wrap;html=1;fillColor=default;strokeColor=none;fontSize=30;fontStyle=1;fontColor=default;" vertex="1" parent="1">
          <mxGeometry x="163" y="1280" width="60" height="30" as="geometry" />
        </mxCell>
        <mxCell id="fqr_pHElhw7Sh0NQ77Ix-22" value="反馈" style="rounded=0;whiteSpace=wrap;html=1;fillColor=default;strokeColor=none;fontSize=30;fontStyle=1;fontColor=default;" vertex="1" parent="1">
          <mxGeometry x="110" y="982" width="60" height="30" as="geometry" />
        </mxCell>
        <mxCell id="fqr_pHElhw7Sh0NQ77Ix-23" value="创造" style="rounded=0;whiteSpace=wrap;html=1;fillColor=default;strokeColor=none;fontSize=30;fontStyle=1;fontColor=default;" vertex="1" parent="1">
          <mxGeometry x="280" y="690" width="60" height="30" as="geometry" />
        </mxCell>
        <mxCell id="fqr_pHElhw7Sh0NQ77Ix-25" value="见识" style="rounded=0;whiteSpace=wrap;html=1;fillColor=default;strokeColor=none;fontSize=30;fontStyle=1;fontColor=default;" vertex="1" parent="1">
          <mxGeometry x="572" y="585" width="60" height="30" as="geometry" />
        </mxCell>
        <mxCell id="fqr_pHElhw7Sh0NQ77Ix-26" value="&lt;font color=&quot;#3333ff&quot;&gt;认知&lt;/font&gt;" style="rounded=0;whiteSpace=wrap;html=1;fillColor=default;strokeColor=none;fontSize=30;fontStyle=1;fontColor=default;" vertex="1" parent="1">
          <mxGeometry x="572" y="1050" width="60" height="30" as="geometry" />
        </mxCell>
      </root>
    </mxGraphModel>
  </diagram>
</mxfile>
